/* XPM */
static char *result[] = {
/* columns rows colors chars-per-pixel */
"16 16 2 1 ",
"  c gray2",
". c #060606",
/* pixels */
"                ",
".               ",
"  .          .  ",
"   .     .      ",
" .   .     .   .",
"       . .      ",
"                ",
"                ",
"                ",
"   .         .. ",
"                ",
".               ",
"       .        ",
"      .         ",
"..   .   ...   .",
" ..    . . . .  "
};
