/* XPM */
static char *result[] = {
/* columns rows colors chars-per-pixel */
"60 60 234 2 ",
"   c #642222",
".  c #6D2525",
"X  c #6D2B2A",
"o  c #672928",
"O  c #732525",
"+  c #722A2A",
"@  c #7C2C2B",
"#  c #7A2726",
"$  c #73322C",
"%  c #7D342D",
"&  c #6B3434",
"*  c #6A3838",
"=  c #733331",
"-  c #7C3532",
";  c #763B36",
":  c #6B302E",
">  c #79423C",
",  c #7D4B44",
"<  c #784640",
"1  c #7E5248",
"2  c #7D5246",
"3  c #842C2C",
"4  c #8A2D2C",
"5  c #812728",
"6  c #83342E",
"7  c #8D312E",
"8  c #92312E",
"9  c #99322F",
"0  c #843331",
"q  c #8C3232",
"w  c #833B34",
"e  c #8B3A33",
"r  c #923534",
"t  c #9B3531",
"y  c #953A34",
"u  c #9A3C35",
"i  c #963938",
"p  c #9B3D3A",
"a  c #892F30",
"s  c #A13A33",
"d  c #82433A",
"f  c #87433B",
"g  c #9B4236",
"h  c #95413B",
"j  c #9D423B",
"k  c #9B473B",
"l  c #A24436",
"z  c #A3453C",
"x  c #A44A3D",
"c  c #AC4B3D",
"v  c #A8483A",
"b  c #B14E3B",
"n  c #A9523C",
"m  c #B95E3B",
"M  c #B3563D",
"N  c #BB623D",
"B  c #C2663B",
"V  c #C56739",
"C  c #9F4740",
"Z  c #9D4A43",
"A  c #924B43",
"S  c #835047",
"D  c #83544A",
"F  c #8A564B",
"G  c #86594D",
"H  c #8B5B4D",
"J  c #8B5147",
"K  c #96574A",
"L  c #8D5E52",
"P  c #865D53",
"I  c #925E51",
"U  c #804E44",
"Y  c #A14640",
"T  c #A44B42",
"R  c #AB4D42",
"E  c #B24E42",
"W  c #AC5344",
"Q  c #AC5549",
"!  c #AC5C4B",
"~  c #A95646",
"^  c #B35444",
"/  c #B35B46",
"(  c #BB5C44",
")  c #B25C4A",
"_  c #BB5D49",
"`  c #B85643",
"'  c #8C6356",
"]  c #926354",
"[  c #956B5A",
"{  c #9B6D5B",
"}  c #966758",
"|  c #9C705E",
" . c #AD624C",
".. c #B46345",
"X. c #BD6443",
"o. c #B6624E",
"O. c #BC634B",
"+. c #BA6B49",
"@. c #A96755",
"#. c #B46552",
"$. c #BC6651",
"%. c #B46E59",
"&. c #B96B54",
"*. c #AB795E",
"=. c #BC755D",
"-. c #B97857",
";. c #BD794F",
":. c #957563",
">. c #9B7866",
",. c #9B7966",
"<. c #A17E6A",
"1. c #A77963",
"2. c #BC7B64",
"3. c #B57761",
"4. c #AB6B61",
"5. c #C26B43",
"6. c #C1634B",
"7. c #C36B4C",
"8. c #C56A47",
"9. c #C5734A",
"0. c #CA734A",
"q. c #CB7A4B",
"w. c #C77346",
"e. c #D27D4D",
"r. c #C16C52",
"t. c #C16D58",
"y. c #C67354",
"u. c #C37C54",
"i. c #C57559",
"p. c #CB7B59",
"a. c #C97A57",
"s. c #D37C52",
"d. c #C07961",
"f. c #BD825D",
"g. c #9B856F",
"h. c #9D8770",
"j. c #9D8A73",
"k. c #9F927C",
"l. c #A4836D",
"z. c #A9886D",
"x. c #B38363",
"c. c #BB8365",
"v. c #BA8967",
"b. c #B2836B",
"n. c #BD8C6C",
"m. c #B9876B",
"M. c #BD926D",
"N. c #A38671",
"B. c #A48B74",
"V. c #AA8B73",
"C. c #A58F78",
"Z. c #BB8C73",
"A. c #B38D73",
"S. c #A4937C",
"D. c #AC937A",
"F. c #AD9A7F",
"G. c #B1967C",
"H. c #B59A7D",
"J. c #BB9C7D",
"K. c #BA9476",
"L. c #D7854D",
"P. c #CC8155",
"I. c #C6835B",
"U. c #CC835C",
"Y. c #CC8A5D",
"T. c #C68057",
"R. c #D38552",
"E. c #D58C5A",
"W. c #D88B57",
"Q. c #CC9459",
"!. c #DC925E",
"~. c #D39758",
"^. c #E18B4B",
"/. c #C38C63",
"(. c #CA8C63",
"). c #C38C6C",
"_. c #C48768",
"`. c #D08C62",
"'. c #CD9265",
"]. c #CC936B",
"[. c #C7966B",
"{. c #DE9D66",
"}. c #D39867",
"|. c #C18E73",
" X c #C39472",
".X c #C99571",
"XX c #CD9C74",
"oX c #C49B7B",
"OX c #C49877",
"+X c #D19C71",
"@X c #D4A568",
"#X c #CBA47C",
"$X c #CCA67A",
"%X c #D4A678",
"&X c #D9B174",
"*X c #E3A36C",
"=X c #E1AA7B",
"-X c #D8A35C",
";X c #AC9B82",
":X c #B39C82",
">X c #BA9D82",
",X c #BA9683",
"<X c #B4A186",
"1X c #BCA285",
"2X c #BBA58A",
"3X c #BCA98C",
"4X c #B3A289",
"5X c #C29C84",
"6X c #C4A384",
"7X c #CAA684",
"8X c #CCAC86",
"9X c #C1A689",
"0X c #C4AB8C",
"qX c #CAAD8C",
"wX c #C6A787",
"eX c #D3AD86",
"rX c #CDB18E",
"tX c #D6B385",
"yX c #C8AF92",
"uX c #C6B192",
"iX c #CBB392",
"pX c #CCB89A",
"aX c #D4BA94",
"sX c #D2BC9C",
"dX c #D2B795",
"fX c #E2BC8D",
"gX c #D5BEA2",
"hX c #E2C296",
"jX c #D4C2A1",
"kX c #DEC3A3",
"lX c #DECCB1",
"zX c #E4C8A5",
"xX c #EBD7B7",
"cX c #D5C09F",
/* pixels */
"gXgX0XD.h.D.F.F.F.F.F.2X3X3XuXlXpX3X3XF.F.F.<X1XG.G.B.D.F.G.G.G.H.G.:Xh.D.yXgXgXgXC.N.C.,XD.G.D.h.g.H.F.H.H.D.H.B.h.D.gX",
"U.U.T.T./.9XXX}.'.'.Q.'.'.XXpXcXpX#X'.}.+X`.'.%X3XY.u.u./.wX0X).Y.(.Y.I.a.(.`.Y.`.(.I.T._.2X3X5XT.y.I.6X9X0X9XI.u.u.u.I.",
"W O./ / r.d.U.U.p.a.p.p.p.`.tXsXaX}.U.U.U.p.p.i.4.#.6.7.a.sX%XY.r.7.0.r.7.7.7.7.r./ O.X.R @.4.%.O.O.9.}.%X8X@X7.6.7.7.6.",
"i W z p R R ) ) ! ) ) $.r.y.}.sX%XU.y.$.$.t.$.T C C R ^ t.zXY.9._ E ` R R E E R R i j C i z Y p z R O.y.[.7Xu.O.^ ^ E R ",
"i Y p i i r r r r i i R / _ #.iX_.r.t.T T t.) i Y e r T t.gX$._ R p Y i i i i i i i r r j ^ Y i i r _ ^ 2.6X^ _ T p i i ",
"i i j j i i i i i i i i p Y #.iX2._ _ T T Q T i i r i i Q kXo.T i i i Y i r r i i z C r i p i p Y i C R 2.6XE p i i i i ",
"t t r 3 + t t t t t t t t p  .iX3.z u p p p t t t t t t T kX) C u t t u t i t t t t t t t t t i t t i T -.5XY u t t t t ",
"a 3 @ = & - 3 3 3 0 3 3 3 A b.iXZ.K 3 3 3 3 3 3 0 3 3 3 A dXb.4.A q e - - 0 3 6 3 0 - 0 a 0 3 3 3 3 w @.K.wX1.q 3 3 6 3 ",
"F S 1 D P S S D F S F F I 1.1XqX>X>.F J S F F F D S S H | qX1X1X>.I { P P D S S F L P G S S F F F F L G.1XrXH.] S D D F ",
":XC.j.S.H.j.j.D.D.g.:X:X0XrXrXyX2X:X:X;Xj.F.H.D.;Xj.j.<XrXrXiXrX2X<X0XH.:XS.j.B.;X4X>XD.h.h.D.:X:X:X:XyXrXrXrXH.j.j.C.:X",
"V V 0.R.e.V 7XiX9XH.V q.e.q.B L.w.w.L.e.V #XrXrXyXL.^.%XtXL.L.L.L.(.1XL.s.s.s.s.s.s.s.].iXrXrX[.V V B B N V N >Xw.V V V ",
"y y z c n g Y.$X$XQ.b 5.X.( m ( m b n 6.M Q.$X7X+Xg l ..&.v N B X.~ A g g n ( 6.( ` n ..@XqX+X;.y g u u g g g k g g l u ",
"5 7 8 7 4 4 / ).M.X.t u u 9 y y s y 7 u 9 m f.#X+.5 8 t t 4 u t 9 7 3 8 r g l u t y u b -.7X-.n 4 4 8 4 4 4 4 3 3 3 4 3 ",
"3 7 4 3 5 4 l m.m.l 5 4 3 3 4 5 7 4 5 3 3 l %.J.v 4 8 4 3 4 8 4 3 4 7 9 p g y 7 8 4 u v ! 6X#.g 4 4 8 4 4 4 4 4 7 3 3 3 ",
"4 4 3 4 3 4 l c.m.v 3 4 4 4 7 3 4 3 3 3 3 l %.oXn 3 4 3 3 8 8 4 4 7 8 7 y k k g g 8 7 y ..6X@.u 7 8 # 3 4 4 4 3 9 7 4 4 ",
"3 4 4 4 4 4 y x.c.y 4 3 5 7 g g g 9 4 4 3 y @.OXu 4 4 # O . # 5 3 @ # 6 h r e e y g g k @.wX! t 3 . O # 5 3 4 5 3 4 4 5 ",
". . O O O O @.K.K.1.. . O + w w 6 6 % @ O } m.6X1.O O . . o $ = = + . - 6 % - d w w 6 K K.iXZ.I O   X X O X O O O O O . ",
"D D D D 1 1 :XwX0X9X, D H } { { | { [ ] S G.0XqX9X2 D D 1 1 ' ' ' L 1 [ ] ] :.,.[ } } z.dXsXpXG.H G :.' G 1 D D D 1 D D ",
"C.C.N.l.N.l.6X7X7X7XC.N.H.9X0X0X0X9X#XG.V.7X8XeXeXB.B.B.z.z.H.K.G.G.l.J.F.F.4X3XJ.J.H.1XaXaXdXqXH.H.7XJ.G.z.V.z.z.B.V.B.",
"rX8XY.0.0.0.7.0.0.0.5XI.P.}.aXsXrX].q.!.!.!.!.!.W.5X,X].W.W.!.!..X.XW.{.OX1X0X$XQ.{.*X@X{.{.*X*X*X*X*X*X*X&X5X`.R.W.{.8X",
"rX@Xa.6.6._ 6.6.6.6.6.i.i.`.&XgX&XT._ 6.6.6.6.6.6.r.C Q ..z O.6.) W _ 6.~.#X8X@X#.U.p.a.p.p.p.p.p.i.p.a.i.i.O.6.O.6.y.@X",
"8X-.R g j _ z p p p e Y Q o._.gX_.O._ _ ` ^ ^ W r p i p p i p j R _ r.R )  XoXi.) ! $.$.) t.i.$.o.i._ Q Q W _ _ ( _ _ X.",
"yX#.z i t E p t i i q C T ! d.sX2.Q E b c x x k 3 i i r i r i p c ^ _ p Q |.|.$.W Y Q ) T o.$.) ) $./ T T T E _ _ ^ W / ",
"qX#.z i i i t i i i i C T ! i.iX2.Y i i r t i q a p i i i a r r r r t i R Z.|.R p i p Y A j T R z x Y x T Y i E ^ z i ^ ",
"qX .u t 9 + X . 6 c c E R E %.iX%.l 9 o X X 3 t t t t t s t @ X . . X s z m.m.x s t s t s c ^ k $ $ $ $ % y t t t s s x ",
"yX>X} w w w , , U w w w w H :XiX1X] : X & & & + + + + X + X + + % @ X X l.0X2XD.< X + + + + X o : , , , > * + X X + > H.",
"iX0XwXH.B.N.1X0X9X9XwXD.B.G.pXqX0XD.:.:.l.l.g.:.N.N.>.:.,.l.:.:.g.,.:.N.1XqX0XwXV.b.l.l.<.:.:.:.:.,.g.l.N.l.:.:.l.l.V.0X",
"].'.7XwX/.[.iXsXsXcX'./././.].'.'./.f.-.-.J.1XH.C.-.-.%.-.H.*.-.-.-.-.-.'.].].].=.G.Z. X2X>X1XM.c.f.*.-.f.n.D.-.c.I.f.].",
"9.9.).Z.9.P.7XdXdXqX5.9.9.9.9.9.9.9.w.N N ).wX9X<.m m m ..z...N m m m N 7.7.9.7.N b.c.(.6XqX6X).9.9.m m X.u.A.X.7.X.N 9.",
"# i y g k p W OXOX/ i z k y g y y y e y y v %.oXv 3 3 4 3 # 7 b u 4 4 4 3 4 4 4 @ 3 t b ! 7X#.u 4 3 r a 4 7 x x q 3 5 5 ",
"q q q q q q W Z.Z.W 4 y e y x k x g y e 0 ~ d.wXv 4 4 5 5 5 y g i p u u e g v v l e y x &.iX2.n i q @ q q q e q q a a q ",
"u u t u i q k Z.Z.k 9 z v g e % % e g g i ~ 2.7Xc l y 9 t t z v z c z x z c g % % y 8 y ! 6X@.p q @ @ 3 0 a @ 0 q q q a ",
"@ @ @ - - + 4.1X>Xb.O 6 e e % $ ; w 6 6 # *.K.yXZ.e 6 6 6 # e e e f e e f e d > $ # # f b.qXb.K O . . + + + . + + @ + + ",
"S 1 D D 1 1 <XuXuXuX> G H H H ] [ [ ] F > D.0XiX:XF ] H H H ] ] H H H H H H I [ ] D G ,.0X0X1Xl.U , , S D S G G S 1 1 1 ",
"k.k.;X;Xk.4XpXpXpXjXg.S.F.F.F.3X9X3X3XS.h.0X0X2Xh.F.3X<X;X3X3X3X4XF.F.F.F.F.F.;X3XF.4XuXsXiXrX9XD.h.j.D.D.D.:X4Xk.;Xk.k.",
"q.E.7XoXq.q.W.E.E.E.R.R.~.=XxXxXxXtXR.!.w.R.L.R.R.R.R.0.P.kXk.F.v.W.L.!.rX+XR.W.~.R.~.!.!.R.7X8XW.w.`.hXzXxXzXW.E.E.E.q.",
"k $.&.&.O.$.$.$.7.y.y.y.y.Y.fXxXfX}.y.6.( 6.( O.X.O.6.c ~ kX}.Q...k c a.a.i.y.y.y.t.a.y.y.y.p.a.y.Q 7.~.tXhX}.7.O.O.O.O.",
"r j Y R o.R C Z T Q Q ~ O.y.'.kXXX&.Q u g p c ` ( u u i Z dXy.+.k h u W ~ T Y T W ) / / x ~ ! ! T j z ..].8X+.z p c ^ s ",
"r q r A R i w e h Y Y C W o.=.jX).Q p q 3 r i x R q q r Z 7X! n g 7 r r y q q r p j C p r p p C C i p x =.5XR r q g x r ",
"r r a a q r 0 i h T Y C C W =.jX).R q @ 3 q r q i 4 q q Z 0X) W g y r % @ + @ q r r r r r r q i Y Y g R =.7Xc r r q q r ",
"q r q q r r q q h Y Z Y Y W =.cX).W p q a r r r r q r r Z 7XQ W p r r a 3 @ + # q r r q q q r r r i i T =.6Xx i r r r q ",
"+ + O + O + + + + + @ - w I 9XcXwX{ w w - 0 - O O + + X d rXA.A.J + + . . { ,XV.; O O X + + + + X X % 1.J.9Xb.= O + + O ",
"L L ] L L ' I G H ] D ] } l.0XdXiXG.| { [ :.{ [ [ ' G D [ qX1X9X<.H G G D N.1X:X| G G G G L L H G L } :X0XqX>X} G G G L ",
"v.v.v.v.v.n.>XH.H.1Xx.v.v.).XXXXeXrX0X#XM.0XiXyX0Xv.x.x.v..X.X[.).m.x.x.b.m.v.v.m.x.1.m.H.>X1XK.f.v.n.#X#X#XqXn.x.1.x.v.",
"X.N X.X.X.w.#X8X8X7X9.X.N +.0.q.U. X5XU.q.eXaXdXrXV w.9.9.X.X.5.5.0.0.0.0.7.X.N X.X.N T.8XqX8X[.X.X.5.q.u.T.,X+.X.N X.X.",
"r r y g i i Q.$X$X-Xi u p g x T T Z Z R T @X&XaX&XM ( x p i y ^ ( ( ( i W z u i y y y  .@XqX@X;.i i R ! Q T h y r y y g ",
"q i y q q r (  X.X+.q r i p p C Z C j C C =..XqX7.` l i i p r p i c ( q p y r r p p i x -.wX=.n q q T T W W Y i i r q q ",
"q u i q q q R m.).W q r p p q p h p p k C _ _.qX) ` i r q q r q r i E r i j p p g k p g #.qX=.R q q C C T W T j g g i q ",
"i r q q q q x m.n.c q r q q q q q q r p p ! _.qX#.c r a 3 X q q r q q j Y R R Y x x p z #.iX2.~ i q g Y Y Y z Y x T Y i ",
"k i a 4 i r s m.m.g r r + . 3 @ q i r r i Q 2.qX..r 0 @ = * q q r 3   E c c c E c c E E %.dX=.W C h c c c c p R c x Y C ",
"d d d d d w G.0X0X1XX = ; ; = = = : + : + N.>XyX<XX $ : = ; = = = & < w U w w U d d ; H 2XqX>X>.; d 1 1 U d d d d d d d ",
"G.B.N.N.B.D.yXpXpXpXV.B.N.N.<.<.>.:.:.>.<.9X0XqX8Xl.:.:.:.N.N.<.l.l.g.G.N.N.V.V.,.,.,.G.0XqX0X>X,.,.B.V.B.l.N.D.F.z.z.G.",
"uX3XJ.M.M.#XeXeXeX%X XM.M.M.1X1XH.A.x.*.x..X.X.XXXn.x.x.*.c.v.c.v.M.K.#X9X2X0X0XM.*.f.K.9X[..X[.m.D.n.n.n.M.v. X[.K.J.uX",
"sXpX@XP.0.E.Y.E.P.q.q.0.9.I.8X0X7X[.9.V 5.0.9.N 9.9.9.5.B V N N 0.P.E.E.eXsXaXrXI.B N -.Z.X.0.w.+.D.w.w.9.9.N +.w.P.}.aX",
"sX@X..y g ..g W O.....b y g Q.rX[.n 4 b b c s 3 4 4 4 g b c b b b l r O.W.tXtX~.g l b b l 4 l u # @ 4 4 3 5 5 4 3 8 n ~.",
"qX-.n p p g u p g g g g 8 y  .iX-.g 3 8 u 8 4 3 3 b 8 7 7 7 7 c v g g g ..oXOX..y 4 7 r 4 4 8 4 3 4 y 3 5 5 4 4 y 7 e n ",
"qXo.y 4 7 y v v z p r y g k &.jX-.y 4 t u 9 9 t v r p 7 3 4 4 8 7 7 7 g ~ oX Xv r 8 t 4 # 4 4 4 4 4 4 4 4 3 4 4 4 4 4 v ",
"qX! u 8 8 t r g x v l k z x %.cXc.x p 5 5 3 3 7 c p z u u u 8 9 9 8 8 u x Z.m.g 9 t 8 3 # 7 8 8 8 8 9 8 8 8 8 8 8 8 9 l ",
"qX@.y 8 7 7 @ y v l z k z x =.cX).~ g . + @ $ 6 g p g g g g 8 8 8 4 4 8 k Z.Z.k r 7 3 # @ 7 7 7 8 4 8 8 8 8 8 4 8 8 8 K ",
"rXH.S       & : $ $ $ $ $ F 0XsXuX| $ = , , , , $   o o . $             l.9X9XV.;     o :                           = G."
};
