/* XPM */
static char *result[] = {
/* columns rows colors chars-per-pixel */
"102 60 256 2 ",
"   c #04030B",
".  c #0A050C",
"X  c #060408",
"o  c #15090D",
"O  c #050313",
"+  c #0B0513",
"@  c #0D0A14",
"#  c #06041A",
"$  c #0B051B",
"%  c #0D091C",
"&  c #130B13",
"*  c #12061C",
"=  c #130B1C",
"-  c #190D1C",
";  c #160914",
":  c #1C131C",
">  c #191317",
",  c #26171B",
"<  c #2E1619",
"1  c #33241C",
"2  c #0C0523",
"3  c #0D0727",
"4  c #120623",
"5  c #140B23",
"6  c #1B0D24",
"7  c #12062B",
"8  c #140B2B",
"9  c #1B0C2B",
"0  c #1A0626",
"q  c #1C1323",
"w  c #1D132B",
"e  c #181525",
"r  c #150A33",
"t  c #1B0B33",
"y  c #1D0C3B",
"u  c #150837",
"i  c #1C1536",
"p  c #0E0833",
"a  c #220D27",
"s  c #231524",
"d  c #241B23",
"f  c #2B1C24",
"g  c #22142B",
"h  c #241B2B",
"j  c #2B1C2C",
"k  c #2B1527",
"l  c #321C29",
"z  c #240D38",
"x  c #231334",
"c  c #241A33",
"v  c #2B1C33",
"b  c #27163A",
"n  c #331A38",
"m  c #2A2328",
"M  c #362729",
"N  c #3B332A",
"B  c #2A2435",
"V  c #332333",
"C  c #362A37",
"Z  c #3A3338",
"A  c #2F3136",
"S  c #1D2232",
"D  c #432A2A",
"F  c #45352B",
"G  c #563A2B",
"H  c #452B37",
"J  c #493737",
"K  c #573738",
"L  c #50211C",
"P  c #564537",
"I  c #524836",
"U  c #664936",
"Y  c #6D4B30",
"T  c #1D0B45",
"R  c #1D1347",
"E  c #230C43",
"W  c #250E4B",
"Q  c #24124C",
"!  c #281647",
"~  c #2C1354",
"^  c #2B1559",
"/  c #33165A",
"(  c #341A5B",
")  c #371957",
"_  c #30164D",
"`  c #372646",
"'  c #383645",
"]  c #382358",
"[  c #2C2B49",
"{  c #371C64",
"}  c #2E1763",
"|  c #3C2169",
" . c #3D306B",
".. c #1D1862",
"X. c #421C5B",
"o. c #452C46",
"O. c #463747",
"+. c #472759",
"@. c #4D3854",
"#. c #472668",
"$. c #56296B",
"%. c #4A2776",
"&. c #562978",
"*. c #553571",
"=. c #672A76",
"-. c #762A7B",
";. c #67357B",
":. c #733279",
">. c #492564",
",. c #3C424F",
"<. c #354F6E",
"1. c #574648",
"2. c #545358",
"3. c #4C4953",
"4. c #6B534D",
"5. c #786550",
"6. c #4E566C",
"7. c #6C5371",
"8. c #5A6473",
"9. c #686C74",
"0. c #74777B",
"q. c #6A6A72",
"w. c #862F7D",
"e. c #8E6D55",
"r. c #956363",
"t. c #815833",
"y. c #B28C6B",
"u. c #A89665",
"i. c #C69478",
"p. c #593789",
"a. c #513288",
"s. c #682C84",
"d. c #762D85",
"f. c #673987",
"g. c #783687",
"h. c #6B3D96",
"j. c #326395",
"k. c #584498",
"l. c #4F4199",
"z. c #674798",
"x. c #774897",
"c. c #71488D",
"v. c #56718F",
"b. c #777B84",
"n. c #677384",
"m. c #5B4BA3",
"M. c #6753AA",
"N. c #7856A8",
"B. c #6B56AD",
"V. c #7A64B8",
"C. c #6F6BB2",
"Z. c #4C77A5",
"A. c #2D3C98",
"S. c #883486",
"D. c #973788",
"F. c #8F3593",
"G. c #A43D8B",
"H. c #A63C99",
"J. c #864A99",
"K. c #924B96",
"L. c #A9438C",
"P. c #B6478C",
"I. c #AA4597",
"U. c #B64795",
"Y. c #B3579A",
"T. c #8C56A8",
"R. c #A856AB",
"E. c #856AB8",
"W. c #8B72BD",
"Q. c #9777BB",
"!. c #9468AE",
"~. c #A678B7",
"^. c #B26FAD",
"/. c #9C6D97",
"(. c #C85796",
"). c #D85A94",
"_. c #C54E8F",
"`. c #D6659B",
"'. c #E76899",
"]. c #F6789C",
"[. c #EE719C",
"{. c #CC56A2",
"}. c #D173A7",
"|. c #EC79A3",
" X c #E15D96",
".X c #A65CC4",
"XX c #977BC3",
"oX c #8D74C1",
"OX c #B16CC6",
"+X c #9C57C1",
"@X c #D573D6",
"#X c #E57CDD",
"$X c #E97DE2",
"%X c #7D838A",
"&X c #6A8AAA",
"*X c #4F85BC",
"=X c #5491CC",
"-X c #74A7D6",
";X c #3E82C1",
":X c #8E9296",
">X c #94979B",
",X c #878A91",
"<X c #939AA6",
"1X c #B284BB",
"2X c #97A4B1",
"3X c #A4A8AB",
"4X c #B3B6B8",
"5X c #ABAFB5",
"6X c #ADA196",
"7X c #FB869E",
"8X c #D188B7",
"9X c #F889A4",
"0X c #FB97A8",
"qX c #EC91B4",
"wX c #FDA7B6",
"eX c #FCB5BB",
"rX c #FEA4AC",
"tX c #D1B688",
"yX c #9D81C6",
"uX c #A886C8",
"iX c #B78BC8",
"pX c #B98FD0",
"aX c #ADBAC8",
"sX c #92B3D0",
"dX c #D798C9",
"fX c #C799D6",
"gX c #D49ED6",
"hX c #C790C8",
"jX c #E497CC",
"kX c #D9A3DB",
"lX c #E9A4CB",
"zX c #FBB7C8",
"xX c #E6A9D8",
"cX c #F6B8D8",
"vX c #F4ACCB",
"bX c #E6ABE1",
"nX c #EDB2E4",
"mX c #F4BAE4",
"MX c #EB8BE1",
"NX c #BDC2C7",
"BX c #B1D5F6",
"VX c #9CCBF4",
"CX c #CCD0D2",
"ZX c #FEC8C9",
"AX c #FCC8D9",
"SX c #FED6DA",
"DX c #FED3CE",
"FX c #CDDCEB",
"GX c #FCC7E4",
"HX c #FEDCE2",
"JX c #FED3E4",
"KX c #D2E6F9",
"LX c #E6E9EA",
"PX c #FFE1E5",
"IX c #F9FAF9",
"UX c #EEF1F1",
/* pixels */
"p.a.l.l.k.l.m.m.m.l.m.m.m.m.m.M.m.M.M.M.M.C.B.B.B.V.V.B.V.V.V.V.V.V.V.W.V.V.oXoXoXoXW.oXoXyXoXyXyXoXyXyXuXuXuXuXuXuXuXpXuXpXpXpXpXfXfXfXfXfXfXfXfXfXkXkXfXkXkXkXkXkXkXbXbXbXkXbXbXbXbXbXnXnXnXnXnXnXmXmXmXmX",
"l.l.l.l.k.k.k.m.m.m.m.m.m.M.m.M.M.M.M.M.M.M.C.B.V.B.B.V.V.V.V.V.V.E.E.E.oXoXoXoXoXoXyXoXoXyXyXoXyXyXyXyXuXuXuXuXuXpXpXuXpXpXpXpXpXfXpXfXfXfXfXfXkXfXkXfXkXkXkXkXkXbXbXkXbXbXbXnXnXnXnXmXnXmXmXnXmXmXmXmXmXGX",
"k.p.k.k.k.k.k.k.k.k.M.m.z.M.M.M.M.M.M.M.M.B.C.N.B.V.V.V.V.N.E.V.E.V.E.E.V.W.oXoXW.Q.W.yXyXoXyX1XyXyXuXuXuXuXuXiXuXpXpXpXpXpXpXpXfXpXfXfXfXfXfXfXfXkXkXkXkXkXxXkXkXbXbXbXbXbXnXnXnXnXmXmXmXmXmXmXmXGXmXGXGXGX",
"p.p.k.k.p.k.z.z.k.z.z.z.z.z.M.z.N.z.N.N.B.B.N.N.N.B.V.V.E.N.E.E.oXE.W.W.oXoXW.W.W.W.1XQ.Q.1XyXyXuXuXuXuXuXuXiXiXpXpXpXpXpXpXfXfXpXfXfXfXfXgXkXkXkXkXkXkXxXkXbXbXbXbXbXnXnXnXnXnXmXmXmXmXmXGXGXGXGXGXGXGXGXGX",
"*.k.f.k.c.p.p.z.z.z.z.z.z.z.M.x.N.N.x.N.N.N.N.N.T.V.E.T.E.T.!.!.E.!.!.Q.W.Q.Q.!.Q.Q.1XyX~.1X1X1XuX1XiXiX1XiXiXiXhXpXpXhXfXhXfXfXgXfXgXgXgXgXgXxXkXbXxXxXxXxXxXxXxXnXcXnXGXnXGXnXmXGXGXGXGXGXGXJXGXJXJXJXJXJX",
"p.;.p.p.p.c.c.f.c.c.z.x.x.x.x.x.x.x.N.x.x.N.T.T.T.T.T.T.T.!.T.!.!.!.!.!.Q.~.Q.~.~.~.~.~.~.~.1X1X1XiXiX1X1XhXhXhXhXhXhXhXhXgXdXdXdXgXdXlXjXjXxXjXkXbXxXxXxXcXnXcXAXmXcXmXGXGXAXGXGXGXAXJXJXJXJXHXJXJXJXJXPXJX",
";.p.f.f.;.c.f.c.f.f.c.g.c.c.x.x.J.J.x.J.J.J.J.T.T.T.T.T.T.T./.!.!.!.!.~.!.~.^.~.~.~.~.1X~.1X1X^.1X1X8XiX8X1XhXhXhX8XdXdXhXdXdXgXdXdXjXjXxXxXlXvXxXxXcXxXcXcXcXcXcXAXnXAXAXGXGXAXGXSXJXJXJXJXSXHXPXJXPXPXPXPX",
"*.;.;.;.f.;.f.f.c.f.c.g.g.g.J.x.c.J.J.J.K.K.K.J.J.K.K./.T./.R.T./.R.R.^.Y./.^.^.^.^.}.^.~.}.1X1X}.1X1X8X8XhX}.hX8XhX8X8XdXqXdXdXlXdXlXlXlXlXjXvXvXvXvXcXcXcXzXcXcXcXAXAXAXGXAXSXSXHXSXSXHXSXPXSXPXPXPXPXPXPX",
"*.=.=.=.;.;.:.:.:.g.g.g.c.S.g.J.J.S.J.J.K.w.K.D.K.K.I.K.K.I.K.Y.Y.Y.Y.R.^.Y.^.^.^.}.^.}.^.}.8X}.}.}.hX}.8X8X8X8XqX8XqXjXqXjXqXjXjXqXlXlXlXwXvXlXvXvXvXvXzXcXzXAXAXAXAXAXSXAXSXSXJXJXHXSXSXHXHXHXHXPXPXPXPXPX",
"=.=.=.=.=.:.=.=.:.:.:.:.:.:.:.w.S.S.w.S.w.K.K.L.L.K.L.L.Y.L.Y.P.U.Y.Y.Y.Y.(.(.(.(.Y.`.(.`.}.`.}.}.}.|.|.|.|.9XqXqXqXqXqXqXqXqXqXwXjXwXlXwXvXvXvXzXvXzXzXzXzXzXzXZXAXZXAXAXAXSXAXSXSXSXHXPXPXHXPXPXHXPXPXPXHX",
"$.$.=.$.=.=.=.=.:.-.=.-.-.:.:.w.w.w.w.w.w.D.D.D.w.L.L.G.L.L.G.G.L.P.P.P.Y.P._._.(.P.(.`.`.`.`.`.}.|.}.|.|.|.].9X9X9X9XqX0XqX0X0X0XwX0XwX0XwXwXvXwXwXeXeXzXzXeXZXZXZXZXAXAXDXDXDXSXSXSXSXSXSXSXPXSXHXHXPXHXHX",
"$.=.=.$.=.$.=.=.=.=.-.=.-.-.-.:.-.-.w.w.w.w.w.w.S.w.w.D.D.w.G.G.L.L.L.P.P.P.P._._.r.(.(.).). X X'.'.'.[.[.|.].].9X|.9X9X9X9X9X0X9X0X0X0X0X0X0X0X0XrXrXwXwXeXeXeXeXzXZXzXZXZXDXDXDXDXSXSXSXDXSXSXSXSXHXSXHXSX",
">.$.$.>.#.$.+.` ` #.=.$.=.=.=.=.:.-.=.-.-.-.-.-.w.w.-.S.S.S.w.D.w.G.G.G.G.G.G._.P.w._._._._._.).(.).).). X X X'.[.].].].].].9X9X7X9X7X7X7X7X7X0X0X0X0XrXrXrXrXeXeXeXeXeXZXeXZXZXZXZXZXZXDXDXDXDXDXDXDXDXDXDX",
">.>.+.$.$.*.B Z.v.n #.*.$.$.@.$.#.%.$.&.$.$.*.%.$.$.$.=.=.=.-.-.:.w.w.S.w.w.w.G.w.w.G.P._.w.P.P._._._.).). X X X X X). X'.'.'.[.[.].].7X7X7X7X7X9X0X0X0X0X0XrXrX0X0X9X8X9X8X}.}.8X8XqXeXeXeXeXeXZXZXZXZXAXAX",
"#.#.#.$.#.#.` -XsX<.[ A <.6.2.B 6.8.,.e 6.8.8.[ 6.<.6._ =.-.s.s.-.-.-.s.w.-.-.d.w.=.w.S.w.w.D.D.D.G.G.G.G.P.G._.P.U._.U.P.P.G._.P._.(.P.).). X'.'.[.].].].7X].9X7X7X7X7X7X7X9X9X9X}.}.'.}.}.`.Y.Y.Y.Y.Y.^.}.",
"#.#.#.#.#.#.! sXVXBX-X<XFXFXsX%XKXFXBXv.FXBXBXv.BXVXVX6.&.=.-.s.s.s.s.d.d.d.d.d.S.=.g.:.w.d.d.d.w.S.S.w.S.D.D.D.S.D.D.G.G.H.G.G.L.D.L.L.D.L.G.L.G.G.P.P.U.U._.(.(.`.`.[.'.|.|.7X7X9X0X0X0XrX0X0XrX0X9X}.{.{.",
"{ { { { { { ! sX2XaXsX2XaXaXaX,XKX<Xn.6.KXaXKXv.BX&XBX6. .%.%.&.a.a.a.s.s.a.s.p.s.#.s.s.s.s.s.s.d.d.d.d.d.d.d.d.d.d.S.d.S.d.F.F.F.D.D.D.F.D.G.H.H.H.H.D.H.H.H.H.I.U.I.U.I.H.I.I.H.R.U.U.{.{.`.{.`.{.{.{.'.{.",
"} ] #.] ( ] R NX2XaXaX5XaXaXCX>XUXFXFX8.KXFXKXv.BX&XBX6.} | { | { | | | | %.| | | { %.%.&.%.&.&.%.%.a.%.&.s.a.&.&.s.s.s.s.s.s.s.s.s.s.d.d.d.d.d.d.S.S.S.S.F.S.F.F.F.F.F.H.H.H.H.H.H.H.H.I.H.H.I.I.I.H.R.{.{.",
"/ ~ @.*.( ^ i NXFXLXNX4XaX4XCX>XUXCXUXb.UX<XKX9.KXVXBXv.%.%.a. .%.| } } } } | { { } { } } } { } / } / } { { { | / | | | { %.} X.#.%.#.%.&.%.%.%.&.&.&.a.&.s.p.&.s.s.s.f.s.s.g.d.F.d.d.g.g.F.F.F.F.F.F.F.F.H.",
") / ) ) ~ ..i <X4X4X9.%X,X,X,Xq.4X4X:Xq.IXb.5X8.KXNX&X[  .a.a.a.a.a.a.a.a.a.| %.{ { } } ] | ^ } } ~ } ~ ^ / } ( ~ / } X.X.{ X.{ X.{ X.| X.%.$.>.| %.#.X.#.#.#.$.%.%.;.&.;.&.$.$.a.s.;.s.s.p.s.;.s.f.d.d.h.d.",
"^ Q _ _ ! T R i i i B i i i i S i : 3XUXIX6.<.3.KXFXBX6.W ^ ^ ( } | a.a.a.a.| { a.a.%.&.[ ] %.*.$.#.+.$.+.] ( ^ ~ } / ) / / } } / / ) / / / / ( ) / ( ( { X.{ #.#.#.| #.$.7.:.:.=.$.$.*.$.=.$.$.&.$.$.=.s.=.",
"T T c = A A b.3.q.b.b.,.3.b.%X1.,.0.CXUX3.' 8.%X6.' ,.i R T W W W W W W } ^ ^ W ~ { { | T W z.J.p.h.E #.a.a.%.*.] #.^ ~ { #.X./ ^ ( ( / ~ / ~ ~ ~ ) ( / ~ / / / / / ) ) ) ) +.+.) #.#.+.+.#.#.$.w.w.=.$.a.%.",
"^ Q ' q LXLXIXFX>XCXUXCXNXUXUXCX5XIXLXLX:XUXIXIXb.z Q Q W T T z E E W T Q R T u E W / { Q ! ( +.E a.E W p.z.p.] *.a.Q ~ ( *.7.h.&.#.( { X.{ X.} ~ ^ ~ ~ ~ / / ) ) / / ) ) ~ ) ) ) / _ ) ) ) X.) +.+.X.X.$.X.",
"T O.H e 3Xq.IXb.5XFXUXCXNXLXLXCX5XLX5XLX0.3XNXLXC t t u t T t t z t T T T R i b y b Q ~ ) _ ` v z z z z ! +.) _ Q ( ~ ~ ) [ _ g.f.f.$.&.h.f.J.f.s.%.#.{ / ^ ( ( ) / ) ) ) +.+./ Q +.) ) ) ) ) ] X.) X.~ X.~ ",
"u 1.r.M IX%XIX9.3.3.CXCX:X4XLXCX5XLX5XLX>XLXNXLXN H l j j g ! y b v x b z z x x 9 b o.o.+.@.` 9 j j x v y b Q ..! ~ Q ~ ` 4.2.7.) ~ ~ X.X.g.OXR..XT.J.+X+Xh.p.a.p.&.{ | %. .} / ^ ~ ~ ~ ~ ~ ) ] X._ _ _ +.) ",
"r @.y.A IXCXIX9.P B NXCX5XFXLXCX4XLX5XUX>XIXUXLXN V z 8 3 7 8 7 p 0 7 9 v 7 8 x r b o.O.K o.n 3 8 8 8 8 r b ..3.3.2._ W ] ` o.+.) / ~ _ W &.T.J.R.X.} R.@X.X+X.XOX.X+XOX.XR.T.T.x.h.s.#.~ #.] | _ +.+.X./ ~ ",
"z K 6XK <X4X5XJ 4.m >X>X9.4X4X9.b.3X%X3X2.4XNX:Xd c 4 4 8 r t u 0 a 8 i c r ` x a x l n n z n g h 8 7 t r y r ! @.3.Q ^ @.7.6X7.@.@.W ! W z E z g.X.} h.+X&.f.OX@X@X@X@X#X#X$X#X@X#X#Xg.! ! ! _ / &.R.J.f.s.",
"0 4.y.r.e.U U e.I 3.2.2.> . @ 1.A A 3.' 3.d 1.2.3.g i R Q i y R x g l 9 r y z 8 g V k z n _ n 4 3 7 8 8 7 p p T ..R y i 2.2.6XO.3.@.! ! E ! Q y _ ~ } %.| W s.T.h.s.z.@X#X#X#X#X$X$X$X7.! ~ R r E &.#X@X@X@X",
"0 1.i.i.y.y.r.y.3.UXUXIXu.FXIXIXLX3XUX5XUX:XIXIXIX2.9 7 7 7 2 2 8 t j a w C B 8 5 8 8 g b n y 3 7 p i x _ 2 $ 3 p 2 7 x z g g 9 8 x ` E ! y T E W ~ } } W E ! Q W W 7.7.;.J.OX#X@X$X$Xw.1.O.` j W :.MX@XK.@X",
"4 H y.i.i.y.e.r.1.IXq.IXb.n.0.LX3X:XUX5XUX:XIX4X>XB x V H g % 5 * V k d J J O.7 5 c C 1.n C v p y i r 5 B 2 $ 3 3 2 2 b v c m V j v 9 ` y u u r Q ~ W ~ E E ! E z ) n.7.6.c.;.f.T.J.h.7.5.5.1.P o.;.@XQ E +.",
"0 k r.e.y.e.U K I IX3.IX,XFX3XCX:X%XUX5XUX:XIXLXIX2.r 7 3 2 = M J j M Z B Z Z 8 a D 1.Y K Y J 2 3 8 e c n 5 % 8 e # % j g g g w 9 x c h b c h 7 y W E W T y u z E E _ ~ ` ! Q ] ) _ _ q.u.r.5.P 4.+.c.E E _ ",
"k a r.r.e.U K o.' UX5XIX0.CXCX4X2.9.:X3XUX:XIX5XIX2.8 5 : = # q h a h q V B ` D a l K M c C 1.e # i 8 w v e e e h : q B x x w c h x w m m h m v z E E E E z z y y z E Q Q Q E b _ o.o.3.6.,.2.I @.o._ ! y ! ",
"H D 4.4.U o.H H m 5XCX4X%X:XNX4X5XLX4X>X>Xq.NXCX4XA 5 3 e A = e 6 5 8 $ c C c V P f s V j V x B i i h c v - q 2 w d q q i x 8 w 9 b w 3 S B g w y y E E E T T b r 7 7 y W ( y b n E _ 5.5.4.I 4.e.` T E y E ",
"a < r.Y Y K H H C A Z CX2.>X2.3.3XFX>X5XA B e S i e % [ &X-XS e 5 w # 2 t 9 8 s > - g s = w i [ [ r 5 k ' m - # q Z m 8 x x 9 9 i v c w e 2 5 g v ) ` Q Q E T 8 4 2 8 u T E r w x y z 2.5.7.4.P 5.b u T z z ",
"a < e.e.4.o.>X2.CX>X5X:X9.CX:X,X3Xq.:X3X0.4X3X6.n.3.e 8.&Xv.6.d * . + 4 6 , s s I I S % 3 2 S 6. .2 3 j H m l d m m q c z g w O.w ! i S B h e B ' R T u u u E 9 * 4 j t y z 8 v o.z n 1.3.3.C 4.2.z u z t z ",
"O.l 4.r.CX,XCX2.3.0.3X2.9.NX0.0.6XNXCX>X8.%X2X6.aXv.% ,.Z.=X;Xe % . . = s < f j N F I A S 3 p S e w A B 7.d l C J Z Z C y z H e.C R p B Z m A m c B i 7 4 4 t 4 * * x Q ! b 7 c C z b 4.5.1.C O.@.z V V y z ",
",X4X,X<X%X,.4X,.e b.3Xq.b.CX9.q.5X8.I NX8.b.<X6.2X6.<.-X-X=X;XS O   & < , , l D Y 1 1 I N N m m S e N Z 3.d h j h B c x y b e.r.@...u S w Z e B v m M m d o.r * $ 5 r b t b i i V z  .5.5.U C O.o.z n C V z ",
"n.8.<X<X%X2.b.3.q.<X%XCX2.<Xq.8.0.2.,.3.<Xb.2X6.&XZ.-XZ.=X=XZ.p & . & > - < M G I 1 @ > d m d d e > d 1.O.s s V B w B t R v r.r.C.A.R p e 3 3 e C [ C N m B x 0 - w 0 c g n w v v z h O.4.5.5.H 1.z t y r E ",
"n.aX3.<X>X9.3X3.' B : d * a i x Z O.m J A B ' v.&X=XZ.*Xj.Z.<.> . . . @ - < k G Y F I N m @ : d @ m N ,.o.d f 9 v C b n _ Y r.o.^ ..B r 3 m 5 w C [ w M M V v 6 * s 5 C B B 8 v v a M 5.2.1.D C ` z j t w n ",
"&X6.9.:X9.' B 5 2 = 5 s k l 9 9 x w e B m i i B A ,.[ *X=X;Xj.i > . > > ; , M U I I N 1 m N N N I Z e Z @.d j g B O.l n n r.y.n Q _ y i 3 m 5 w C B 2 d , m 0 0 r 9 5 c x ! 8 v x 8 l 4.e.4.4.P O.t a a t V ",
"<.v.A I C m f d & : % . @ # r w 9 d C V C v 1.F M q , <.j.<.j.: O X X @ o < l U D F J : > @ e A m > = ' q.d = w q g b V ] r.r.! Q E b 8 e # 3 e h h h - # # # 2 2 # 2 8 9 B 4 B v g C e.e.e.F H H n a 9 a r ",
"5 e e # + $ , ; . O O O O 2 r C V l J V 6 w w w V q > , : e : > >   @ . ; < D Y U G N I N d A > 1.4.m B 7.q : s h h J C @.N.n.i E R C V A N M 6 /.O.9 $ 2 2 2 # 2 2 7 8 w c 4 C v x Z 4.5.5.V ' o.l k g 8 7 ",
"S 3 S e + % - @ . O O O . 2 7 8 w w 8 5 J g 8 6 w w ; , ; > o , : X X & ; < a G U Y 1 > > @ > m m @ d 3.2Xn + $ h k B N 6./.c.v E b B i e d m m m : * q 5 q 5 6 B u r 7 7 u t V g 9 J 5.4.@.l 1.` j h k a 8 ",
"% 5 % @ + + @ + O     O   # 7 g j g 5 e s e 8 h C Z f f > , ; ; > o o o - < - G U D F m N d A I 4.5.U ! 3.r 2 5 B M V V c.Q./.z z y [ [ % + M : 5 % * s d M J M s p p u y y x v 6 g O.5.e.U H v ` 6 a n a 9 ",
"  O O     + +     @ > . O # 5 H K G C j g 9 e e s 9 * 2 4 * : , > o o o & 1 < D U 1 , m > N I m N m @ e t 9 t t 9 m l V ,XyX<Xz z u ] i m e % , * - * = % 5 e - 8 c h w 8 7 9 a 6 k J 5.5.C 8 4 t g 5 7 0 8 ",
"O   O e # O O #     . + # = $ x F F 5 m k 9 V v g 6 5 k k f , > > . X o > 1 , D Y I > . @ > N A d > # 3 8 8 9 8 7 m M O.>X/.7.0 y c ' [ B N B s - : * - e q J m h w 5 8 r 9 9 8 z l K 5.A 5 $ 0 9 k - 6 0 4 ",
"3 O # 7 # % #   O 2 2 5 $ $ $ 9 w m j 6 d f d C P U M M F F l < > o X . o < , l D 1 I < @ @ O # # @ # 3 w s w 2 4 k M M 6 * 5 0 r 4 [ ! q > - * * * + % m I D w 5 2 5 7 g Z 2 8 $ 6 j Z $ % * * 6 $ # 4 0 7 ",
"t O O 7 4 2 7 $ 3 2 2 % O # # 8 j V d 6 K J l F F F : : , , - ; o o X o < < a D Y Y F I F N I : d > O 3 8 i 9 5 4 2 e d @ # = 4 7 7 e 5 I N , J m + + = % - = * 2 $ # 3 8 8 4 $ * s s - $ q s m = % O 9 4 6 ",
": # O 2 2 2 2 8 8 4 # O     O 8 l F s 6 6 w M k k s - - ; ; > < < o o . o , L 1 Y Y N 1 I I N 1 N d @ e B C ` A q # 7 2 2 # O % = 6 m - P M d e 4 # 3 2 = 6 e q $ $ 2 2 7 4 h , m q u 5 f k s $ 7 7 O 2 7 2 ",
"h # 2 2 % 5 4 D a s O # + O O 4 6 5 5 g - = a - - 5 M , N P F - h + . X o > < 1 Y G G N 1 N m m > m   > h B h h 5 # # % $ p q 3 4 , a * F s 3 3 7 u i ! 2 $ % # $ # 4 $ 5 m f m M : 8 : , = - * 2 r # * k 9 ",
"k m a 5 k k 4 0 6 V 6 4 g 8 # $ 5 5 5 5 4 5 q q 5 6 e & % # % # O # + + o o 1 U G G I X 1 N m > > > O 2 7 4 5 s m e - ; h y 5 r r x f m j 5 8 + i R y y 5 # # # $ $ 2 4 6 s j q h 5 e = = - * , e E 9 5 4 5 ",
"- = 6 4 * 6 4 6 s w 4 0 $ 2 2 * $ 5 e e w - f f d h h # #   O     o o o o < < D Y 1 d > X X @ X X   e 3 7 2 = = O O O = w 5 9 9 - a - + = 7 2 O p 3 r y i * = s M $ # # # 2 # O p p 2 i m M ; 4 R u # s l 6 ",
"* 4 s * q M k s M d f = 6 M 5 2 % * 5 8 = - 5 e = % = O O + > < : > ; . > , < < N G 1 o . X . O O @ : e w j 5 * = # O 4 u 4 C 6 6 9 * O % @   = t % $ b B f J : 3 e % = s h 2 2 2 # # 5 = w $ # O # # * q s ",
"6 J M a h s 6 f M k M s 6 5 % # @ 6 - d = s - % q 6 =   . . . X . . . . o < o > Y 1 1 X . X O @ @ @ # 5 q = $ % #   O O + * = * + * - . 5 = . . i q % J j q & # + e = * - * 2 2 + % O # + 6 +   O O $ = M f ",
"= - k D 1 D a , D > m , = + # 2 % * % 5 % 2 = % % % %   X   . X X . o , o L Y , o G Y o > .   + @ # $ % w : - q * .   X * o + o . + & > q = o o = 8 5 s t 5 # 6 + # # $ $ + d F e 2 # # # + .   O + $ - - $ ",
", J 1 < < f G f K M f q s 5 $ # % + % $ % = - % % % %   X   o X . :   . < L L t.1 1 N o & o @ 2 2 # % % = d m > + @ &   o * + + o + & O - = X X = w + 4 t 8 : & 6 $ $ $ $ % . # 3 7 2 % 3 2 O   & , , , P s ",
"+ , d D V k = * 5 * - * $ C + + O @ = = # = = % - % . X X X . X X & X X o L < L t.Y L , o ; > # # $ = h e % = : + & > , o + * + ; + ; < 5 - X X       # 9 5 & > > - m + , # # O # 2 3 7 7 2 2 # 5 B 9 = - * ",
"+ 6 6 4 % ; % % ; * - * + + % + @ q = @ % $ = s q 1 < >   X X . o X X X , o o o 1 L L F 1 o # + + 2 # $ + = : = & w x 5 0 4 $ o ; ; > , = * X X X # 7 # 3 2 + + O + . + + + O O O O * 6 : # 2 3 p u E y c d ",
"C C B C Z V C Z C ' 4.1.1.2.Z Z A C Z J M M < , m t.u.u.& X o X X X X X X X X X o L D - J o + $ $ * = > m M s + $ 4 8 4 0 u 7 * + o o d - g . X X   O       X @ @ s + # d > d + # O + 5 $ $ O O 2 e 9 7 2 4 ",
"Z d h j N 1.P Z Z N B C h e C C h q h Z f , , f 1 e.u.e., X X X X @ > X X . X X X . . + a > # * - M = = ; , , 2 7 2 0 4 4 u u $ + + . & = #   X   X X X X O O # # + . + > : > : s # % $ = + . % 5 2 4 4 $ , "
};
