/* XPM */
static char *result[] = {
/* columns rows colors chars-per-pixel */
"60 60 180 2 ",
"   c black",
".  c #010101",
"X  c #020202",
"o  c #232323",
"O  c #535353",
"+  c gray17",
"@  c gray1",
"#  c #676767",
"$  c white",
"%  c gray85",
"&  c #B2B2B2",
"*  c #515151",
"=  c #9B9B9B",
"-  c gray62",
";  c #B4B4B4",
":  c DimGray",
">  c #9A9A9A",
",  c #B6B6B6",
"<  c #767676",
"1  c gray46",
"2  c #626262",
"3  c #B7B7B7",
"4  c #868686",
"5  c #CECECE",
"6  c #EFEFEF",
"7  c #959595",
"8  c #E9E9E9",
"9  c #9F9F9F",
"0  c gray97",
"q  c gray56",
"w  c gray87",
"e  c gainsboro",
"r  c gray72",
"t  c #FEFEFE",
"y  c gray52",
"u  c gray75",
"i  c #D7D7D7",
"p  c #E1E1E1",
"a  c #F4F4F4",
"s  c gray57",
"d  c #808080",
"f  c #DFDFDF",
"g  c #FDFDFD",
"h  c gray74",
"j  c #C1C1C1",
"k  c gray84",
"l  c #D8D8D8",
"z  c #D2D2D2",
"x  c gray7",
"c  c #272727",
"v  c #161616",
"b  c gray19",
"n  c #2D2D2D",
"m  c gray12",
"M  c #191919",
"N  c #252525",
"B  c gray16",
"V  c gray10",
"C  c #1D1D1D",
"Z  c #313131",
"A  c #797979",
"S  c gray82",
"D  c gray69",
"F  c #909090",
"G  c #040404",
"H  c #3E3E3E",
"J  c gray70",
"K  c gray78",
"L  c #565656",
"P  c #A4A4A4",
"I  c #C0C0C0",
"U  c gray44",
"Y  c gray76",
"T  c #BBBBBB",
"R  c #7C7C7C",
"E  c #B1B1B1",
"W  c gray59",
"Q  c #AEAEAE",
"!  c #A2A2A2",
"~  c gray31",
"^  c #2A2A2A",
"/  c #555555",
"(  c gray5",
")  c #A7A7A7",
"_  c #D0D0D0",
"`  c gray95",
"'  c gray71",
"]  c gray93",
"[  c #818181",
"{  c gray60",
"}  c #101010",
"|  c #3F3F3F",
" . c gray66",
".. c #222222",
"X. c #6A6A6A",
"o. c #AAAAAA",
"O. c #5F5F5F",
"+. c gray47",
"@. c #090909",
"#. c #0C0C0C",
"$. c gray6",
"%. c gray3",
"&. c #323232",
"*. c gray53",
"=. c gray58",
"-. c gray49",
";. c #282828",
":. c #727272",
">. c gray54",
",. c gray34",
"<. c gray50",
"1. c #686868",
"2. c #6D6D6D",
"3. c #8B8B8B",
"4. c #D5D5D5",
"5. c #EEEEEE",
"6. c gray39",
"7. c LightGray",
"8. c gray73",
"9. c #CBCBCB",
"0. c #AFAFAF",
"q. c gray89",
"w. c gray77",
"e. c #E2E2E2",
"r. c #CDCDCD",
"t. c gray61",
"y. c #464646",
"u. c #747474",
"i. c #7E7E7E",
"p. c #9D9D9D",
"a. c gray91",
"s. c gray81",
"d. c gray20",
"f. c gray29",
"g. c #6C6C6C",
"h. c #8D8D8D",
"j. c #777777",
"k. c #3A3A3A",
"l. c #434343",
"z. c #585858",
"x. c gray45",
"c. c gray32",
"v. c #070707",
"b. c gray28",
"n. c gray8",
"m. c #343434",
"M. c #393939",
"N. c #4C4C4C",
"B. c #606060",
"V. c #7B7B7B",
"C. c #484848",
"Z. c #505050",
"A. c gray43",
"S. c gray30",
"D. c #888888",
"F. c #5A5A5A",
"G. c gray55",
"H. c gray42",
"J. c gray37",
"K. c #353535",
"L. c gray33",
"P. c #444444",
"I. c #6F6F6F",
"U. c #5B5B5B",
"Y. c gray63",
"T. c #494949",
"R. c #0B0B0B",
"E. c #838383",
"W. c gray67",
"Q. c gray2",
"!. c #060606",
"~. c #1B1B1B",
"^. c gray38",
"/. c #646464",
"(. c gray24",
"). c #373737",
"_. c gray15",
"`. c #2C2C2C",
"'. c #0E0E0E",
"]. c #4E4E4E",
/* pixels */
"                                                                                                                        ",
"                                                                                                                        ",
"                                                                                                                        ",
"                                                                                                                        ",
"                                                                                                                        ",
"                                                                                                                        ",
"                                                                                                                        ",
"                                                                                                                        ",
"                                                                                                                        ",
"                                                                                                                        ",
"                                                                                                                        ",
"                                                                                                                        ",
"                                                                                                                        ",
"                                                                                                                        ",
"                                                                                                                        ",
"                                                                                                                        ",
"                                                                                                                        ",
"                                                                                                                        ",
"                                                                                                                        ",
"                                                                                                                        ",
"                                                                                                                        ",
". . . . . . . . . . . . . . . . . . . . . . . . . . . . . . . . . . . . . . . . . . . . . . . . . . . . . . . . . . . . ",
". . . . . . . . . . . . . . . . . . . . X o O + X . . . . . . . . . . . . . . . . . . . . . . . . . . . . . . . . . . . ",
". . . . . . . . . . . . . . . . . . . . @ # $ % & * = - ; : > , , < 1 , , , 2 3 , 4 @ X . . . . . . . . . . . . . . . . ",
". . . . . . . . . . . . . . . . . . . . @ # $ 5 6 7 8 9 0 q 0 w e - r 6 6 t y t u i @ X . . . . . . . . . . . . . . . . ",
". . . . . . . . . . . . . . . . . . . . X # $ p a s 8 d 0 q 0 f g h j k k t y $ l z @ X . . . . . . . . . . . . . . . . ",
". . . . . . . . . . . . . . . . . . X X x c v b n m M N b B V B b z % q C Z A S D F G . . . . . . . . . . . . . . . . . ",
". . . . . . . . . . . . . . . . . X H - J K L - P I U Y T I R J E g W Q ! K r ~ ^ N @ . . . . . . . . . . . . . . . . . ",
". . . . . . . . . . . . . . . . . X / w P t ( W ) t = i _ ` ' ] d $ [ f { t r } X . . . . . . . . . . . . . . . . . . . ",
". . . . . . . . . . . . . . . . . X | E &  .G @ ..r X.& J ; 1 o.O.r O.) J r +.@.. . . . . . . . . . . . . . . . . . . . ",
". . . . . . . . . . . . . . . . . . @ #.$.%.. &.*.=.-.;.:.-.>.,.F <.A 1.2.7 3.: X . . . . . . . . . . . . . . . . . . . ",
". . . . . . . . . . . . . . . . . . . . . . . 1.g P 0 | 4.D 5.6.g S 7.8.j t 9.0.X . . . . . . . . . . . . . . . . . . . ",
". . . . . . . . . . . . . . . . . . . . . . X ,.q.w.P 1.e.r.t.y.u.i.u p.E a.s.8.@ X @ d.N X . . . . . . . . . . . . . . ",
". . . . . . . . . . . . . . . . . . X X C M | f.i.g.2 h.j.y i.k.l.i.=.z.1.x.2 c.v.H b.* X.n.. . . . . . . . . . . . . . ",
". . . . . . . . . . . . . X m.~ M.A N.*.B.V.C.: 4 ,.2 { B.Z.4 c.A.S.D.F.c.G.H.Z.R J.K.F.&.6.@.. . . . . . . . . . . . . ",
". . . . . . . . . . . . . X b.L.P.T | 2.U I.g.A.i.O.2 1 H.F.u.U.U ,.+.j.U Y.z.B.F.T.T.C.O 1.R.. . . . . . . . . . . . . ",
". . . . . . . . . . . . . X U.L E.W.C.g.< B.Q.M !.G @ @ @ @ @ @ X X G !.~.n.1 ^.*./.(.).Z # _.. . . . . . . . . . . . . ",
". . . . . . . . . . . . . X `.T.C.Z '.Q.X . . . . . . . . . . . . . . . . . . X G &.T.b.].C.} . . . . . . . . . . . . . ",
". . . . . . . . . . . . . . . . . . . . . . . . . . . . . . . . . . . . . . . . . . . . . . . . . . . . . . . . . . . . ",
". . . . . . . . . . . . . . . . . . . . . . . . . . . . . . . . . . . . . . . . . . . . . . . . . . . . . . . . . . . . ",
"                                                                                                                        ",
"                                                                                                                        ",
"                                                                                                                        ",
"                                                                                                                        ",
"                                                                                                                        ",
"                                                                                                                        ",
"                                                                                                                        ",
"                                                                                                                        ",
"                                                                                                                        ",
"                                                                                                                        ",
"                                                                                                                        ",
"                                                                                                                        ",
"                                                                                                                        ",
"                                                                                                                        ",
"                                                                                                                        ",
"                                                                                                                        ",
"                                                                                                                        ",
"                                                                                                                        ",
"                                                                                                                        ",
"                                                                                                                        "
};
