/* XPM */
static char *dffe84167a774b37a296aface7ea1f2eQDtRGLCEJRPB5iKz[] = {
/* columns rows colors chars-per-pixel */
"32 32 47 1 ",
"  c #020202",
". c #010101",
"X c gray1",
"o c #040404",
"O c gray2",
"+ c #050504",
"@ c #050404",
"# c #060605",
"$ c #060606",
"% c #060505",
"& c #070606",
"* c #090908",
"= c #070706",
"- c #070707",
"; c #080807",
": c gray3",
"> c #080707",
", c #090808",
"< c #0A0A09",
"1 c #0A0908",
"2 c #0B0B0A",
"3 c #0B0A0A",
"4 c #090807",
"5 c #0A0909",
"6 c #0B0A09",
"7 c #0A0A08",
"8 c #090909",
"9 c #0C0B0A",
"0 c #0B0B09",
"q c #060706",
"w c #090A09",
"e c #0C0C0B",
"r c #0C0C0A",
"t c gray4",
"y c #080908",
"u c #0D0C0B",
"i c #0B0B0B",
"p c #0A0B0A",
"a c #090907",
"s c #0B0A08",
"d c #0C0B09",
"f c #080706",
"g c #0D0C0A",
"h c #0A0907",
"j c #0D0C09",
"k c #080806",
"l c #070605",
/* pixels */
" . X    oo XXXXooX  XooXoOoO+O@#",
"OoO$%$O&**$==-;--&$$$$:;>*;:,<1<",
"+O=&$;,;;;;**;:;;;;$$;:*:;;<:232",
"O=;-,4=>;;:;*5;*:;,**1***;;*;2<6",
"#==;1**;;;>,774**<16<5*6*<5;***1",
";-4;*,<;1*;;*;;**<86<8<69*6*71;*",
"O----*1<1*:-;--;:*<2<*<3*20***:;",
"=$=-:*591;;;;$q;*:w5<**<2<<*:*:;",
"O-:;>:*<7<<<--=*;;::***28:*;;;;:",
"=*:*=;8<<er<1*$-->,88*:85<:882*;",
";;:***8**62<**-$;=*1***;**<8<<*=",
"=*:58;<::;80<5;=$=:;*;:;=;*,>;=q",
";-1<*<8,-**8t<;->-:*;*;*:;*-=;==",
";**<<<:;-::;8**:-->;;:*:;;;OO$$:",
"-*<2<<*:---;:<**:-:;-,;-=--OO==;",
":*<00<*;;;;,y*;;;;-*;-==$$O#=:-#",
";-<0u<2***;-;:*=;;;8*-=-;$O;:$$o",
"$-*2222<;-;=*:*--:;**;=-;$$;;$$$",
"=:8263t3:---:*:-;--;*--$---*;*;=",
"-:83<i2<8**::<*;;-88*:*:-*;8<2*;",
"->-8*12<<*:-,8<*::;****;;-;*<<<-",
"$$-:*8<pp8*:>;*8:***-;--;;*:**<;",
"$$-::**<<<8::*<:*<:;--:=-:;;*<<*",
"$$-**<1<;<<*<<:;*8*:*-;--;;***2*",
"#$;,8<8<;<*<*8*,*<8<*;*;;;**;***",
"$=;;77>**0<2*8<**7<8*a;-,-;;*:;<",
"=--**64:1*4**<*<*<6<1**;*7;*****",
"===;<7s64;==;s7*a60<<;:>;***1**4",
"O$-,11dd1f=-;;*0;116d*;;=4;;$$=;",
"OO==;0gd14;#==;*114**;;&==;==;=-",
"OO#f476dh;$##O=;**a;=====#&=#>f=",
"=#===44dj4kk=$#$414h4fl===$=#=;f"
};
