/* XPM */
static char *result[] = {
/* columns rows colors chars-per-pixel */
"16 16 23 1 ",
"  c #E61F19",
". c #E72D17",
"X c #E82F17",
"o c #E72118",
"O c #E62019",
"+ c #E72318",
"@ c #E62219",
"# c #E72418",
"$ c #E72518",
"% c #E72618",
"& c #E72718",
"* c #E72818",
"= c #E72918",
"- c #E72A18",
"; c #E72B18",
": c #E72C18",
"> c #E73017",
", c #E83316",
"< c #E83416",
"1 c #E83616",
"2 c #E83716",
"3 c #E83816",
"4 c None",
/* pixels */
"44444o=:;* 44444",
"444@>333332.O444",
"44$133333333<@44",
"4@13333333333<44",
"4>333333333333-4",
"o333333333333314",
"=33333333333333#",
":33333333333333%",
";33333333333333%",
"*33333333333333+",
" 2333333333333<4",
"4.333333333333&4",
"4O<3333333333X44",
"44@,33333333XO44",
"4444-13333<&4444",
"444444#%%+444444"
};
