/* XPM */
static char *result[] = {
/* columns rows colors chars-per-pixel */
"32 32 6 1 ",
"  c #7C7C7C",
". c #B2B2B2",
"X c #A7A7A7",
"o c white",
"O c gray94",
"+ c #E2E2E2",
/* pixels */
" ..............................X",
".ooooooooooooooooooooooooooooooO",
".ooooooooooooooooooooooooooooooO",
".ooooooooooooooooooooooooooooooO",
".ooooooooooooooooooooooooooooooO",
".ooooooooooooooooooooooooooooooO",
".ooooooooooooooooooooooooooooooO",
".ooooooooooooooooooooooooooooooO",
".ooooooooooooooooooooooooooooooO",
".ooooooooooooooooooooooooooooooO",
".ooooooooooooooooooooooooooooooO",
".ooooooooooooooooooooooooooooooO",
".ooooooooooooooooooooooooooooooO",
".ooooooooooooooooooooooooooooooO",
".ooooooooooooooooooooooooooooooO",
".ooooooooooooooooooooooooooooooO",
".ooooooooooooooooooooooooooooooO",
".ooooooooooooooooooooooooooooooO",
".ooooooooooooooooooooooooooooooO",
".ooooooooooooooooooooooooooooooO",
".ooooooooooooooooooooooooooooooO",
".ooooooooooooooooooooooooooooooO",
".ooooooooooooooooooooooooooooooO",
".ooooooooooooooooooooooooooooooO",
".ooooooooooooooooooooooooooooooO",
".ooooooooooooooooooooooooooooooO",
".ooooooooooooooooooooooooooooooO",
".ooooooooooooooooooooooooooooooO",
".ooooooooooooooooooooooooooooooO",
".ooooooooooooooooooooooooooooooO",
".ooooooooooooooooooooooooooooooO",
"XOOOOOOOOOOOOOOOOOOOOOOOOOOOOOO+"
};
