/* XPM */
static char *result[] = {
/* columns rows colors chars-per-pixel */
"60 60 14 1 ",
"  c #F90303",
". c #FA0302",
"X c #FA0303",
"o c #FD0100",
"O c #FE0000",
"+ c #F80403",
"@ c #FA0403",
"# c #F90404",
"$ c #F80504",
"% c #F90504",
"& c #F40508",
"* c #F40808",
"= c #F40908",
"- c None",
/* pixels */
"------------------------------------------------------------",
"------------------------------------------------------------",
"------------------------------------------------------------",
"------------------------------------------------------------",
"------------------------------------------------------------",
"------------------------------------------------------------",
"------&XXXX@@@X+*-------------------------------------------",
"------ OOOOOOOOO#-------------------------------------------",
"------XOOOOOOOOO%-------------------------------------------",
"------.OOOOOOOOO%-------------------------------------------",
"------.OOOOOOOOO%-------------------------------------------",
"------.OOOOOOOOO%-------------------------------------------",
"------XOOOOOOOOO%-------------------------------------------",
"------XOOOOOOOOO%-------------------------------------------",
"------XOOOOOOOOO%-------------------------------------------",
"------+OOOOOOOOo$-------------------------------------------",
"------*%%%%%%%%$=-------------------------------------------",
"------------------------------------------------------------",
"------------------------------------------------------------",
"------------------------------------------------------------",
"------------------------------------------------------------",
"------------------------------------------------------------",
"------------------------------------------------------------",
"------------------------------------------------------------",
"------------------------------------------------------------",
"------------------------------------------------------------",
"------------------------------------------------------------",
"------------------------------------------------------------",
"------------------------------------------------------------",
"------------------------------------------------------------",
"------------------------------------------------------------",
"------------------------------------------------------------",
"------------------------------------------------------------",
"------------------------------------------------------------",
"------------------------------------------------------------",
"------------------------------------------------------------",
"------------------------------------------------------------",
"------------------------------------------------------------",
"------------------------------------------------------------",
"------------------------------------------------------------",
"------------------------------------------------------------",
"------------------------------------------------------------",
"------------------------------------------------------------",
"------------------------------------------------------------",
"------------------------------------------------------------",
"------------------------------------------------------------",
"------------------------------------------------------------",
"------------------------------------------------------------",
"------------------------------------------------------------",
"------------------------------------------------------------",
"------------------------------------------------------------",
"------------------------------------------------------------",
"------------------------------------------------------------",
"------------------------------------------------------------",
"------------------------------------------------------------",
"------------------------------------------------------------",
"------------------------------------------------------------",
"------------------------------------------------------------",
"------------------------------------------------------------",
"------------------------------------------------------------"
};
