/* XPM */
static char *result[] = {
/* columns rows colors chars-per-pixel */
"60 60 39 1 ",
"  c #1F2152",
". c #212354",
"X c #272957",
"o c #282957",
"O c #24265A",
"+ c #26295D",
"@ c #282A5E",
"# c #2B2C63",
"$ c #2E2F69",
"% c #2C3166",
"& c #2E336A",
"* c #303464",
"= c #31326D",
"- c #34396F",
"; c #343671",
": c #353A74",
"> c #383B76",
", c #373F79",
"< c #393D7A",
"1 c #3A4074",
"2 c #37407A",
"3 c #3A437D",
"4 c #41487F",
"5 c #3D4582",
"6 c #3F4884",
"7 c #404784",
"8 c #414A86",
"9 c #424D8B",
"0 c #46518E",
"q c #48528F",
"w c #465391",
"e c #495592",
"r c #4B5997",
"t c #4E5C9B",
"y c #515C97",
"u c #505E9D",
"i c #52619F",
"p c #5363A3",
"a c #5967A5",
/* pixels */
"oww9tpppu9O0e9tpu6w9 werptw666#6w0rppppwO9e0tpu6w0#6ttptw099",
"o85;35387<.855575;<< 6,566<35;+67:<5<88<O66,585;<3 52265<<<;",
"o5:###O;==.5:==$$O;= 5##=$==$  5>###O===O3>=$$$O==#2$#====$O",
"o3:$=#O===.3:=##==== 5:&##===$ 5>$=#O===.,>=##&$==.<;$##;==$",
"o3&%$$##;=.3:$+#$=$= 5&%##==$= 5=#%$+#== 3>####=%= 2=###;=#=",
"o3+ #$#.=% <;O##.$ $ ,# +$=& $ ,%.#%#.== <;###+# = 2% #==%.$",
"o+. .....X.OO. .    .             ......               ..O O",
"7:;;+#<;-2333:+#<;>55;:;#%2;555,--#@<::<556,#+2::65:;=##2;35",
"y988%;t89trttw$;t89rt966&=t6ttr688==t88trtte=%t86ru066=&u6rt",
"%-::#%8;#:#;>:#%8:>><#;:#&6#22$;:;#%9-#:#;<:#%0;>,<#=:#%9#<,",
"@#==#%6=#=.#==@%8==#;#$=+%5+=$+#==+%9=@=O#==##8;=#=#%=##6#=#",
"-X$=+%6===.#;=@%7=$.$===+&6=$ $O#=##6===.$==+%8;= $===O#6;$+",
"o.$=+=3.O==O$=@%7$O$ &O###6  =  %=#%5..==O$=##6% $O#O###6. %",
"o.+#X+%..@@XO#O+;# # #O+ #&  #  +#O+&..##.O#O+=# #OOO+O+=  #",
"o.................              ..  .......... OO    O O    ",
"o7538wwe05.3558e9335O666ww5555#6630qqq05.3858w9555+366e96555",
"+66,690ww6.9879e9<65 066e0555< 985899e07+8979ew<57+868e9776<",
"+5>####==; <:==$$O=; 2##===== .3:###O===.<>;$$$.==.2##=&==$O",
"o5;==$ === 5>=+#=$== 5:&##$==$.3>==$O;==O3>=#O;$=;.2:=##====",
"o3$#$$#$==O<:$#+#=#= 5=%##==#= 2=#%%@#==.<>$###&#=O2;###==#=",
"o<+ %&%+==.>;+##O$O# ,# #==&O$ :# +%#.&&.<;+##O&.#.<# +&=$.$",
"o#.     OO #+... O + #    O .O #  OOO.OO ++...   O.+O  OOO O",
":#%%O#&&#&&&=&OO$#%%&%%%++;%===#%#++%##&&&&%+O&%#&=%%#+O&#%=",
"aww9&;u6eppppr&;t0eppe6w=;p6pppw00&=uw0ppppt-&i0wipe9w&&pwpp",
"%=;:@%9;#:#;>:#%8;:::#=:#%6#::#=;;#%9;#;#;::#%9::>>#=;##9#:>",
"*#==+%6=@= #==+%8==#=#$$#%5#=#+#==##8=#=O#;=+%8==#$#$=#%6O=#",
"-X#=+%6===.$==+$8==.==&;+%6;= & #;+%6===.#==##8==.$;=;+#9;%O",
"@.==#$3O#=#+$;+$6=O#O$###%5 +%# #=#%6O+=$+$&##9=O#O$O###6+O#",
"o.#%O#; O#$.##+#>#O# %.#O%:  $  @%+#: O#$O##+@1#.#.@OOO#<  #",
"o........ .......... O..O       .O...... ...............  .O",
"o8839eeew5.5659e9555 569e05355#5530wwr05O5758ew353+388e02555",
"o982808e06.9858w9>55O656w95552 693509005O7959q0255O866e9555<",
"o3:###O===O5:===$O==.5##&===$O 3>###O$;=.3:===$.==O,##$====.",
"o5:#=#O;== <:=##=$== 5=&##==;#.<>$$#O$==.3<=##=$=;O,:$##===$",
"O5;$&#+&=;.5;$#O$=%=.5;###==%; 3;#=$+$;&.<<$##$=$&O3:###==$=",
"O5+ #=%O==.<;###O%O=.<# #=;$O& 3# #=$ ;;.3>#O# =O& 2% #===.$",
"oO. .+  .O +O..O.... #O. .O..X OO  O   O O#  ... . O   OO..O",
":*%#O+&%&&-&;$OO&%%=&##$OO&%-&-&##O+-&%&=&&%#.=$%&-%&%XO&$&;",
"ae9w&:u0wppppr&;p9wppe99;;twpppe09==u0wppppr==uwwppe06;&p0pp",
"1><<#&0:-3;363#&9<355;><#%0&55:><<#&w2&5:565%#w<,56:<2##w&55",
"@#=;#%6%+=.$==+$6;=$=O$=#%6O;$O#$$#%8$O& %=;##6==$=##=##7O=$",
"-O#=+%6===.#;=@%6=$.====O#6&$ $+$$##6=;= #==##6$$O$==;##8=$O",
"@.%;##3++=#@$;@%6&+#O$+$##5+O$+ #=##6O#&&##=##6;O#+%####8OO#",
"o.##O#-..#%O##O#:#O%O#OO+#: .#O ##+#>  #$+## #,$.#.#OOO+<.X#",
"o.....O............. ... ..O    O  O  O         ..  ..X....O",
"o><:35553:.:::385:::.:2363::>>+,,>26665,+>5>566,::O:2353::::",
"oq08qytit8.009ett569.09etr9666O9w6wtrtt6+606etr689+90wue9996",
"o3:O##+===.3:=;=%.=; 3+#;==;$. ,:###O;== 5:=;;& ==.3#@=====.",
"o5:$$#O===.3:;##$$==.5;$##;;=# 5>$=#O=;=O2:;##=#==O<;%##===$",
"+5-#=#+$;=.3:$#+$$$=.<;$O#=$$=.,;$%#O$==.2<%#O$=$=O<:###==$=",
"o3@ #;$.== 3:O##O$O$ 5# #=;&O=.5# #=$ ==.3:###O$O$O<# O;==.=",
"O%O.O+O.++.%#OOO.O.# #. O++O O.#O .#O ## %%OOO.O.O.#O.OO+O +",
"&+++.X@++@@##+.+##O##+O+OO+X%##+##OO#O####++OO#OO###+#.O#O@#",
"iw69==r89uiuuw&=e60ttw66&=t0ttte66&&r89rutie&%t96ttw96-%u9uu",
"1:<:#=0:=4:332#%0,<55&,,#%9&53;:<,#%w>&5;<5<##w>255&:,#%0$55",
"@#==+%5=O=.#=-@%6=$$=#$;#%5O=$O#==##6=O$.#;;##8==&$#$=O%7O=$",
"-o$=@%5===.#==@%6;$ $===##7;#.=O#;##6==;.#==+#8=&O$===##8=$O",
"*.$=#%5##=##$=+=6=###$#$##5##@@.#;##5##$##$=##8;#O#$#$##8#+#",
"o #=O%1 X$$O#=+#5$O$.#O#@#<..=..$$##5 O#=O$=+#7$.$O#O+##5..$",
"o... .     .  ..        .    .           .   .            .."
};
