/* XPM */
static char *result[] = {
/* columns rows colors chars-per-pixel */
"60 60 165 2 ",
"   c #010101",
".  c #0A0605",
"X  c #0D0807",
"o  c #0D0A09",
"O  c #130C0B",
"+  c #190E0D",
"@  c #11100F",
"#  c #1E100F",
"$  c #151311",
"%  c #1A1513",
"&  c #241412",
"*  c #2A1615",
"=  c #2D1817",
"-  c #221E1A",
";  c #2E1B19",
":  c #331C1A",
">  c #3A1F1D",
",  c #25201C",
"<  c #29241F",
"1  c #3C211E",
"2  c #262422",
"3  c #2A2623",
"4  c #2A2824",
"5  c #2F2D29",
"6  c #3D2521",
"7  c #332B25",
"8  c #302D29",
"9  c #3B312C",
"0  c #3A3732",
"q  c #3D3A36",
"w  c #442522",
"e  c #482724",
"r  c #4C2926",
"t  c #4D2C29",
"y  c #542D2A",
"u  c #49352F",
"i  c #55312D",
"p  c #5C322E",
"a  c #453630",
"s  c #443B33",
"d  c #4A3431",
"f  c #5D3531",
"g  c #543933",
"h  c #5E3D39",
"j  c #643632",
"k  c #673934",
"l  c #6C3A36",
"z  c #713C37",
"x  c #743E39",
"c  c #45423C",
"v  c #4D443C",
"b  c #55433D",
"n  c #5B443E",
"m  c #53483F",
"M  c #77403B",
"N  c #7B423D",
"B  c #4D4A45",
"V  c #4C4642",
"C  c #564B42",
"Z  c #5B4E46",
"A  c #524F4B",
"S  c #5F5146",
"D  c #57534C",
"F  c #644D44",
"G  c #684E45",
"H  c #63564E",
"J  c #635D56",
"K  c #6B5B50",
"L  c #785A50",
"P  c #64615B",
"I  c #766458",
"U  c #7A6A5D",
"Y  c #7C6458",
"T  c #6D6962",
"R  c #786861",
"E  c #736E65",
"W  c #757067",
"Q  c #77726B",
"!  c #80443F",
"~  c #834641",
"^  c #874943",
"/  c #8B4B45",
"(  c #904D47",
")  c #934F49",
"_  c #95504A",
"`  c #9D544E",
"'  c #A0564F",
"]  c #A35751",
"[  c #A65952",
"{  c #AD5C56",
"}  c #83695C",
"|  c #826761",
" . c #876F61",
".. c #966E64",
"X. c #827263",
"o. c #8A7768",
"O. c #8C7A6B",
"+. c #927E6E",
"@. c #9A7E6F",
"#. c #867B74",
"$. c #897970",
"%. c #8A8177",
"&. c #8C857C",
"*. c #8F887C",
"=. c #998575",
"-. c #A08B79",
";. c #8F8981",
":. c #948B84",
">. c #9D9589",
",. c #A39487",
"<. c #AF9885",
"1. c #A29A8E",
"2. c #B09784",
"3. c #B29B87",
"4. c #B59B88",
"5. c #A69D92",
"6. c #BCA28E",
"7. c #AAA196",
"8. c #ABA499",
"9. c #BFA691",
"0. c #B5AC9E",
"q. c #B4ADA1",
"w. c #B5B0A7",
"e. c #BAB2A5",
"r. c #BCB5A8",
"t. c #C2A994",
"y. c #CDB29C",
"u. c #D1B69F",
"i. c #C1B9AC",
"p. c #D2B7A0",
"a. c #D6BAA3",
"s. c #D9BDA5",
"d. c #C2BDB2",
"f. c #DFC2AA",
"g. c #CBC2B3",
"h. c #CFC6B8",
"j. c #D4CBBA",
"k. c #D0C5B4",
"l. c #DDD1BF",
"z. c #E1C4AB",
"x. c #E3C7B0",
"c. c #E3C9B3",
"v. c #E5CEB9",
"b. c #E6D1BD",
"n. c #E9D3BF",
"m. c #D6CCC2",
"M. c #DDD5C8",
"N. c #EAD5C2",
"B. c #E6D7C9",
"V. c #ECDCCA",
"C. c #E7DFD0",
"Z. c #EEDFD0",
"A. c #EEE3D3",
"S. c #EBE5D9",
"D. c #F2E6D3",
"F. c #F4E9D6",
"G. c #F2E6D8",
"H. c #F5EBDB",
"J. c #F8EFDE",
"K. c #F6EEE1",
"L. c #F8EFE0",
"P. c #F7F0E4",
"I. c #F8F1E4",
"U. c #F9F3E8",
"Y. c None",
/* pixels */
"Y.Y.Y.Y.Y.Y.Y.Y.Y.Y.Y.Y.Y.Y.Y.Y.Y.Y.Y.Y.Y.Y.Y.Y.Y.Y.Y.Y.          Y.Y.Y.Y.Y.Y.Y.Y.Y.Y.Y.Y.Y.Y.Y.Y.Y.Y.Y.Y.Y.Y.Y.Y.Y.Y.Y.",
"Y.Y.Y.Y.Y.Y.Y.Y.Y.Y.Y.Y.Y.Y.Y.Y.Y.Y.Y.Y.Y.Y.                                Y.Y.Y.Y.Y.Y.Y.Y.Y.Y.Y.Y.Y.Y.Y.Y.Y.Y.Y.Y.Y.Y.",
"Y.Y.Y.Y.Y.Y.Y.Y.Y.Y.Y.Y.Y.Y.Y.Y.Y.Y.Y.                                            Y.Y.Y.Y.Y.Y.Y.Y.Y.Y.Y.Y.Y.Y.Y.Y.Y.Y.Y.",
"Y.Y.Y.Y.Y.Y.Y.Y.Y.Y.Y.Y.Y.Y.Y.Y.Y.                                                    Y.Y.Y.Y.Y.Y.Y.Y.Y.Y.Y.Y.Y.Y.Y.Y.Y.",
"Y.Y.Y.Y.Y.Y.Y.Y.Y.Y.Y.Y.Y.Y.Y.                        .         .                         Y.Y.Y.Y.Y.Y.Y.Y.Y.Y.Y.Y.Y.Y.Y.",
"Y.Y.Y.Y.Y.Y.Y.Y.Y.Y.Y.Y.Y.Y.                        O < 0 c c q 7 @                           Y.Y.Y.Y.Y.Y.Y.Y.Y.Y.Y.Y.Y.",
"Y.Y.Y.Y.Y.Y.Y.Y.Y.Y.Y.Y.                    @ v *.k.D.F.D.D.F.D.F.D.l.1.D % .                   Y.Y.Y.Y.Y.Y.Y.Y.Y.Y.Y.Y.",
"Y.Y.Y.Y.Y.Y.Y.Y.Y.Y.Y.                  c 0.D.D.F.D.D.D.D.D.D.F.D.F.D.F.F.D.g.P o                 Y.Y.Y.Y.Y.Y.Y.Y.Y.Y.Y.",
"Y.Y.Y.Y.Y.Y.Y.Y.Y.Y.                q i.F.D.F.F.F.F.D.F.D.F.F.F.F.D.F.D.F.F.D.F.j.P .               Y.Y.Y.Y.Y.Y.Y.Y.Y.Y.",
"Y.Y.Y.Y.Y.Y.Y.Y.Y.              8 >.D.F.F.F.D.F.F.F.F.F.F.F.F.F.F.F.D.F.F.F.F.D.F.D.e.v               Y.Y.Y.Y.Y.Y.Y.Y.Y.",
"Y.Y.Y.Y.Y.Y.Y.Y.              m j.F.F.F.F.D.F.F.F.F.F.F.F.F.D.F.F.F.F.F.F.D.F.F.F.F.F.C.W o             Y.Y.Y.Y.Y.Y.Y.Y.",
"Y.Y.Y.Y.Y.Y.Y.            . W A.F.F.H.F.F.H.F.H.D.F.F.F.H.D.H.F.F.H.F.H.F.H.F.H.F.F.H.D.H.7.o             Y.Y.Y.Y.Y.Y.Y.",
"Y.Y.Y.Y.Y.Y.            o &.F.H.F.H.F.F.H.G.H.F.H.F.H.F.F.J.F.H.F.H.H.F.H.F.H.F.H.H.F.H.F.H.0.2             Y.Y.Y.Y.Y.Y.",
"Y.Y.Y.Y.Y.Y.          . %.S.H.F.H.H.H.H.H.F.F.H.F.J.F.H.H.F.J.F.H.F.H.F.F.H.H.H.F.H.H.F.H.F.H.0.@             Y.Y.Y.Y.Y.",
"Y.Y.Y.Y.Y.            T H.H.H.H.H.H.F.J.H.H.H.H.J.F.H.H.H.H.H.H.H.H.F.H.H.H.H.F.H.H.H.H.H.H.H.H.8..           Y.Y.Y.Y.Y.",
"Y.Y.Y.Y.            c S.H.H.H.H.H.H.H.H.J.G.J.H.H.J.F.J.H.H.H.H.H.H.J.H.J.H.H.H.H.H.H.J.H.H.H.H.J.Q             Y.Y.Y.Y.",
"Y.Y.Y.Y.          3 g.H.H.H.L.G.J.H.H.H.H.J.G.H.H.H.J.h.%.n 3 b R $.>.r.C.J.H.H.J.H.J.H.H.H.H.P.H.S.B           Y.Y.Y.Y.",
"Y.Y.Y.            &.K.J.K.H.H.L.H.J.H.H.J.H.K.H.K.H.5.d k ( y ( ^ x f r H q.K.H.H.K.H.J.H.J.H.H.J.K.r..           Y.Y.Y.",
"Y.Y.Y.          3 G.H.L.J.H.L.H.J.J.P.H.J.K.H.P.G.1.t ' ` + y * * & + X   ; w.H.K.H.K.H.P.H.J.K.H.P.H.T           Y.Y.Y.",
"Y.Y.Y.          ,.S.K.H.K.K.K.L.H.P.H.P.K.H.P.H.7.u { x ;   .             & 0 B.K.K.H.K.H.P.H.K.K.J.K.M.o           Y.Y.",
"Y.Y.          , s.x.v.V.G.L.L.L.K.K.P.H.P.P.H.I.Z ( { r                     y ;.J.K.K.K.K.H.I.H.K.K.H.I.B           Y.Y.",
"Y.Y.          O.z.z.z.f.x.b.G.L.K.P.H.P.H.P.P.S.t { { :                     l Q I.H.K.H.b.G.H.P.H.I.K.K.d.          Y.Y.",
"Y.Y.          y.z.z.z.z.f.z.v.U.K.K.I.K.I.K.I.&.N { x .             . * .   k J K.H.v.x.z.A.P.J.P.K.P.P.K.3           Y.",
"Y.          < z.f.z.z.z.z.f.N.K.I.I.P.P.P.I.H.V e +   . &               + = y h $.a.z.f.z.G.K.I.K.P.P.I.K.P           Y.",
"Y.          Z f.z.f.z.z.f.z.v.L.K.U.P.K.K.H.#.O + > y l 1 =                   + 6 f @.a.s.G.P.K.I.P.I.K.P.w.          Y.",
"Y.          +.z.f.z.z.z.f.z.N.K.U.K.U.K.P.i.6 p + * e p j ] .                     . w Y z.A.U.P.P.I.K.U.P.S..         Y.",
"Y.          9.f.z.f.z.f.z.z.N.U.K.U.K.U.P.:.w l y ~ ~ ; p { p                       . : 3.G.K.P.P.P.I.K.U.P.-         Y.",
"Y.        . f.f.z.z.f.z.f.z.b.K.U.K.P.K.V.,.) ^ ) { ] ; . > p X                         O.G.U.K.I.I.P.I.G.U.q           ",
"Y.        @ f.z.z.z.z.f.f.f.N.U.K.K.Z.v.z.4.~ z N { { ^ O                   . &     . c p.G.K.K.V.V.n.c.c.B.V           ",
"Y.        % z.f.z.f.z.z.f.z.v.U.G.N.f.f.z.z.g l N { { { >           X & : 1 r S K o.6.f.f.G.K.c.z.f.z.z.f.c.A           ",
"Y.        % f.z.f.z.z.f.z.f.N.K.b.f.f.x.z.z.s.- { { { { >           & = : L s.f.z.f.z.f.f.G.H.x.f.z.f.z.z.f.m           ",
"Y.        @ z.f.z.f.z.z.z.z.v.U.v.z.f.f.z.z.4.+ { { { { :             X N 6.z.z.f.z.f.z.f.G.H.x.z.z.z.f.z.z.q           ",
"Y.        . f.f.f.f.f.z.f.z.z.V.c.z.z.z.z.z.K p ^ { { { *     .     O j F z.f.z.f.z.z.f.z.G.H.x.z.z.f.z.f.z.8           ",
"Y.          6.f.f.f.z.f.z.f.z.f.z.z.s.z.z.z.n ] = / { [ &     k w 1 t N t.f.z.f.f.z.f.z.f.G.G.x.z.f.z.f.z.f.%         Y.",
"Y.          o.f.f.x.f.z.f.z.f.z.z.z.z.z.t.F p { r . w > .     . . . z } f.z.s.z.f.z.z.f.z.A.Z.f.z.z.f.z.f.u.          Y.",
"Y.          C z.f.f.z.f.z.f.z.f.z.z.s.z.I y l { j               . w | m.z.z.x.f.z.f.z.z.f.G.c.z.f.z.z.f.z.=.          Y.",
"Y.          - f.z.f.z.z.f.z.f.z.z.z.z.y.g ' # x =             X j ..B.V.z.z.z.z.f.z.f.z.f.c.z.f.z.f.z.f.f.m           Y.",
"Y.Y.          t.f.z.f.z.z.f.z.z.z.z.a.b ^ { ' =           O * &  .z.f.z.s.z.z.f.z.f.z.z.x.f.f.z.f.x.f.z.z.$           Y.",
"Y.Y.          X.z.f.z.z.z.z.f.z.f.6.u l ` { { ' =           y ; K z.z.f.x.f.z.z.f.z.f.z.f.z.f.f.z.f.z.f.=..         Y.Y.",
"Y.Y.          % u.z.z.z.z.u.6.=.F j ] { l ) [ > O = .       p & i +.z.z.z.z.f.z.z.z.z.f.z.f.z.z.z.z.f.f.9           Y.Y.",
"Y.Y.Y.          =.f.z.s.-.b 6 j ` { { { N * 1     . .     . +   w d a.z.z.z.z.z.z.z.f.z.f.z.z.z.z.z.z.t.            Y.Y.",
"Y.Y.Y.          @ u.2.a r ^ { [ / N { ^ _ l .                   + k 3.z.z.z.s.z.f.z.z.z.z.f.z.f.z.z.f.v           Y.Y.Y.",
"Y.Y.Y.          . 7 p _ { ^ N ^ l y *   r x j                     y } s.z.z.z.f.z.f.z.z.f.z.f.z.z.z.=..           Y.Y.Y.",
"Y.Y.Y.Y.          X ~ / ! ! p = .       . r _ &                   + 6 =.z.z.z.z.f.z.f.z.z.z.z.f.z.y.9           Y.Y.Y.Y.",
"Y.Y.Y.Y.            O N w .               : p p                   . w 1 =.z.z.z.z.f.z.f.z.f.z.z.f.C             Y.Y.Y.Y.",
"Y.Y.Y.Y.Y.                                  l x X                 . ( r ~ s y.z.f.z.z.z.f.z.z.f.W .           Y.Y.Y.Y.Y.",
"Y.Y.Y.Y.Y.Y.                                & ^ r                   r 1 # x 6 o.a.z.z.f.x.f.f.+.o           Y.Y.Y.Y.Y.Y.",
"Y.Y.Y.Y.Y.Y.                                  j M =                 w w   & ^ y H p.z.z.f.z.O.+             Y.Y.Y.Y.Y.Y.",
"Y.Y.Y.Y.Y.Y.Y.                                . j z .               = j     . x l v a.z.s.U .             Y.Y.Y.Y.Y.Y.Y.",
"Y.Y.Y.Y.Y.Y.Y.Y.                                : x >               : ~       . y f U t.v .             Y.Y.Y.Y.Y.Y.Y.Y.",
"Y.Y.Y.Y.Y.Y.Y.Y.Y.                              . w _ :             1 p         X N ; -               Y.Y.Y.Y.Y.Y.Y.Y.Y.",
"Y.Y.Y.Y.Y.Y.Y.Y.Y.Y.                              . x / :         . x 1           .                 Y.Y.Y.Y.Y.Y.Y.Y.Y.Y.",
"Y.Y.Y.Y.Y.Y.Y.Y.Y.Y.Y.                              . j ^ y & X * y y O                           Y.Y.Y.Y.Y.Y.Y.Y.Y.Y.Y.",
"Y.Y.Y.Y.Y.Y.Y.Y.Y.Y.Y.Y.                              . j N j ( { x *                     .     Y.Y.Y.Y.Y.Y.Y.Y.Y.Y.Y.Y.",
"Y.Y.Y.Y.Y.Y.Y.Y.Y.Y.Y.Y.Y.Y.                              X # O .                           Y.Y.Y.Y.Y.Y.Y.Y.Y.Y.Y.Y.Y.Y.",
"Y.Y.Y.Y.Y.Y.Y.Y.Y.Y.Y.Y.Y.Y.Y.                                                            Y.Y.Y.Y.Y.Y.Y.Y.Y.Y.Y.Y.Y.Y.Y.",
"Y.Y.Y.Y.Y.Y.Y.Y.Y.Y.Y.Y.Y.Y.Y.Y.Y.                                                .   Y.Y.Y.Y.Y.Y.Y.Y.Y.Y.Y.Y.Y.Y.Y.Y.Y.",
"Y.Y.Y.Y.Y.Y.Y.Y.Y.Y.Y.Y.Y.Y.Y.Y.Y.Y.Y.Y.                                          Y.Y.Y.Y.Y.Y.Y.Y.Y.Y.Y.Y.Y.Y.Y.Y.Y.Y.Y.",
"Y.Y.Y.Y.Y.Y.Y.Y.Y.Y.Y.Y.Y.Y.Y.Y.Y.Y.Y.Y.Y.Y.Y.                            Y.Y.Y.Y.Y.Y.Y.Y.Y.Y.Y.Y.Y.Y.Y.Y.Y.Y.Y.Y.Y.Y.Y.",
"Y.Y.Y.Y.Y.Y.Y.Y.Y.Y.Y.Y.Y.Y.Y.Y.Y.Y.Y.Y.Y.Y.Y.Y.Y.Y.Y.Y.Y.Y.Y.Y.Y.Y.Y.Y.Y.Y.Y.Y.Y.Y.Y.Y.Y.Y.Y.Y.Y.Y.Y.Y.Y.Y.Y.Y.Y.Y.Y.Y."
};
