/* XPM */
static char *result[] = {
/* columns rows colors chars-per-pixel */
"60 60 189 2 ",
"   c #000000",
".  c #040906",
"X  c #020708",
"o  c #030B0B",
"O  c #06130E",
"+  c #030F12",
"@  c #031314",
"#  c #091E17",
"$  c #041619",
"%  c #041A1D",
"&  c #081C18",
"*  c #0D2017",
"=  c #0B231C",
"-  c #0E2A1D",
";  c #051D21",
":  c #052326",
">  c #092621",
",  c #0B2B23",
"<  c #05252A",
"1  c #062A2E",
"2  c #0A2A28",
"3  c #0F3223",
"4  c #0E352A",
"5  c #113525",
"6  c #103728",
"7  c #123E2D",
"8  c #123925",
"9  c #052D33",
"0  c #082F34",
"q  c #053037",
"w  c #093436",
"e  c #06333A",
"r  c #093439",
"t  c #07383E",
"y  c #0C3B3B",
"u  c #15432D",
"i  c #0E433D",
"p  c #154433",
"a  c #194C32",
"s  c #144B3B",
"d  c #11433A",
"f  c #19573F",
"g  c #1D5B3B",
"h  c #073B44",
"j  c #093D44",
"k  c #073F48",
"l  c #0A3F48",
"z  c #0D4444",
"x  c #074049",
"c  c #09434B",
"v  c #0D4E4E",
"b  c #124B42",
"n  c #104E4B",
"m  c #135345",
"M  c #1B5A43",
"N  c #185E4A",
"B  c #12554F",
"V  c #094751",
"C  c #074A54",
"Z  c #0A4B53",
"A  c #094E59",
"S  c #0E5254",
"D  c #0B535C",
"F  c #0F5E5D",
"G  c #115D5B",
"H  c #115652",
"J  c #1E6242",
"K  c #1F6A47",
"L  c #1C654C",
"P  c #13655F",
"I  c #196B5B",
"U  c #1E745B",
"Y  c #216C46",
"T  c #226F4B",
"R  c #24744B",
"E  c #207156",
"W  c #257C53",
"Q  c #237D5C",
"!  c #0A5662",
"~  c #0B5A65",
"^  c #0B5D6A",
"/  c #105F61",
"(  c #0D646D",
")  c #0E686F",
"_  c #116162",
"`  c #126967",
"'  c #11656A",
"]  c #116A6D",
"[  c #1A6F63",
"{  c #1B7564",
"}  c #16756D",
"|  c #1A776F",
" . c #0B6573",
".. c #0E6A76",
"X. c #0D6C7C",
"o. c #0C6779",
"O. c #0F727D",
"+. c #147574",
"@. c #11747A",
"#. c #14797C",
"$. c #207F66",
"%. c #207E68",
"&. c #2B8D5C",
"*. c #2D905C",
"=. c #1F836B",
"-. c #1D8577",
";. c #23876A",
":. c #2A9769",
">. c #2D9C6D",
",. c #2D9664",
"<. c #208F7C",
"1. c #2B9C71",
"2. c #239379",
"3. c #32A067",
"4. c #32A66C",
"5. c #33A86E",
"6. c #2DA87D",
"7. c #2CA379",
"8. c #31A671",
"9. c #32AC78",
"0. c #36B071",
"q. c #38BE7E",
"w. c #33B27B",
"e. c #0D7384",
"r. c #0F7987",
"t. c #0D768A",
"y. c #0E7A8C",
"u. c #127C83",
"i. c #107E8C",
"p. c #0D7F92",
"a. c #107F92",
"s. c #178C8E",
"d. c #1B928A",
"f. c #1F9C8B",
"g. c #0D8193",
"h. c #0E859A",
"j. c #0E899E",
"k. c #118594",
"l. c #148C94",
"z. c #188E91",
"x. c #128C9A",
"c. c #169195",
"v. c #199593",
"b. c #14929B",
"n. c #189799",
"m. c #199A9C",
"M. c #239C82",
"N. c #1BA09C",
"B. c #27A080",
"V. c #26A68C",
"C. c #25AC92",
"Z. c #21A192",
"A. c #2CB995",
"S. c #0E8DA4",
"D. c #118FA3",
"F. c #0E94AC",
"G. c #0F92A6",
"H. c #1293A4",
"J. c #189EA0",
"K. c #1196AC",
"L. c #1299AD",
"P. c #0F9BB2",
"I. c #109DB4",
"U. c #109FB8",
"Y. c #19A6AD",
"T. c #1DABA8",
"R. c #19ABB1",
"E. c #11A4BC",
"W. c #15ABBD",
"Q. c #21B1A4",
"!. c #35C18B",
"~. c #2ACCB4",
"^. c #27CAB9",
"/. c #0FA8C1",
"(. c #11A7C1",
"). c #12AAC3",
"_. c #11AECA",
"`. c #11B3CD",
"'. c #15B8CF",
"]. c #19BDCC",
"[. c #18B7C6",
"{. c #11B6D1",
"}. c #13BAD4",
"|. c #18C1D7",
" X c #15C3DD",
".X c #21CECC",
"XX c #15C5E2",
"oX c #17CDE7",
"OX c #18CEE7",
/* pixels */
"                                                                                                                        ",
"                                                                                                                        ",
"                                                                                                                        ",
"                                                                                                                        ",
"                                                                                                                        ",
"                                                                                                                        ",
"                                                                                                                        ",
"                                                                                                                        ",
"                                                                                                                        ",
"                                                                                                                        ",
"                                    % ^ ^  .x                                                                           ",
"                                    9 P.~ t.j.                                                                          ",
"                                    9 g.  q XX/.^ P.`.`.`.{._.{.{._.e.P.{.{.{.{.{.{.'.{.a.o                             ",
"                                    9 p.  o 9 V }.A k h 9 F.V 9 9 h P.~ 9 9 9 e.! 9 9 q k.S                             ",
"                                    9 g.  X X   P.@ X X   g.  X X   X.% X X   ^ q   .   Z ..                            ",
"                                    9 g.  e 9   P.@ q q   p.  ; ^ ^ F.%   c   ^ t @ D   Z @.                            ",
"                                    9 p.  t 9   P.@ q q X p.  X @ ; h.<   o   ~ t @ A   v @.                            ",
"                                    9 p.  t 1   P.@ e q   p.  @ <   X.%   9   ~ q @ D   Z @.                            ",
"                                    9 p.  % $   P.@ q q   p.  @ ;   X.$ X (   ^ r o <   Z @.                            ",
"                                    9 h.+ + + 9 (.; k h + h.@ + + ; h.%   o.+ ( w   o @ #.+.                            ",
"                                    < P.h.h.h.S.(.h.S.S.h.U.h.h.G.t.^ +   W.l.W.r X j v z.+.                            ",
"                              o o j o.y.t.p.t.t.t.Z X.S.S.h.^ p./.^     X |.b.|.j       v +.                            ",
"                            9 XX`.`.t.X._.e. . .X._.h.o. .o.}.p. .9    .H.[.c. .u.b.n.n.T.+.                            ",
"                            e S.        h ; X     A ;       o.        D.>       % J.z y y >                             ",
"                            q U.h x $ X o.^ A :   C % % k    .  $ r   b.D j 1   r J.@                                   ",
"                            9 P.e ! q + /.; X     V % o %    .  % c   b.Z w (   F v.o                                   ",
"                            q S.  q q + /.S.h.k   D A h :    .  ; c   b.<   (   F `                                     ",
"                            q S.  < < + /.^ e.^   C h h Z    .  % c   c.: . v   F `                                     ",
"                            9 F.X     % _.: A ^   A :       @.  % z   n.q .     ` P                                     ",
"                            o `.~ A A e.{.+ ^ h.D h.y.D D ~ W.D ~ s.D R.z.S H F T.n                                     ",
"                              ;  .o.o.! % t.P.S.j.F.XXOXOXW.x.].W.c.R.c.n..Xd.d.d.Q.P                                   ",
"                                          (.; @ @ % j.Z j < @ S ~ @ ] % > s.@ @ @ i f.O                                 ",
"                                          ).  ; :   @.$       9 Z   _ X $ }   2 @ > f.O                                 ",
"                                          ).  r c   i.^ D '   c.]   P X $ }   2 H -.C..                                 ",
"                                        . ).  r c   @.@   ]   c.]   G X $ |   o . > V.O                                 ",
"                                          ).  0 t o y.@   D @.Y.c.A +.X @ }   4 & = f..                                 ",
"                                          ).  X X D L.@   o x.D 9 1 x.> @ |   X . = M..     = &                         ",
"                                          L.' Z ( D x.@.Z S l.  ; ' c z.-.M.m m m =.2..   p w.4.O                       ",
"                                    @   0 l ].XXo.l {.i.W.).[.. & j _ Y.^.^.~.C.C.2.* o 6.9.o g K                       ",
"                              @ @ ; i.X.k.X.X.t.: Z I.r ) 0 E.O ] ' #.Y./ | | M.=.;.M = :.* f , &.X                     ",
"                      X     X o.a.h.V  .! ; !  .! ! g.V P.e a.+ l.B / N.z [ > A.N 7 1.M ,.M 7.6 &.O                     ",
"                    c j.g.i.(.w l e.j V X.a.^ ! ~ D y.V G.q u.  r 0 y B b M.4 7.4 U :.J 4.7 u o g g                     ",
"                    ! e.D $ `.r a.D.^ c < ^ ^ A ^ ! g.V D.9 b.X / ' y %.b B.6 1.4 =.4.4.. X O p a R                     ",
"                    j ! D j P.; S ^ ~ V V ~ V o.j h D.Z W.r z.# / S y ;.s B.5 >.4 I T a s L p 7 a Y                     ",
"                    $ t.^ j E.< ^ !  .c ).c  .L.A y.l.H.Y.v.v.d.Z.M.M.%.p A.8 q.6 { 8 3 E   . - 3.8                     ",
"                    1 ^ l ^ ..+ j  .e.X.) k.D X D r   $   @ X o $ O , p $.Y 0.8.a p Y T M U M u W g                     ",
"                    r ! X.~ K.V A i.a./ o @ X     .                     .   # u ,.*.5.5.p - O 3 a &.                    ",
"                    r A j ~ E.x...l X X                                         X - * M Y   # W W &..                   ",
"                    < H.D.y.j                                                           3.*.0.&.&.R                     ",
"                      o 0                                                               . 8   O *                       ",
"                                                                                                                        ",
"                                                                                                                        ",
"                                                                                                                        ",
"                                                                                                                        ",
"                                                                                                                        ",
"                                                                                                                        ",
"                                                                                                                        ",
"                                                                                                                        ",
"                                                                                                                        ",
"                                                                                                                        "
};
