/* XPM */
static char *aaec8cac9a764464d07213b6a51d44eaiO0pQg5UQ3UY3geF[] = {
/* columns rows colors chars-per-pixel */
"16 16 26 1 ",
"  c #681919",
". c #8C0E0E",
"X c #8B0F0F",
"o c #8C0E0E",
"O c #611717",
"+ c #AC0B0B",
"@ c red",
"# c #FE0000",
"$ c #9F0909",
"% c #AC0B0B",
"& c #A00909",
"* c #A00909",
"= c #A00909",
"- c #AB0B0B",
"; c #FE0000",
": c #FD0000",
"> c #FE0000",
", c #9F0909",
"< c #5D1616",
"1 c #7B0B0B",
"2 c #7B0C0C",
"3 c #7B0C0C",
"4 c #7B0C0C",
"5 c #7B0C0C",
"6 c #561414",
"7 c white",
/* pixels */
" .XXXXXXXXXXXXoO",
"+@############@$",
"%@@@@@@@@@@@@@@&",
"%@@@@@@@@@@@@@@*",
"%@@@@@@@@@@@@@@&",
"%@@@@@@@@@@@@@@&",
"%@@@@@@@@@@@@@@*",
"%@@@@@@@@@@@@@@*",
"%@@@@@@@@@@@@@@*",
"%@@@@@@@@@@@@@@*",
"%@@@@@@@@@@@@@@&",
"%@@@@@@@@@@@@@@&",
"%@@@@@@@@@@@@@@=",
"%@@@@@@@@@@@@@@=",
"-;::::::::::::>,",
"<123244342434256"
};
