/* XPM */
static char *result[] = {
/* columns rows colors chars-per-pixel */
"60 60 183 2 ",
"   c #8C3527",
".  c #681D25",
"X  c #7A2926",
"o  c #430423",
"O  c #551024",
"+  c #7F2B25",
"@  c #560C20",
"#  c #712123",
"$  c #701B1B",
"%  c #77211E",
"&  c #4D0821",
"*  c #641621",
"=  c #480622",
"-  c #AB3E19",
";  c #82271C",
":  c #A23819",
">  c #65151D",
",  c #943724",
"<  c #A43918",
"1  c #902A15",
"2  c #8B3123",
"3  c #993218",
"4  c #AC411D",
"5  c #9D3113",
"6  c #A13415",
"7  c #7E2118",
"8  c #5C0F1F",
"9  c #A23C1F",
"0  c #721C1F",
"q  c #510A20",
"w  c #B94C1F",
"e  c #8C2B1A",
"r  c #721E1F",
"t  c #972F16",
"y  c #832318",
"u  c #A34023",
"i  c #6D171C",
"p  c #A43816",
"a  c #9E371B",
"s  c #95331D",
"d  c #872617",
"f  c #5A0F1F",
"g  c #580E1F",
"h  c #892D1F",
"j  c #6E191B",
"k  c #922B15",
"l  c #761D1A",
"z  c #972D14",
"x  c #8B2816",
"c  c #7B2019",
"v  c #8E2916",
"b  c #781E1A",
"n  c #4E0A21",
"m  c #63131D",
"M  c #7C231D",
"N  c #7D1F19",
"B  c #69141C",
"V  c #781D1A",
"C  c #C75925",
"Z  c #611622",
"A  c #7E2821",
"S  c #C05222",
"D  c #761B1A",
"F  c #983621",
"G  c #A13617",
"H  c #972E14",
"J  c #6C1C20",
"K  c #7A1F19",
"L  c #5D101E",
"P  c #6D1F24",
"I  c #9F3D24",
"U  c #923322",
"Y  c #A73F1E",
"T  c #9E3517",
"R  c #973018",
"E  c #8E2E1E",
"W  c #9B341A",
"Q  c #903422",
"!  c #6B161C",
"~  c #6C1F24",
"^  c #5E111E",
"/  c #762525",
"(  c #6F2024",
")  c #732223",
"_  c #6A181E",
"`  c #5C101F",
"'  c #651821",
"]  c #6F1F22",
"[  c #782522",
"{  c #580F21",
"}  c #5F1422",
"|  c #AE4621",
" . c #AC4421",
".. c #782422",
"X. c #912D19",
"o. c #882C1F",
"O. c #953621",
"+. c #852E24",
"@. c #A83B18",
"#. c #9A2F14",
"$. c #9C3A20",
"%. c #8A2616",
"&. c #6A171C",
"*. c #AA4726",
"=. c #A64425",
"-. c #5B1323",
";. c #AD4A28",
":. c #68151C",
">. c #540C20",
",. c #7E2621",
"<. c #60101E",
"1. c #B2451C",
"2. c #91301E",
"3. c #842920",
"4. c #B34820",
"5. c #812318",
"6. c #9E3417",
"7. c #93311B",
"8. c #590E1F",
"9. c #7B2522",
"0. c #6B171C",
"q. c #8D2816",
"w. c #9B3216",
"e. c #872517",
"r. c #822318",
"t. c #932C15",
"y. c #6D191C",
"u. c #D5662B",
"i. c #65131D",
"p. c #731B1A",
"a. c #66141D",
"s. c #802218",
"d. c #560D20",
"f. c #5B0F1F",
"g. c #852417",
"h. c #61121E",
"j. c #752221",
"k. c #591021",
"l. c #611724",
"z. c #722123",
"x. c #742223",
"c. c #631520",
"v. c #5A1223",
"b. c #530D22",
"n. c #681A23",
"m. c #CE5F28",
"M. c #8E2C1A",
"N. c #6D1A20",
"B. c #5B0E1F",
"V. c #7A221D",
"C. c #520D23",
"Z. c #520B20",
"A. c #661921",
"S. c #771E1E",
"D. c #701C1D",
"F. c #530C20",
"G. c #AC3F19",
"H. c #AD4019",
"J. c #AB3F19",
"K. c #A03618",
"L. c #912B16",
"P. c #912A15",
"I. c #81261E",
"U. c #8E2F1E",
"Y. c #AC421D",
"T. c #902C18",
"R. c #A93F1C",
"E. c #A03314",
"W. c #A93C16",
"Q. c #A73A15",
"!. c #A13514",
"~. c #AA3D16",
"^. c #A83B15",
"/. c #A13A1C",
"(. c #9E3214",
"). c #A03414",
"_. c #9F3314",
"`. c #9E3213",
"'. c #933421",
"]. c #771F1C",
"[. c #77201E",
"{. c #9F3619",
"}. c #7A1E19",
/* pixels */
"      . X   o O     + @ @ @ @ o o .     # $ $ $ $ %   & o o               * & o O                   . o = @   .     * @ ",
"- - - ; : - > , - - < 1 1 1 1 > 2 3 - - 4 5 5 5 5 6 - 7 8 X - - - - - - - 9 0 q , - - - - - - w - - e q r 1 - e - - t y ",
"5 5 5 5 5 5 $ u 5 5 5 5 5 5 5 $ u 5 5 5 5 5 5 5 5 5 5 5 i   5 5 5 5 5 5 5 p a @ u 5 5 5 5 5 5 5 5 5 5 @ u 5 5 5 5 5 5 5 ",
"5 5 5 5 5 5 $ s 5 5 d 5 5 5 5 $ u 5 5 5 5 5 5 5 5 5 5 5 d f 5 5 5 5 5 5 5 5 5 $ s 5 5 5 5 5 5 5 5 5 5 @ d 5 5 5 5 5 5 5 ",
"5 5 5 1 1 1 g h 5 5 d j 7 1 1 > ; k 5 5 5 5 5 5 5 5 5 k l f 5 5 5 5 5 5 z 1 x g c 5 5 5 5 z 1 1 7 v d q b 1 d v 1 5 5 5 ",
"$ $ $ @ @ @ o n $ $ $ f & @ @ o n f $ $ $ $ $ $ $ $ $ f o o $ $ $ $ $ $ m @ & o n $ $ $ $ m @ @ & q o o = @ o q @ $ $ $ ",
"w w w w w w w w u & M w w w a y N B B V f i y y w w w w C w $ Z A w w C w w w w C w w % o u w C w w w w w w w S C f % w ",
"5 5 5 5 5 5 5 5 p @ 1 5 5 5 5 5 z D F G $ y 5 5 5 5 5 5 p 5 5 A w 5 5 p 5 5 5 5 p 5 5 H > w 5 p 5 5 5 5 5 5 5 6 p $ d 5 ",
"5 5 5 5 5 5 5 5 5 @ 1 5 5 5 5 5 z y - 5 $ y 5 5 5 5 5 5 5 5 5 J s 5 5 5 5 5 5 5 5 5 5 5 $ w 5 5 5 5 5 5 5 5 5 5 5 $ d 5 ",
"5 5 5 5 5 5 5 5 1 $ 5 5 5 5 5 5 5 5 5 5 $ 1 5 5 5 5 5 5 5 5 5 $ 5 5 5 5 5 5 5 5 5 5 5 5 $ - 5 5 5 5 5 5 5 5 5 5 5 $ A 5 ",
"d d d d d d K i L n c d d d d d d d $ c n $ d d d d d d $ d $ n $ d d d d d d d d d d > n f c d d d d d d d d d d n P s ",
". . o .         A $ $ $ @ q o .                   * @ @ @ & o X                 O o .         # @ @ @ @ q o o q @ @ +   ",
"5 p A w 5 5 5 5 5 5 5 5 5 1 @ s 5 5 5 5 5 5 5 5 5 5 5 5 5 5 $ 5 5 5 5 5 5 5 5 5 5 $ a 5 5 5 5 5 5 z D I U @ 5 5 5 5 5 5 ",
"5 5 $ w 5 5 5 5 5 5 5 5 5 1 @ Y 5 5 5 5 5 5 5 5 5 5 5 5 T k $ 5 5 5 5 5 5 5 5 5 5 $ i z 5 5 5 5 R E F - W @ 5 5 5 5 5 5 ",
"5 5 $ - 5 5 5 5 5 5 1 5 5 1 @ s 5 5 5 5 5 5 5 5 5 5 5 5 Y A $ 5 5 5 5 5 5 5 5 5 5 $ 1 5 5 5 5 5 - w - 5 z m 5 5 5 5 5 5 ",
"K g o K y y 5 5 5 - Q $ y ! & $ 5 d 5 5 5 5 5 5 5 5 5 d $ A f k 5 d k d 5 5 d d k f i i 1 5 5 5 5 5 5 5 c f i y y 1 5 5 ",
"~ . . ~ # # m m ^ f / . # ( . ) A ) A _ m f ` m m m m g & & & L m ' ] n J A ) ) [ . ~ { L m m m ^ f f A P . } # # ' A A ",
"w w w w w w y V @ . | w w w w w w w  .0 @ o ..y y y y y y y y y y a Y f u w C w w C C X.y y y y o.O . w w w a w w s w w ",
"5 5 5 5 5 5 5 5 y   - 5 5 5 5 5 5 5 y O.w A u 5 5 5 5 5 5 5 5 5 5 5 5 $ w 5 5 5 5 5 5 5 5 5 5 5 w   w 5 5 5 5 5 5 5 5 5 ",
"5 5 5 5 5 5 5 z i +.@.5 5 5 5 z #.5 5 p 5 $ $.5 5 5 5 5 5 5 5 5 5 5 5 $ p 5 5 5 5 5 5 5 5 5 5 5 s ] p 5 5 5 5 5 5 5 5 5 ",
"5 5 5 5 5 5 5 5 y $ 5 5 5 5 1 y z 5 5 5 5 m $ 5 5 5 5 5 5 5 5 5 5 5 z m 1 5 5 5 5 5 5 5 5 5 5 5 w A 5 5 5 5 5 5 5 5 %.1 ",
"$ $ $ $ $ $ m @ & o > $ $ L & @ &.$ $ &.@ o o o $ $ $ $ $ $ $ > f m q o & L $ $ $ $ $ &.m @ q & & o f o > $ $ $ $ $ $ f ",
"i i i } , u n P u *.=.u u u u n -.A *.;.u u O.i i :.m m >.O u u u u u o.i i m n P u u u u u O.i i i m n P u u +.u u ,.<.",
"5 5 5 u p 5 $ u 5 - p 5 5 5 5 $ u 5 - 1.5 5 5 5 5 5 5 5 d   5 5 5 5 5 5 5 5 5 $ u 5 5 5 5 5 5 5 5 5 5 $ u 5 5 - 5 5 2.3.",
"5 5 5 5 5 5 $ u 5 5 5 5 5 5 5 $ u 5 5 5 5 5 5 5 5 5 5 5 d f 5 5 5 5 5 5 5 5 5 $ o.5 5 5 5 5 5 5 5 5 5 $ $ 5 5 5 5 a 4.- ",
"5 5 5 5 5 5 $ $.5 5 5.k 5 5 5 $ u 5 5 5 5 5 5 5 5 5 5 5 d $ 5 5 5 5 5 5 5 5 5 $ &.5 5 5 5 5 5 5 z 5 5 $ d 5 5 5 5 p 6 5 ",
"5 5 5 5 5 5 f $ 5 5 k $ d 5 5 f A d 5 5 5 5 5 5 5 5 5 d > f 5 5 5 5 5 5 5 5 d f &.1 5 %.1 5 z y i 7 $ f $ 5 $ k 5 5 5 5 ",
"            # @ & o = @ @ @ @ @ @ @ # X o .                 o o &               + & & o o .               # @ @ @ o = @ ",
"w S - - 1.w 6.1 x X 7.1 1 1 1 1 1 1 6.: > | - - - - - - - - d 8.9.- - - - - - - < x x c n | - - - - - - - 6.1 1 1 g 0.1 ",
"5 5 5 5 5 5 5 5 d   - 5 5 5 5 5 5 5 5 5 $ w 5 5 5 5 5 5 5 5 5 > K 5 5 5 5 5 5 5 5 5 5 5 $ w 5 5 5 5 5 5 5 5 5 z 1 $ d 5 ",
"5 5 5 5 5 5 5 5 1   - 5 5 5 5 5 5 5 5 5 $ a 5 5 5 5 5 5 5 5 5 > d 5 5 5 5 5 5 5 5 5 5 5 $ d 5 5 5 5 5 5 5 5 5 p  .# $ 5 ",
"5 5 5 5 5 5 1 q.x J w.5 5 5 5 5 5 z 7 e.g V #.5 5 5 5 5 k z 7 ^ x 5 5 5 5 5 5 5 5 z 1 r.g d H 5 5 5 5 5 5 5 5 t.R J y.z ",
"$ $ $ $ $ $ $ L & o > $ $ $ $ $ $ m & q o & &.$ $ $ $ $ f m & o & $ $ $ $ $ $ $ $ m @ = o o > $ $ $ $ $ $ $ $ L @ o = m ",
"K K f u w w w w w w w a y 7 f u w w C S w w 4 y y y y y y K . | w w w w w w a y j & o.S u.C S w w w w w Y f A | u.w u w ",
"5 5 $ w 5 5 5 5 5 5 5 5 5 5 $ s 5 5 p 6 5 5 5 5 5 5 5 5 5 5   - 5 5 5 5 5 5 5 5 #.&.4 6 - p 6 5 5 5 5 5 5 $ w 6 - 5 p 5 ",
"5 5 $ - 5 5 5 5 5 5 5 5 5 5 $ w 5 5 5 5 5 5 5 5 5 5 5 5 5 1 A p 5 5 5 5 5 5 5 5 5 $ w 5 5 5 5 5 5 5 5 5 5 $ w 5 5 5 5 5 ",
"5 k f 5 5 5 5 5 5 5 d 5 5 z m $ 5 1 y z 5 5 5 5 5 5 5 5 z i m z 5 5 5 5 5 5 5 5 z m a 5 5 5 5 5 5 5 5 5 z m 1 5 5 5 5 5 ",
"m >.o $ d d d d d d $ f K i.= > p.L a.s.d d d d d d K m d.& = 0.d $ c $ d p.m f d.= L &.d d d d d d d i f.= L p.d d s.i ",
"            # @ & o X           * @ @ @ @ o O                       X o .                   + @ & o .             .     ",
"- 1.5 5 p - 5 5 5   - 5 5 5 5 5 5 5 5 5 5 $ u 5 5 5 5 5 5 5 5 5 5 5 5 $ w 5 5 5 5 5 5 5 5 5 5 5 1 ..w 5 5 - - 5 5 - 5 5 ",
"5 5 5 5 5 5 5 5 k   - 5 5 5 5 5 5 5 5 5 d f Q 5 5 5 5 5 5 5 5 5 5 5 5 $ a 5 5 5 5 5 5 5 5 5 5 5 5 A w 5 5 5 5 5 5 5 5 5 ",
"5 5 5 5 5 5 5 5 K A p 5 5 5 5 5 5 5 5 5 5 $ $ 5 5 5 5 5 5 5 5 5 5 5 5 $ w 5 5 5 5 5 5 5 5 5 5 5 5 A w 5 5 5 5 5 5 1 z 5 ",
"5 5 5 5 5 5 1 y K f k 5 w w s 5 5 5 5 5 5 f n f y %.5 5 5 5 5 7 i 5 k f i %.5 5 5 5 5 5 5 5 g.K K Z o.$ 7 1 5 5 5 1 h.@ ",
"A A A J j.A f k.~ . [ A     X f f J A A A . l.& @ 8.m ^ f f A z.~ A [ . ~ x.J f c.A A A A A z.~ ~ . v.o b...A A A ..n.v.",
"w w w   | w f +.w C w w w w w f ) s C w w w 4 y y y y K > . w m.C w w w C S s f +.w C m.w w w C w w o.& +.w u.S w w | u ",
"5 5 5 - 5 5 $ u 5 5 5 5 5 5 5 $ u 5 5 5 5 5 5 5 5 5 5 5 d . 5 5 5 5 5 5 5 5 5 $ u 5 5 5 5 5 5 5 5 5 5 @ u 5 5 5 5 5 5 5 ",
"5 5 5 5 5 5 $ M.5 5 5 5 5 5 5 $ u 5 5 5 5 5 5 5 5 5 5 5 d o 5 5 5 5 5 5 5 5 5 $ J 5 5 5 5 5 5 5 5 5 5 &.u 5 5 5 5 5 5 5 ",
"5 5 5 5 5 5 $ d 5 5 5 5 5 5 5 $ u 1 5 5 5 5 5 5 5 5 5 5 d . 5 5 5 5 5 5 5 5 5 $ m 5 5 5 5 5 5 5 5 5 1 m o.5 5 5 5 5 5 5 ",
"$ $ $ $ $ $ o n $ $ $ $ $ $ $ o = & @ &.$ $ $ $ $ $ m & o o $ $ $ $ $ $ $ L & o = m $ $ $ $ $ m f g o o n m o > m @ &.$ ",
"u u +.. , +.u u +.O ] u u u u u u u N.B.= +.u u *.=.u u V.i f C.Z i i i i i i u u u i Z.o L i i i O.u u u u u u u n A.u ",
"5 5 - w p - 5 5 -   - 5 5 5 5 5 p a 3.S.# w 5 5 - p 5 5 5 5 5 A w 5 5 5 5 5 5 5 5 5 5 g.f a 5 5 5 5 5 5 5 5 5 5 5 $ d 5 ",
"5 5 5 5 5 5 5 5 5 . Y 5 5 5 5 5 5 - w p $ - 5 5 5 5 5 5 5 5 5 J s 5 5 5 5 5 5 5 5 5 5 5 $ s 5 5 5 5 5 5 5 5 5 5 5 $ d 5 ",
"5 5 5 5 5 5 5 5 z + < 5 5 5 5 5 5 5 z z $ 5 5 5 5 5 5 5 5 5 z D.p 5 5 5 5 5 5 5 5 5 5 t.&.7 5 5 5 5 5 5 5 5 5 5 5 $ m 1 ",
"5 5 5 5 5 5 5 %.i & V 1 5 5 5 5 5 1 i :.f d 5 5 5 5 5 5 d 1 i F.d 5 5 5 5 5 5 5 5 5 1 h.& m 7 1 5 5 5 5 5 5 5 z y f L 1 ",
". . o .           # @ @ @ q o & @ #                     X o o X                 O o .               # # q o o X         ",
"3 3 > | G.H.G.G.J.K.L.P.%.I.} U.1 6.w 1.- - - - - - - w : d X Y.w w - - - - w - T.> | - - - - - - - 6.6.e.g *.R.- - - - ",
"5 5 $ w E.W.Q.Q.!.~.^.Q./.4.A s 5 5 5 5 5 5 5 5 5 5 5 1 z 5   - 5 5 5 5 5 5 5 5 5 $ w 5 5 5 5 5 5 5 5 5 5 $ w 5 5 5 5 5 ",
"5 5 $ - 5 (.)._.`._._.E.`.5 $ s 5 5 5 5 5 5 5 5 5 5 5 - '.m   - 5 5 5 5 5 5 5 5 5 $ - 5 5 5 5 5 5 5 5 5 5 $ w 5 5 5 5 5 ",
"x j n k #.z 5 5 5 R ].d z e.g $ 5 z 5 5 5 5 5 5 5 5 z x [.B.X {.1 7 }.x 5 5 k d d > k z 5 5 5 5 5 5 5 1 r.g Y 5 5 5 5 5 ",
"& o o f &.m $ $ $ A } o m q o f $ m $ $ $ $ $ $ $ $ m & o o o ^ @ & q & $ $ f o o o f m $ $ $ $ $ $ $ @ = o f $ $ $ $ $ "
};
