/* XPM */
static char *result[] = {
/* columns rows colors chars-per-pixel */
"60 60 256 2 ",
"   c #010002",
".  c #090404",
"X  c #071A02",
"o  c #120E0C",
"O  c #250903",
"+  c #350B08",
"@  c #371606",
"#  c #2C160D",
"$  c #072301",
"%  c #082501",
"&  c #092C01",
"*  c #09290D",
"=  c #0C3301",
"-  c #0D3607",
";  c #173605",
":  c #143213",
">  c #2D3309",
",  c #00092D",
"<  c #010728",
"1  c #010A33",
"2  c #010B3B",
"3  c #090933",
"4  c #021D23",
"5  c #0F2E2A",
"6  c #252B27",
"7  c #2B332D",
"8  c #2D3834",
"9  c #323B34",
"0  c #373D37",
"q  c #34292E",
"w  c #2E162C",
"e  c #491507",
"r  c #591507",
"t  c #510F0A",
"y  c #770D04",
"u  c #6A1609",
"i  c #791808",
"p  c #71130D",
"a  c #552511",
"s  c #4D2C0E",
"d  c #722E11",
"f  c #53132C",
"g  c #4E312D",
"h  c #6D272C",
"j  c #661731",
"k  c #154F02",
"l  c #2B4D11",
"z  c #1A6901",
"x  c #0D4D30",
"c  c #3A433D",
"v  c #374238",
"b  c #304F2C",
"n  c #2F6531",
"m  c #266A1F",
"M  c #4B5313",
"N  c #734D12",
"B  c #4E4B37",
"V  c #6F5034",
"C  c #577027",
"Z  c #04184C",
"A  c #02255C",
"S  c #192E4A",
"D  c #32314E",
"F  c #032962",
"G  c #04326D",
"H  c #073470",
"J  c #291842",
"K  c #4D344D",
"L  c #3D4641",
"P  c #3E4943",
"I  c #364848",
"U  c #334C4C",
"Y  c #2C6350",
"T  c #424C46",
"R  c #474A48",
"E  c #48524C",
"W  c #55564A",
"Q  c #4B5554",
"!  c #545A56",
"~  c #514A4D",
"^  c #665647",
"/  c #6D5650",
"(  c #55625C",
")  c #58655C",
"_  c #527350",
"`  c #64655B",
"'  c #757658",
"]  c #726A54",
"[  c #51576D",
"{  c #5A6661",
"}  c #5D6965",
"|  c #536664",
" . c #5D7267",
".. c #49616F",
"X. c #687567",
"o. c #767D68",
"O. c #666D6A",
"+. c #851B0A",
"@. c #981D0B",
"#. c #871B13",
"$. c #8D190D",
"%. c #A11F0C",
"&. c #88220C",
"*. c #96270B",
"=. c #8C2412",
"-. c #982412",
";. c #863519",
":. c #96371A",
">. c #81300B",
",. c #A5210D",
"<. c #A9260F",
"1. c #AB2611",
"2. c #AD2A12",
"3. c #A52714",
"4. c #B42E15",
"5. c #B22913",
"6. c #A63615",
"7. c #B63116",
"8. c #B93217",
"9. c #BA3419",
"0. c #B83819",
"q. c #B0300B",
"w. c #983725",
"e. c #92342F",
"r. c #AF3525",
"t. c #C43A17",
"y. c #D43813",
"u. c #954615",
"i. c #904F17",
"p. c #8F492B",
"a. c #A34322",
"s. c #BB4A24",
"d. c #B3532F",
"f. c #A36025",
"g. c #CB4419",
"h. c #D64818",
"j. c #CF521B",
"k. c #EB591B",
"l. c #EB541A",
"z. c #C34D2A",
"x. c #C4532A",
"c. c #DA5925",
"v. c #C55435",
"b. c #DC622D",
"n. c #C96635",
"m. c #F36B31",
"M. c #F45724",
"N. c #954E4A",
"B. c #8F7150",
"V. c #AD6F46",
"C. c #8C7769",
"Z. c #B76D5D",
"A. c #CD7145",
"S. c #F97D44",
"D. c #569232",
"F. c #638C2C",
"G. c #60AF37",
"H. c #2D9155",
"J. c #4E8F54",
"K. c #6A8B4E",
"L. c #4EB054",
"P. c #6AB357",
"I. c #798569",
"U. c #708A6F",
"Y. c #5AA167",
"T. c #68C959",
"R. c #6BC756",
"E. c #73D466",
"W. c #6AD164",
"Q. c #5CC95D",
"!. c #DDAB38",
"~. c #958B53",
"^. c #AE9555",
"/. c #B4AA55",
"(. c #8E9071",
"). c #AE976E",
"_. c #94AA72",
"`. c #B7B77B",
"'. c #B0AA71",
"]. c #82AF5F",
"[. c #CE8B54",
"{. c #FE8248",
"}. c #DBB548",
"|. c #CDAC52",
" X c #E3BC52",
".X c #E0B950",
"XX c #D19471",
"oX c #D2B372",
"OX c #F6B46D",
"+X c #A1D36F",
"@X c #E8C659",
"#X c #E2D458",
"$X c #D6CB73",
"%X c #ECCC64",
"&X c #F0CE62",
"*X c #F6D56A",
"=X c #FAD96E",
"-X c #F5D367",
";X c #FCDD73",
":X c #EAD07C",
">X c #FFE077",
",X c #FFE37B",
"<X c #F1E47F",
"1X c #DDC850",
"2X c #AD8935",
"3X c #6C7A92",
"4X c #516991",
"5X c #3B5A89",
"6X c #827A89",
"7X c #7D8586",
"8X c #7C9BA8",
"9X c #76D68A",
"0X c #928F8F",
"qX c #B3B48C",
"wX c #9999A9",
"eX c #96A9B8",
"rX c #ADADAB",
"tX c #A99B9C",
"yX c #CCB78C",
"uX c #E4B68E",
"iX c #C7B7AD",
"pX c #BBC884",
"aX c #9EDC95",
"sX c #C8C887",
"dX c #D7D98A",
"fX c #D0D08E",
"gX c #E6D986",
"hX c #F9DE89",
"jX c #EECF95",
"kX c #FFE780",
"lX c #FFE984",
"zX c #FFEC8A",
"xX c #F7E78A",
"cX c #F6EA95",
"vX c #FFF395",
"bX c #FFF498",
"nX c #EAE88A",
"mX c #D8CDB8",
"MX c #EEDAA6",
"NX c #FAEDAC",
"BX c #FDF6BA",
"VX c #FFFABD",
"CX c #FFF6B4",
"ZX c #F3EDAD",
"AX c #DAE286",
"SX c #8FB2C9",
"DX c #ABBECA",
"FX c #ADC6D5",
"GX c #9DC3D6",
"HX c #D3D5D2",
"JX c #E8DCD3",
"KX c #FFFBC1",
"LX c #FFFCC9",
"PX c #E4E5DA",
"IX c #F5F2D3",
"UX c #FBF7ED",
/* pixels */
"}.!.}.}.}.}.@X1X@X@X@X@X&X&X-X-X*X*X=X=X;X;X>X>X>X>X,X,X,X,X>X>X,X,X,X;X;X>X>X=X=X=X*X*X-X-X%X#X~.~.).~.) ^.^.~.B.` K.!.",
"|.}.}.}.@X X@X X@X@X&X&X-X-X*X=X=X=X=X>X>X,X>X>X>X,X,X,X,X,X,X,X,X,X,X,X>X>X,X,X>X=X;X=X*X-X%X^./.).~.] (.C.|.^.).X.' /.",
"!.}.}.}..X@X@X@X@X&X-X-X-X*X=X=X;X>X>X>X,X,X,X,X,X,X,X,XzX,X,XzX,X,X,X,X,X,X,X,X,X,X>X=X=X=X|.^.%X/.C./.).(.|.^.C.) ` n ",
"}.}.1X X@X@X@X@X#X-X-X*X*X=X=X>X>X>X,X,X,X,XlX,X,XzXzX,X,X,XzX,XzX,XzXzX,X,X,X,X,X>X>X,X>X=X).-X-X/.^.@X@X X}.~.7 6 6 6 ",
"}..X X@X@X@X&X&X-X-X-X*X;X>X,X,X>X,X,XlXlXlX,XzXzXnXAXlXzXzXzX,XzXzX,X,XlXlXlX,X,X,X,X,X>X/.%X=X%X/.&X&X@X%X^.q 6 6 6 : ",
".X X1X@X@X@X&X&X-X*X=X;X;X>X,X,X,X,XlXlXlXlXlXzXnX$XU.sXnXzXzXzXzXzXzXzXzXlXlXlXzX,X,X,X$X$X;X-X'.%X*X-X-X}.B 7 6 6 6 6 ",
"1X X@X@X&X&X&X-X*X;X;X>X>X,X,X,XlXlXlXlXlXzXnXpX_.XX_ ).'._.nXnXzXzXzXzXzXlXzXzX,X,XzX<X'.,X,X$X'.=X=X=X*XV 7 7 7 6 6 6 ",
" X@X@X@X&X&X-X=X=X;X>X,X,X,X,X<XlXlXzXlXlXnX`.oX`.U. .U.`.:XoX(.pXcXzXzXzXzXzXzXzXzXzX'.<X,X:X'.>X>X=X=X|.v 9 7 7 7 6 6 ",
"_ /.@X#X&X*X*X=X;X>X,X,XnX$XaX`.AXzXlXxXqX'.hXdX(./.` ).'.`.vX<XoX_.qXnXvXzXzXzXzXlX`.$XzXlXoX$X,X,X>X$XB 9 9 8 8 7 6 6 ",
"7 9 ] /.$X*X=X<X$X_.I.P. .U I Q ( (.sX`.:XzXdX'.nXvXX.gXzXgX_.dXnXlXoX`.`.fXdX`.(._._.nXlX:X`.lX,X,XoXB c v v 9 8 8 7 7 ",
"7 7 9 b ! ~._.].Y 5 .       . 6 E Q X.<XzXAX`.nXzXxXo.gXvXzXxX`.qXAXcXcX:X'. .( ( | (.AXxX_.nXnXxX;X' c P c v v 0 7 7 7 ",
"7 9 9 v 9 W 8 <               . # v ) `.dX(.xXvXvXvXI.dXvXvXvXvXnX`.`.cXvX`.Q | ( Q Q  .U.K._ Y.aXP.W B T c c c 0 9 7 7 ",
"7 9 0 v 9 5 .                 . + + g | ) '.vXbXvXcXo.gXvXvXvXvXvXvXgXoXsXX.( ( ( ( E x - & : Y aX+XE.K.P P c c v 9 8 7 ",
"9 9 0 v v 3 O r p p p u u r . . O + # Q ( } (.sXdXfXo.dXbXvXvXbXbXvXvXcX`.) ( ( ( Q : & & & : b H.9X+XW.K.E P c c 0 9 8 ",
"9 9 0 c T h %.,.,.<.<.1.1.1.1.1.0.u + ~ ( { ) ) | { { (.cXvXbXbXbXvXvXvX(.( ( ) ( B = = & & x Q _ J.9X+XW._ B P c v 8 8 ",
"9 9 0 c ~ p $.+.*.,.<.1.1.2.2.4.7.0.+ g ( { { { { { { } fXbXbXbXbXbXvXsX} | ) ) ( : = = & & & & l ; Y 9XE._ T P c c 0 9 ",
"9 v c P g u r u r i 2.2.u r r t u 6.@ g { { { { { { { { o.dXbXbXbXbXnXo.} } { { ! ; = = = & & & b > k Y J.n b S L c v 9 ",
"0 v L P g u p p u r 2.2.i =.=.=.&.t.&.g { { { { { { { } { X.fXcXnXyXU.} { | { { ! : & % % & X : n n n b b n : 8 P L v v ",
"0 L P P J y p   r t 2.2.e u e . e 6.g.h { { { { } { } { | } } o.X.} { } { } { { ! * $ $ $ o # o > ; > X ; * b L P P c c ",
"c c P U h @.-.t *.u 3.-.i 2.=.t >.g.k.p.{ { } } { } } } } } } } } } } } { { { } ` a i.d d d d s.0.d d u.s.~ E R P P c c ",
"c L L T e.-.3.1.1.@.-.#.3.4.4.4.8.h.h.p.} } ` } } } } } } } } } } } } } { } } { V w.x.d d # s w.:.e @ d u.~ E E T P L c ",
"c L P T e.3.3.2.1.=.-.-.1.4.4.4.7.h.g.p.{ } } } } } } } } } } } } } } } } } { ` e.w.x.;.d.a :.w.:.:.a s.6.~ E E T T P c ",
"L P T E e.3.1.1.1.#.1.-.3.4.7.7.7.g.7./ { } } } } } } } O.} } } } } } } } } } ` f.w.v.x.z.s.:.p.;.a.s.v.j.~ E E E T P c ",
"L P T T ^ 3.1.1.2.#.1.-.3.7.7.8.7.8.k.c.] } } } } } } } } } } } } } } } } } } } / d s.x.x.z.d a.:.;.s.b.w.W E Q W W R c ",
"L P T T W e.2.2.2.#.i +.2.4.7.7.2.7.l.M.b.HX0X . .} } } } } } } } } } } } O.} } | # a.x.x.x.;.a a w.s.z.w E Q  .o.(.' ^ ",
"L P T T Q e.1.3.-.u g h -.5.7.7.-.3.t.h.m.LXIXiXtXX. .O.}  .O.} } } } } } } } } | 8 d d.s.h @ @ # e ;.:.D ! Q  .` ' Q U.",
"L R ' (. .~ w.-.@.g 6X[ +.3.7.7.-.6.8.t.x.KXLXUXUXuXB.` } O.} }  .} } } } } } } { ( # a.a.o a d d t # # | o._  .` ' E ' ",
"^ o.(.`  .Q N.-.#.$.=.=.#.3.7.2.-.7.8.8.9.oXLXLXjXm.M.b.n.]  .} } } O.} } } } } } { 9 @ a.o a.s.s.d . 5 Q | (.I.) ' E ' ",
"C. .o.`  .Q ! Z.#.-.r.3.#.2.2.-.8.8.9.8.8.A.LXLXuXg.h.k.M.b.B.` } } } } } } )  .{ { ^ # #   w.s.s.a # C.! Q ( X.` ' Q ' ",
"^ { ' `  .! XXVXZ.#.p #.#.=.=.8.8.9.9.9.t.XXLXLXv.9.0.t.t.l.M.V.X._ } } } ) _ n z : V.w.# . . . . # d./.Y.K. . .` ' Q ' ",
"/  .' ` N.w.0.zXZ.5.#.p -.5.7.8.7.9.9.8.8.A.LXLXz.9.9.0.9.t.y.k.j.i.6.u.N z z z - & F.hXf.s.w.d p.p.oX+XJ.E.E.W.Y.' E ' ",
"^ ) N.e.2.1.5.hXtX4.4.4.4.8.7.8.8.8.9.9.s.uXKXLXz.t.9.9.9.9.9.g.k.j.N m z z k ; - & - C nXOXA.A.OX:X`.Y.W.E.E.E.E.P._ K.",
"/ ] w.1.,.1.5.hXMXr.5.5.t.t.5.5.9.8.9.9.A.KXKXKXz.9.9.9.9.0.9.0.h.k.i.z k = = = = = & & C `.xXbXbX^.; x L.E.E.E.E.T.W.(.",
"/ N.,.,.,.1.5.hXIXuX5.t.5.5.5.t.4.8.9.8.uXKXLXKXv.9.9.9.9.9.9.t.0.g.k.i.k = ; = k = = = & = m M b & & & - L.E.E.T.T.P._ ",
"/ N.%.,.,.1.5.hXNXMXv.5.4.8.4.4.8.8.8.v.jXKXLXKXMXA.0.9.9.9.9.9.9.0.g.k.i.= - = = = = = & % & % $ & & & $ x W.E.D.L.T.K.",
"B.N.%.%.,.1.5.hXBXBXtX5.4.4.4.8.8.s.XXMXLXKXKXKXLXKXMXA.0.9.9.9.0.8.8.g.k.i.; = = = = = = = & & & & & & $ x W.E.D.L.Q.K.",
"` e.%.%.%.%.5.hXBXBXBXXXz.5.5.4.A.uXBXKXKXKXKXKXLXLXKXyXd 7.0.9.t.0.9.9.g.k.u.; = = = = = = & = & & & & & x W.W.D.L.T.F.",
"K e.%.%.%.1.5.hXCXBXKXVXKXIXBXBXVXVXBXKXKXKXKXKXKXKXKXLXB.r >.u.8.8.9.9.8.h.k.u.; = = = = = = & & & & & & x W.E.D.D.M > ",
"R e.@.%.%.%.5.hXCXBXBXBXBXKXKXBXKXKXKXKXKXKXKXKXKXKXKXKXfXs l M 6.0.8.9.8.8.t.k.u.; = = = = = & & & & & & x W.T.D.k X @ ",
"h $.@.%.%.1.5. XNXBXBXBXBXLXZXfXMXKXVXVXKXKXKXKXLXKXKXKXLXyXl k > 6.8.8.8.9.9.g.j.> = = = = & = & & & $ $ x W.W.D.& X e ",
"i @.@.%.@.@.-.p |.jXMXfXjXMXo.I.o.KXKXKXBXKXKXKXKXKXKXKXLXZXm k - s 6.8.8.8.8.8.0.s = & = & & = & & $ & $ x Q.W.D.X $ # ",
"+.r g 4X[ 4X3XD 3X8X..0X8X[ eXUXC.KXKXKXKXKXKXKXKXKXKXKXKXBX+Xk - ; N 8.8.8.8.7.q.> = = & = & & & & & $ & 5 Q.R.l 5 D.N ",
"+.d yXmXwXHXJX3XrXJXrXPXPXtXHXUX(.KXVXKXKXBXKXKXKXKXKXKXKXKXZXb - N 0.0.8.8.7.7.d ; = = = & & & & & & $ $ 5 Q.T.].+X1Xq.",
"i d yXiXtXmXJX3XPXPXeXHXHXrXFXUX(.VXVXVXVXKXKXKXBXKXKXKXKXKXBXI.M j.t.8.8.8.4.d ; ; = = & = & & & & & & $ H.Q.T.|.}.!.*.",
"u d $XHXeXiXuXwXZXPXwXmXHX0XIXIX(.VXVXKXVXKXKXVXKXKXKXBXKXBXKX^.h.8.q.8.8.8.>.& & = & & = & & & & $ $ $ * L.R.E.#X#X!.q.",
"r a ).HX4Xe oXFX5X@ O O + O e V B.oXcXBXVXVXVXVXKXVXKXKXMXuXm.l.t.q.8.8.4.^.; & = = & & & & & & & $ $ $ x Q.R.G.f.q.*.+.",
"r r i.N U.4X6XmXSX8X0XeX3XeXSX3XFXwXE NXVXVXVXVXVXVXNXuXm.M.y.9.4.4.4.8.[.AX& = & & & & & & & $ & $ & & H.Q.R.F.&.&.&.&.",
"y u u r yXiX8XjXiXSXiXJXrXPXiXB.PXrX! NXVXVXVXVXVXNXA.h.y.9.8.5.4.7.v.XXZX~.= & = & & & & & $ & $ $ $ - H.W.G.N &.&.+.i ",
"+.+.y e oXrXSXmXtXDXmXiX0XHXg s PXHX` NXVXVXVXCXoXz.h.y.4.4.5.5.0.oXNXbXZXC % % = & & & % & % % % % & x Q.R.G.d +.+.i &.",
"y +.+.e [.sX(.oX).(.[.yXC.).O e yXqX` CXCXBXBXoXh.l.4.-.3.4.r.N.XXOXOXOXOXl : & & = % % % % % % $ $ - x Q.Q.C d &.&.i i ",
"y $.y # [ [ I [ 4X..4XU Q 3X5X# + a sXCXCXCXNXd.y.5.-.-.3.e.K D A.{.{.{.{.[.A.V V B : * & % % % $ X X Y R.G.s e +.i i i ",
"y y t V.yXSXyXtXGXuXHXtXiXmXFX+ + e oXCXCXCXuXl.3.#.5.j D H H H N.c.b.b.b.m.m.{.S.S.{.A.V.b v > * X X x Q.G.@ @ i i i i ",
"y y e B.HXSXyXtXeX^.tXGXiXrXGX+ @ q yXuXsXyXoX5.$.%.#.J H H G A D s.s.s.s.j.x.c.c.b.m.m.m.m.m.m.A.f.b n G.F.> O u i i u ",
"y u r |.iXSXXXC.B B.qXDX).mXSX+ + i.dXfXyXyXXX#.$.$.f Z H H G A S w.u r r r j h w.z.g.g.c.c.c.k.M.M.M.m.f.N O O e y y u ",
"K j f a.V./ V Q S g B.] / N.Q q @ V `.'.qX'.qX(.f J Z Z G G G A A 3       . 2 2 3 f :.6.0.0.q.6.0.g.h.h.M.M.u O t y p y ",
"g g g D R U ^ O.I ~ ! ~ ( E ....~ / V.N./ p.a.d.3 2 Z Z F G G A Z <         2 1 1 3 w ;.6.6.6.6.:.-.<.6.t.l.h.r + t t t ",
"g g B ~ W R ^ D I R Q ~ _ ^ ..o.~ O./ ! | f f f 3 2 2 2 Z F F F A 2     . < , 1 , 1 , e d u >.*.*.*.*.&.*.q.l.t.r r u r ",
"q g B g R R ~ g U B W / W ^ E U.! ! ^ Q ~ Z 3 3 , Z 2 2 2 Z F F F Z     . , , 1 , , , , X X o @ @ @ e +.&.&.q.y.9.u f t ",
"q q 9 D B V M s > e s s s s s V ` Q ~ [ R 2 , 1 , 2 2 2 2 2 A F A Z     < < , < < < , < 4 5 4 X X X X O i &.&.q.y.4.t . ",
"q 0 B s r r t O O O O O O O O J K K ] ` Q < , , , 1 , 1 1 2 A A A Z         . < < < < < 5 +XJ.H.x 4 4 4 @ +.i +.,.t.y.# "
};
