/* XPM */
static char *result[] = {
/* columns rows colors chars-per-pixel */
"60 60 240 2 ",
"   c #050608",
".  c #111417",
"X  c #042B1D",
"o  c #052719",
"O  c #15251C",
"+  c #052E22",
"@  c #082E26",
"#  c #1B262A",
"$  c #063124",
"%  c #093525",
"&  c #09362B",
"*  c #0B3A2C",
"=  c #073428",
"-  c #0E3E32",
";  c #123E35",
":  c #183635",
">  c #133530",
",  c #23343D",
"<  c #2C2E2F",
"1  c #2A2422",
"2  c #473B2D",
"3  c #6D3F1B",
"4  c #0F422F",
"5  c #0F4131",
"6  c #114434",
"7  c #134935",
"8  c #13433A",
"9  c #154C3B",
"0  c #1B493D",
"q  c #19523E",
"w  c #17503D",
"e  c #10432F",
"r  c #3D413C",
"t  c #46453B",
"y  c #714A28",
"u  c #273D45",
"i  c #164B41",
"p  c #1A4C44",
"a  c #1B4A47",
"s  c #1B5443",
"d  c #1B534C",
"f  c #1D5B4C",
"g  c #1A5544",
"h  c #1D5651",
"j  c #1F5A51",
"k  c #1C4D5E",
"l  c #2D434C",
"z  c #244945",
"x  c #35484D",
"c  c #23554B",
"v  c #235C4D",
"b  c #28554A",
"n  c #32534D",
"m  c #2E4451",
"M  c #334553",
"N  c #344A55",
"B  c #364C5B",
"V  c #394D5D",
"C  c #3C4A55",
"Z  c #225652",
"A  c #245B54",
"S  c #2A5C55",
"D  c #2B5E59",
"F  c #285B5A",
"G  c #375759",
"H  c #256152",
"J  c #2C6255",
"K  c #2D635B",
"L  c #2A655B",
"P  c #33645C",
"I  c #3B655D",
"U  c #36665C",
"Y  c #22604F",
"T  c #394F61",
"R  c #374F60",
"E  c #375161",
"W  c #3B5264",
"Q  c #3E5569",
"!  c #3F5E60",
"~  c #2C5A75",
"^  c #335F7A",
"/  c #356662",
"(  c #3A6561",
")  c #366A64",
"_  c #3B6B64",
"`  c #3D6D6A",
"'  c #356769",
"]  c #3E7169",
"[  c #3D7166",
"{  c #396875",
"}  c #2E6361",
"|  c #484C4B",
" . c #464E57",
".. c #46585C",
"X. c #545453",
"o. c #5C5C59",
"O. c #50524B",
"+. c #43645E",
"@. c #44675F",
"#. c #59625E",
"$. c #67685E",
"%. c #66705F",
"&. c #435564",
"*. c #41576A",
"=. c #43596B",
"-. c #4A5B6B",
";. c #4A5864",
":. c #545D68",
">. c #485E70",
",. c #446562",
"<. c #4A6662",
"1. c #436A62",
"2. c #4C6B65",
"3. c #426D6B",
"4. c #4D696B",
"5. c #516C66",
"6. c #526D6A",
"7. c #586868",
"8. c #427266",
"9. c #44746B",
"0. c #4C736A",
"q. c #4D7167",
"w. c #53716A",
"e. c #486B73",
"r. c #5A6975",
"t. c #457571",
"y. c #4A7678",
"u. c #567579",
"i. c #666867",
"p. c #676C77",
"a. c #687478",
"s. c #77777A",
"d. c #72706C",
"f. c #894C15",
"g. c #8E511A",
"h. c #92541A",
"j. c #945A26",
"k. c #8D5A30",
"l. c #986539",
"z. c #A16C3F",
"x. c #986A48",
"c. c #A57858",
"v. c #A16F46",
"b. c #A37B67",
"n. c #817F7F",
"m. c #8C8A79",
"M. c #AC836D",
"N. c #3B6682",
"B. c #446E89",
"V. c #4A748B",
"C. c #4A7684",
"Z. c #577987",
"A. c #557990",
"S. c #697786",
"D. c #7A7C85",
"F. c #7B7E89",
"G. c #747A87",
"H. c #6B7A93",
"J. c #827C86",
"K. c #5B8189",
"L. c #5B8394",
"P. c #5C8297",
"I. c #7D828D",
"U. c #798287",
"Y. c #688998",
"T. c #788798",
"R. c #6C858C",
"E. c #7987A6",
"W. c #7392A4",
"Q. c #81828D",
"!. c #89828D",
"~. c #878782",
"^. c #838692",
"/. c #858995",
"(. c #898B96",
"). c #848B9A",
"_. c #8A8D9A",
"`. c #8E909E",
"'. c #81939C",
"]. c #97978D",
"[. c #AC8C83",
"{. c #AD9791",
"}. c #B4AD93",
"|. c #848EA7",
" X c #8D92A2",
".X c #8894AA",
"XX c #9699AA",
"oX c #858BB7",
"OX c #8B94B7",
"+X c #949BBC",
"@X c #979BB6",
"#X c #AE9EA2",
"$X c #9BA2BA",
"%X c #85A2B6",
"&X c #A4A3B5",
"*X c #A4A4BA",
"=X c #AAA8BC",
"-X c #B8A8BB",
";X c #B2A5B1",
":X c #9BA08B",
">X c #C3BA9E",
",X c #8F95C3",
"<X c #959AC3",
"1X c #8B8EC1",
"2X c #9CA3C5",
"3X c #9BB5D4",
"4X c #9CB8D9",
"5X c #95B1CE",
"6X c #ADADC3",
"7X c #A6A8C8",
"8X c #B3ACC3",
"9X c #B7AEC8",
"0X c #ABB1C9",
"qX c #B5B5CB",
"wX c #BBB6CB",
"eX c #BCB9CE",
"rX c #B4B3C8",
"tX c #A3BCDD",
"yX c #A8B8D8",
"uX c #BCBBD2",
"iX c #BABBD8",
"pX c #A2BEE1",
"aX c #A9BFE0",
"sX c #C1B7CD",
"dX c #C3BDD3",
"fX c #C1BFDD",
"gX c #B0C1DD",
"hX c #A5C2E3",
"jX c #ABC4E4",
"kX c #ADC8E8",
"lX c #B5C6E4",
"zX c #C5C0D6",
"xX c #C4C3DB",
"cX c #C9C6DC",
"vX c #CAC8DF",
"bX c #C5C5E3",
"nX c #C8C7E5",
"mX c #CBCAE4",
"MX c #C9CBE6",
"NX c #D0CEE7",
/* pixels */
"X.O.o.X.X.o.o..._ ` F D _ A D D A Z A Z D K F S S A L L L L Y Y f j H H H f H Y H L y.V.N.P.P.L.C.H g 8 5 8 i i - 5 6 & ",
"| X.o.$.o.o.5.G K t./ A ' D A A A A D D D L D D J H L L H H f f j f H H Y f Y f v Z ) { C.L.P.P.V.' i i 9 * - = - & & * ",
"O.X.$.i.:.<.,.K D S D D / S L D D S D P / K L S K L L L L H f g v v Y H f Y f H v d A ' K.L.P.B.V.A.' i i - = = + & + + ",
"| X.o.i.d.<.1./ D Z D D S A Z F D D D P P D L S J K U L L H H j s Y Y L H Y Y H Y A d ) ] L.P.B.W.W.P.' d - = + X + = X ",
" .O.X.s.a.1._ D D Z A S D D K P P S S U P P S K K L L ) L L L } z S Y U H Y Y Y Y L s s P u.P.V.W.W.P.L.{ 8 5 = o o X o ",
"..X.$.w.+.P D F A A Z S / P U U S J J P D P P P ) P / ] ` ` ] ) 0 b H J Y Y Y H J v v 9 f ` V.N.N.P.A.B.V.C.F - + X o o ",
"4.X.o...A S S F A S D A D G P J J J P P U ( ,._ U I U ] ] 8.] P 0 b b G S H L A v z 0 i g H ` { V.P.B.N.V.P.C.a 8 ; & + ",
"4. .| 7./ D F S A A Z D D K P P J U U U U n G @.I I _ 8.9.[ _ : > 0 z z n b P z z V n 9 i g j ' ] { N.B.W.Y.A.S Z F ' a ",
"G ! 4.3.} } D A F Z v A K K P P U I I _ 7.s...N n b I 8.0.n l W Q W B N u u M R T &.G g g f h F { { N.N.W.Y.L.y.{ ~ ^ { ",
"Z Z } } j } L A A j c A J P P U @.@.8.1.r.!.!.:.=.V B G N l N E *.W W M # # T *.W ;.+.g q s d A ) ' N.^ P.Y.N.C.~ ^ K.L.",
"F d F A A j A j d f A K P I I @.@.8.2.q.7.!.!.F.;.=.*.*.M , , l W Q T # . . B &.T r.n g g q p 9 d j ] ~ ~ A.V.C.~ V.L.K.",
"Z h d d d h j Z v A P ( ( I _ 1.@.@.q.q.7.~.!.!.a.&.Q Q u     # T Q V   , < u *.V p.z s s 9 9 9 6 5 i ' K.C.y.C.~ N.C.L.",
"k i d k d H S L S P _ _ I I I 1.@.8.5.q.#.s.!.!.J.-.*.Q u < |    .V ,   $. .M W  .i.n c w w 7 6 7 9 8 d j F ' { ~ ~ P.W.",
"h h A A j A K P J U I I 1.I ,.1.8.2.5.w.5.p.!.!.J.r.*.*.u  .{.2 # u #   :Xi.&.W T ..A v b q w 9 9 6 9 9 f A A } L k { { ",
"Z h h h j L P P I I I I 1.1.2.,.@.5.q.q.6.7.J.J.J.S.&.*.&.-.}.].  . . . >Xn.W B  .x v S J v c 7 9 7 g w i g f H j j h d ",
"F h h h F / P I @._ I _ I q.2.2.q.q.w.w.6.7.d.J.J.D.&.*.*.-.}.}.t   1 t }.m. .W V n v S J H q w 9 7 i g g f f g g g 9 i ",
"Z d h A S U I U @.@.I I +.1.,.1.2.5.q.w.w.w.#.s.d.p.&.*.*.=.{.:X$.< X.%.$.:XC B V M b v v v b w q q g g f g q g w w 7 e ",
"Z Z Z Z I U I @.U I G I I ,.+.1.2.q.q.5.w.w.#.d.J.:.*.*.*.-.m.d.O.F.^.~.O m. .B T N : c b S v w g q q g g Y q g w e 7 e ",
"F h c S n U P @.I I +.I +.1.,.1.5.5.@.@.@.+.G  .o. .=.=.=.-.m.O.t F.`.~.O m.| B T T , 0 w q v s q q q q q g q q 7 e e % ",
"F A Z c b U G P I @.@.G @.<.2.2.6.w.w.w.q.#.@.7.o. .r.*.;.7.s.%.< n. X~.< d.C ..C  .:.z c s s v Y q q q q q q q 7 e e X ",
"' ' G Z S S n S +.@.+.+.<.<.5.2.w.w.w.w.5.6.5.XXmXMXNXXXG.;.i.].X.a.^.p.].i. ...XXuXzX_.l z a v q w 7 q q q q q 7 7 % % ",
"' ' G Z A S J U I @.+.@.5.5.5.5.w.u.6.<.+.+.@.$XqXqXzXlXmX6Xa.n.&X .O 1  .=XI.uXdX9X=X*XG.u : ; 7 7 e w w w q w 7 7 4 % ",
"e.' ' Z S n G I @.<.7.5.5.5.5.5.5.+.@.5.7.5.w.uX0X&XeX6X$XXX*XuXzXF.1 < XXzXrX&XXX8X8XsXXXT T u 7 w w w w 7 w 7 7 e % % ",
"H.C.e.! G G +.+.+.<.@.<.5.5.@.2.5.5.5.5.2.@...qXuXXXn.(.6XqXqXqXqXmXqXsXvX=X&X&XXXXX X&X).u C u q q q w 7 7 7 7 7 e % % ",
"+XE.u.4.=.&.@.@.@.<.<.2.2.5.@.5.w.q.q.q.q.n W F.0XeXgXsXwX-X=XrXqXxXrX-XgXeXwX;XrXzXdXwXG.M u : w q q w w 7 e e 4 4 $ % ",
"<X1XE.S.e.<.,.,.,.<.<.2.w.2.w.q.w.w.0.q.1.b W -..XxXNXNXNXmXvXgXuXrX&X&XwXwXdXcXzXzXdX=X;.C B z w 7 7 7 w e e 7 4 4 $ $ ",
"<X,XOXH.Z.w.3.3.2.2.8.2.q.w.w.0.0.0.0.8.9.G =.Q =.S.iXMXmXmXNXNXvXeXqXrXrXcXcXcXzXdX6XXXXX XG.C q q w 7 7 4 e e 4 4 % % ",
"<X<X<X|.K.u.y.e.1.q.8.@.1.8.0.9.9.9.8.9.8.P Q W Q =.S.vXmXmXmXNXNXvXcXvXcXvXvXcXdX*XwXdXdXdXzX-X%.q 7 w 7 4 4 e % 4 X X ",
"<X<X2X@XK.S.y.t.9.[ ` ` 8.9.9.0.9.0.9.8.8._ G Q Q =.=.XXNXvXmXNXmXmXmXmXcXcXcXcX8XrXdXdXzXzXdXzXqXa.9 9 7 4 % 4 % = + X ",
"<X7X7X7X|.T.Z.t.9.] ` ] 8.9.9.9.9.9.8.8.[ 8.N Q Q W Q =.&XvXmXmXmXmXmXvXmXmXcXdX=XzXzXzXdXdXdXdXeXrX6.9 7 4 % 4 = % X X ",
"2X7X0X7X.X|.L.y.9.[ 9.9.9.9.9.9.9.9.8.[ [ 1.G Q Q Q Q &.&. XeXqXxXMXmXmXmXcXzXrXdXcXzXdXdXdXdXdXeX&XXXc 5 4 % 4 = $ + X ",
"7X8X7X2X@X.XR.u.t.[ 9.9.9.9.9.9.9.9.8.8.1.3.w.! W Q Q W &.D.wXgX6X=X*XdXcXrXXXzXzXzXzXdXdXdXsXdXsXwX&X( 5 4 % $ % $ $ X ",
"7X9X7X<XXX7X@XT.K.] 9.t.9.t.9.9.9.8.9.8.8.'.lXu.&.Q W E Q r.mXnXvX=XI.r.S.-.|.dXdXfXdXdXdXdXdXdXeXeX=X6.7 ; * $ + $ + X ",
"7X7X7X<X7X0X.X|.W.y.9.t.t.t.9.9.8._ 8.8.w.eXMXT.=.Q Q W W *.$XMX$XZ.*.*.&.u G.dXdXdXdXfXdXdXdXdX-XeX=Xu.6 - * $ + X X X ",
"7X7X<X7XrX@X.X X.XK.t.t.t.t.t.t.` [ 8.8.R.xXNX0X=.Q W ! &.&.G.gX.X=.W W T T *. XsXsXdXdXdXdXdXdXrX8XrXa.6 - * $ $ X X X ",
"7X7X$X8X<XOX@X@X.XK.t.t.t.t.9.9._ 8.8.8.R.vXNXMXT.Q Q Q W W *.OXZ.W W T R T &. .r.`.dXdXdXsXdXsX=X=X7Xr.- ; * $ X X X o ",
"7X<X7X7X+XOX*X&XW.y.t.t.t.9.9.[ _ 8.[ 8.R.xXmXMX7X4.Q Q W W Q e.>.T W T T T T V V &.XXdXdXsXsXsX8X*XF.; - - & = X X o o ",
"7X2X8X<XOX*X7XXXK.u.t.t.t.9.) U [ ] 8.8.a.xXNXmXbXS.Q Q W W E E B T T W T T T T B V ;.=XsXdXdXsX*XS.W 8 ; - & = X X X X ",
"@X7X7X,X<X7X$XE..XXXW.0.t.] U U 1.9.9.8.w.qXMXMXmX@XQ Q Q Q E E T u W W T T T B V B V ;.@XuXsXwXZ.; i i ; ; & = $ X X X ",
"+X2XOX+X2X$X@X$XW.T.T.K.] [ U ) [ ] [ 8.9.XXxXxXmXxXS.Q W E E E T R u *.R R T R V C B C l =.r.*.; i ; - - 8 & = $ X X X ",
"+X,X,X2X2X+X$XE..X).T.K.[ ) ) ) [ ` ) [ ] K.T.uXMXmX7X3.W W T E W W T u V T V T V B  .u , z a i 8 i - 8 - - & & $ + + + ",
"+X,X+X<X$X$XoX|.|.|.E.K.8.) ) _ ) [ [ [ 8.@.q.XXvXMXxXS.W W E E W W W &.u M V V V M u u u a i a i i 8 - i - & & & $ + @ ",
"OXoXOXOXOXOXOX@X$X@XT.y.` ) ) ( ) ` ) [ 8.[ 1.6.uXMXqXu.N E E E W W T T =.G.:.V C M u u l a a a i i 8 8 - - & & * & + @ ",
"E.E.E.E.E.oXOX$X&X@XY.Z.y.] ` ) ) ) ] ] [ _ _ _ u.R.w.I P m B W W T T &.G. X/.D.p.p.S.V m u d p i 8 8 i i - - & - & + @ ",
"aX5X,X+XOXOX@X@XOX|.E.E.Z.' 3.' ) ) ] ] ` ) U [ I _ ) U ( B l N R T T S.(.`.(./.(././.:.N u z a i i 8 8 ; - & & & $ $ + ",
"lXkXlXkXlXyX0X<XoXE.H.H.A.3.' ( ) ) ) ] ) ) ) _ _ U ) / / E E B B u S.(.`.`.`.(._.(./.G.B N u a i 8 ; ; ; - & = + + + + ",
"lXkXkXkXgXjXjXlXjXyX5XOXE.u.e.` _ [ ] ) ) ) ) ) I ) ( ) ' B E Q T ;.). X X`._._.(./.!./.;.B u i i - ; 8 i & = + + + X o ",
"lXjXkXhXjXjXjXkXkXjXjXkXhXtX3X%XK.) ) ) ` ) U ) U I ( ( ' E E E W S. X_. X_._._.(.(././.p.B u > i i ; ; ; & + + + + + o ",
"jXjXjXjXjXjXjXkXkXhXkXkXkXkXkXaXjXyXW.H.Z.t.` _ U _ _ ` _ G W E W H. X`.`.`.(.(.(./././.G.C u : i ; - - - * = + @ @ @ + ",
"jXjXjXjXjXhXjXjXhXkXkXkXkXkXkXkXhXhXpX<X1X<X|.Y.L.Z.8.3.' B E W *.H. X X`.`.(.(._./././.J.:.M , 8 ; - * & & + X . # O # ",
"gXhXhXhXhXhXhXhXkXhXhXkXkXkXkXkXkXhXkXaX,X,X,X<XpXtX3XOXu.B W E &.^._._. X_._.(.(././.^./.a.C u ; > > ; z | 2 y y k.k.l.",
"hXhXhXhXhXhXhXhXhXkXhXhXhXkXhXhXkXhXjXjXpX1X1X1X<XaXaX4XY.N W E -.|. X_._._._._././.^.^.^.F.&.M S.*X7X9X-Xx.l.j.h.j.l.#X",
"hX4XpXpXtXhXhXhXpXjXpXhXjXpXhXhXaXkXaXkXaX,XoXJ.1XyXaXpXL.N E E >.)._.'._._.(././.I.^.^.I.I.:.N S.sXsXsXM.h.h.h.h.k.J.9X",
"hXpXpXpXhXhXpX4XpXpXpXpXpXjXpXpXaXaXaXaXaXpX1X1XoX,XaXaXH.B W E 4.)._.(._._.(././.^.^.^.^.I.p.M :.9XsX[.j.g.h.h.k.b.-X-X",
"tXtXpXpXpXpX4XpX4XpXpXpXpXpXaXaXaXaXaXaXaXaXpX2X7XyXlXbXT.G W B r./.).(.(._././.^.^.^.^.I.^.p.M C XX{.j.h.f.g.h.b.-X-X&X",
"tXpXpXtX4X4XhX4XyXyXyXyX0XaXiXlXkXnXaXnXnXnXnXnXMXMXnXnXT.B W B S.).).(.(./.^.^.^.^.^.I.I.J.s. .u $.j.h.f.f.g.b.-X9X7X-X",
"tXpX4X4X3X3X=X}.#X{.[.[.M.#XdXmXnXnXnXnXnXnXnXnXnXnXnXnX|.B B W G.T.).(./.^.^.^.^.^.I.U.F.F.G.:.u 2 f.f.f.f.b.-X9X9X7X-X",
"tXtXpX3X3X3XgX{.c.M.b.c.M.M.{.dXnXnXnXnXnXnXnXnXnXnXnXiXE.R T &.G./.)././.^.^.T.I.I.F.F.D.F.D.r.C 2 f.f.f.c.-X9X9X9X7X&X",
"pX4X3X3X5X3XgXgX{.v.v.v.v.c.c.[.sXbXnXbXnXnXnXnXbXbXnXiXS.T T *.G.^.T.^./.^.I.I.I.F.F.F.F.F.G.p.u 2 3 f.l.;X9X9X9X-X;X&X",
"3X3X5X5X5X*XgXgXeX;Xv.l.l.j.v.z.c.9XbXiXfXfXfXfXiXbXiXiX&.R R >.T.I.I.I.I.I.I.U.F.F.F.F.D.D.D.a.u 1 3 l.;X-X9X9X7X*X&X&X"
};
