/* XPM */
static char *result[] = {
/* columns rows colors chars-per-pixel */
"60 60 5 1 ",
"  c #040404",
". c gray2",
"X c #060606",
"o c gray1",
"O c #070707",
/* pixels */
" .  .  ...    .  .X..  .  ...  .. ..   .  . .. X  .    .X...",
"...X..XX.X....X.X..XX.X.XXX.....XX.X.X...X. XX.X....XXX...XX",
".  ..... ..    . . .....    ... ..X. ... ... . ...   ... .. ",
"X..X..X...............XXX...X.X...X..XXX.XX..X.........X....",
"........... ... .... .X. . ................X... . .... ... .",
".X.X......X....X.XXX....X.XX.XX....X..XX.XX....XX....X..X.X.",
"  X X.  ....  . ..X...X X...... ...... ..... .....  . ......",
"X........X.X....XX........XXX......X.XX.....X....X.....X....",
".....X.. ... ....X.......X.. ...... .......X....X......XX.. ",
"....... ..X......... . ....... ....  ......... .X...........",
"..X.XX....X..........X.X.XX. X..........XXXXX...X.........X.",
". .     ... .. .X ..... ....   ...X. .... o   . X ..  ....X ",
" ...X..XXXXX .XX.XXX.X.X..XX.X...X.X .. ..X..XXXOX. XX.X..X.",
"...X.X     ...     ..  ....... .. ...... X.X.     ... .  ...",
".XX.X.....X..X..........X..X.....XXO.X..X......XXX.....X....",
". .....  . ...    ...... .  ...  ......  ....  .. ...    ...",
"..X.X........X.X.X..XXX.X.XX.........X..X..X.....X...X.X..XX",
" .   .   ....  .   X  .  .... ...   .  .   .  . ...   .  X  ",
".X.XX.XX.XX.........XX X....XX...XXX.....XX.....O.X.X.....XX",
"............   .. . . X ... . .. ... . ...X........  .. ... ",
"XX..XXX..XXX........X.X....XXX.....X.X.X...XX...X..........X",
"..... .. ...... .... .  ... ... ...X........ .. .. ....... .",
"X........X....XX.  ..X.XX.XXX..... ..XX....X...X.....X.  ..X",
"........... X.. ... ..X  X.. .. .X.................X. ..X. .",
"...............X...........X. .......XX........ ......X.....",
" ..X.. .... ..........X...X..............X.................X",
". .. ....X...X... ..... ..... . .......  .  ...X.X.X.. ....X",
".......X.XX............X.........X...........X..O...........",
". . .. .... ...  ....  . . .X.. ...... .  .. . .. . .  .....",
"XX........XX...XX..XX.....XX.XX.X....XXXX.....X.XXX...X..XX.",
".  ..  .    .. ..    . X...      ..  ..  ...     . .  .     ",
"...X.X....X.X...X..X..X.X......X.X..X ....XX....XXX.........",
"      .   .... . ..   . . .    .. ..        .   .... . ..   ",
"......X...XXX..X...X...X.X.X..XX..........X.....XXXX.X.X.XX.",
".    ..   .........  ..  ....X . .   .X    ..   . . . ...   ",
".X.......X.....X..XXXX.XX.XXX.X.XX.XXX..X.......X....XX.XXXO",
"...  . ...  .... .  ..X X.... .  .o...X.. .. ...........  ..",
"X...X....XXX. ...O................X.XX.........XX.. ...OX...",
".........X. .... .. ......X................... X. .. .......",
".. ....... . .. ..XX................ ... .X .. .. ......XXX.",
".........X... XX...X..X.........X............X X.....X....X.",
"X. X. .  .... ....  ........X X ..X..X.. .X...  .... ...  ..",
"XX.X.X.X......X..X....XX.X.X.XX..XX.X.XX.X.X.XX ..X....X....",
".X......... .... ...  .............. ............ ......... ",
"..X.X...X.XX..X...X.X.X.XX.X....X...X...X.XX...X.X..X...X.X.",
". . . .  ...    X.. . . .....     .....   . .  ...    ..... ",
".X...XXX.X.X..X..O.X.X.X.XXX.X.XXX.XXXXX.X.XXX..XXX.XX.XXXX.",
"    ..   ..  . ....      . .   ....  .     .    X     ...   ",
".XOXXXX.X.X.XXX...XX.X.XXXX..XXX.....XXXXXXXXX.XX.XXX....XX.",
".   o   ..X    .. .  .  ....   ...X.      o . ..X.   ...  . ",
"....X...X... XXXX.XXX.XXX....XX.XX.X....X.XX.X..X...XXX.XXX.",
".. ... ..... ......... ....... ..... .. .. ........ .... ...",
".X.XXX....X.X. .........X....X...XXX.X..XXXX...X.XXX.....X.X",
". . .... ... X...  . ...    ...  ..X X... .... ......... ...",
". X..................X..X.X....XX.. .......................X",
"...... ........... X. X...... ... .......... ....X...... X..",
"...X......X .......... ...................X.....X.X ........",
"...XX......X........X.......X....X.X......X......X..........",
"..  XX.  ... .... ... X ... .... ..... .. .X... X  . .. ....",
"XXXXX.XX.XXX..X.X....... .XX....X..XXX.X.X...X..XX..X.X....."
};
