/* XPM */
static char *result[] = {
/* columns rows colors chars-per-pixel */
"60 60 234 2 ",
"   c #02000D",
".  c #030014",
"X  c #05001C",
"o  c #08001E",
"O  c #060023",
"+  c #0A0124",
"@  c #070029",
"#  c #0B012B",
"$  c #110126",
"%  c #12012C",
"&  c #1A022E",
"*  c #0D0133",
"=  c #0E0139",
"-  c #120135",
";  c #1B0234",
":  c #13013C",
">  c #1B023C",
",  c #210236",
"<  c #22023B",
"1  c #28033E",
"2  c #150243",
"3  c #1A0344",
"4  c #170348",
"5  c #1B034B",
"6  c #1D0453",
"7  c #230444",
"8  c #2B0344",
"9  c #23044C",
"0  c #2A044D",
"q  c #33044C",
"w  c #37044B",
"e  c #230553",
"r  c #2B0654",
"t  c #24065B",
"y  c #2B065B",
"u  c #26095C",
"i  c #2C085E",
"p  c #2E0856",
"a  c #330654",
"s  c #3B0654",
"d  c #32075B",
"f  c #34085D",
"g  c #3C095C",
"h  c #3D075B",
"j  c #250761",
"k  c #2B0761",
"l  c #260862",
"z  c #2C0964",
"x  c #2D0B6A",
"c  c #330964",
"v  c #3B0A64",
"b  c #330C6C",
"n  c #3C0C6B",
"m  c #300760",
"M  c #340E73",
"N  c #3B0E74",
"B  c #3B0E7B",
"V  c #370F79",
"C  c #3C107C",
"Z  c #37107A",
"A  c #430659",
"S  c #430B65",
"D  c #430D6B",
"F  c #4A0C6B",
"G  c #4B0863",
"H  c #53096B",
"J  c #440E73",
"K  c #4B0F74",
"L  c #480D7B",
"P  c #530E74",
"I  c #590E7E",
"U  c #4B1076",
"Y  c #43117C",
"T  c #4D117C",
"R  c #54117A",
"E  c #5B127D",
"W  c #511076",
"Q  c #660B79",
"!  c #61076D",
"~  c #3E1281",
"^  c #3C0982",
"/  c #470E86",
"(  c #441384",
")  c #4B1385",
"_  c #461589",
"`  c #4B158C",
"'  c #541383",
"]  c #5C1483",
"[  c #52148D",
"{  c #5B158D",
"}  c #490A96",
"|  c #541593",
" . c #59199D",
".. c #571699",
"X. c #540F8A",
"o. c #660E88",
"O. c #780D87",
"+. c #631586",
"@. c #621789",
"#. c #69158A",
"$. c #76118D",
"%. c #690C97",
"&. c #6C1A94",
"*. c #641799",
"=. c #781797",
"-. c #7C0C9F",
";. c #5B15A3",
":. c #5E0FAB",
">. c #670FAA",
",. c #6C14AD",
"<. c #671AA9",
"1. c #7B13A5",
"2. c #7A14AC",
"3. c #7B1BAB",
"4. c #7717A8",
"5. c #6917B6",
"6. c #7718B6",
"7. c #610FB7",
"8. c #7C23AD",
"9. c #6E24B4",
"0. c #7E25B4",
"q. c #7C2DBC",
"w. c #7526B8",
"e. c #741AC1",
"r. c #7118CF",
"t. c #7B22C4",
"y. c #7620C2",
"u. c #7F31C1",
"i. c #7E25DC",
"p. c #86129B",
"a. c #8C0B94",
"s. c #8514AA",
"d. c #841CAC",
"f. c #8B1CAA",
"g. c #8917A6",
"h. c #9513A3",
"j. c #9716AB",
"k. c #8B1BB1",
"l. c #8716B8",
"z. c #9919B4",
"x. c #8F0DAA",
"c. c #A511AC",
"v. c #A61BBA",
"b. c #AE10AC",
"n. c #8B23AC",
"m. c #9224AF",
"M. c #8225B3",
"N. c #832AB5",
"B. c #8C2BB7",
"V. c #8424BB",
"C. c #832DBA",
"Z. c #8B2BBB",
"A. c #8C25B4",
"S. c #9224B2",
"D. c #932BB4",
"F. c #932DBA",
"G. c #9A28BD",
"H. c #8431BE",
"J. c #8B31BC",
"K. c #9432BC",
"L. c #9934BE",
"P. c #A421BE",
"I. c #9A18C8",
"U. c #881CD2",
"Y. c #8817C3",
"T. c #A61BC8",
"R. c #B91AC4",
"E. c #832DC2",
"W. c #8927C7",
"Q. c #9226C8",
"!. c #8B35C2",
"~. c #8935C4",
"^. c #9234C1",
"/. c #943BC4",
"(. c #9A3CC5",
"). c #963CC5",
"_. c #8E26D3",
"`. c #9624D5",
"'. c #8E32DD",
"]. c #A926C6",
"[. c #BA23CB",
"{. c #A527D6",
"}. c #B92AD3",
"|. c #AD3ADD",
" X c #A734DA",
".X c #B839D6",
"XX c #BE32CF",
"oX c #8A38E4",
"OX c #973BE4",
"+X c #9F2AE0",
"@X c #A73AE1",
"#X c #C518C1",
"$X c #C729CB",
"%X c #D337CE",
"&X c #C52CD4",
"*X c #C739D5",
"=X c #D33AD2",
"-X c #D431CA",
";X c #E03FCF",
":X c #9B43CA",
">X c #B845DD",
",X c #B350D8",
"<X c #9C54EA",
"1X c #A348E7",
"2X c #A854EB",
"3X c #BA52E5",
"4X c #A45EF0",
"5X c #B44AE1",
"6X c #A963EF",
"7X c #BA64EC",
"8X c #A964F0",
"9X c #BD77F2",
"0X c #B06EF2",
"qX c #C755DE",
"wX c #D954DB",
"eX c #D149D6",
"rX c #E355D4",
"tX c #DF61DE",
"yX c #E968DB",
"uX c #F278DF",
"iX c #C459E2",
"pX c #D258E1",
"aX c #C868E6",
"sX c #DF66E1",
"dX c #DA79E9",
"fX c #C077F2",
"gX c #CD79EA",
"hX c #EC7AE2",
"jX c #E378E5",
"kX c #B784F6",
"lX c #C68BF4",
"zX c #D58AEE",
"xX c #EC8BE5",
"cX c #EFA2ED",
/* pixels */
"  . . X X X O O @ @ * @ * = * : = 2 2 2 4 4 5 4 5 5 6 9 6 e 5 5 5 6 6 6 3 5 5 3 3 3 : : - - - - # # # + O O X X . . . . ",
"      . . . . . X O O X @ + # # * # * * = 2 : : : : : 2 : 3 : > > 3 > > : - - - - % $ # # # # + o o X X X . .           ",
". X O O O X @ * = = = 2 : 2 4 4 4 : 6 6 6 l u 6 u u u u u u u u i u z u u u e e 9 5 > 5 3 4 3 : : = * * # @ X O O O X X ",
"X X O @ @ O * * = = 2 2 4 4 4 6 u 4 u u 6 l x x x z x x b z i x x x x c z i u r u u 5 6 6 5 5 3 4 : - - = * + @ O O O X ",
"X O O @ @ O * * = : 2 2 4 5 6 6 6 4 u u u l z x x x x b x x z b b b c b x z k i i r 3 e 9 e 3 3 3 : : - = * + @ @ O O X ",
"X O @ @ * O = = = 2 2 4 4 5 6 6 u 6 u u l x x x x b b b M b b b M b b b c b c u k u 9 u e e 6 5 3 3 : : - * + @ @ O O X ",
". X X O @ X @ @ # * * = = 2 2 4 5 5 6 u 6 l l u z z z x b b f b c z c k i p u p r r 7 9 3 3 > > : - % # # # + O X X X . ",
". . X X X X O O # # * # = = 2 4 4 4 5 5 u 6 u u u u z c z f z i z f z p r r p p e 9 7 3 > ; ; - % + # $ # o X X . . . . ",
"O * * * 2 2 2 2 4 6 6 4 j j l x x M M M Z Z ~ V _ _ _ _ _ ` _ _ _ _ _ _ N Y Y N J N n b c k k t 3 e 5 5 3 2 : : * * # @ ",
"@ @ @ * = = 2 2 4 4 6 4 j 6 j l x x M M Z Z ~ V Y _ _ ` _ _ ` _ ) ) ) Y J Y Y J N n b c c y i r 3 9 5 5 2 : : - # # @ @ ",
"@ @ * * = = 2 2 4 6 6 6 j j l x x Z ~ ~ ~ ~ ~ ~ _ _ ` ` ` ` ` ` ` ` ) ) Y T Y T Y J n n c m y y 9 e 5 3 3 : : - * # @ @ ",
"@ @ @ * = = 2 2 4 6 6 4 t l l x M ^ ^ _ / _ _ ~ _ ` ` ` `  .`  .[ [ [ ` Y ) ) ) ' ) L N c m y p 7 e 7 3 3 : : - * # # @ ",
"X O O O @ # # * = 2 4 2 4 6 6 j M ^ ^ } ^ ^ _ ^ / / / ` { { | [ / / X.X.L L T ' X.o.L v a 0 9 0 > > > ; # % # + o X X X ",
"O O @ @ * + = = 4 4 6 6 u 6 l M ^ } 7.r.:.;.;...;...;.<.9.9.6.4.*.<.*.*.*...%.1.l.l.%.I D v c r 0 9 < 3 > - + # + # # O ",
"* * = 2 4 : 5 6 6 l l x x M Z _ ;.r.0XkXi.y.y.y.e.y.t.t._.`.`._.E.W.E.l.l.l.l.`.zXgXI.%.[ J N b c k y e e 6 : 2 : : - * ",
"@ * = 2 2 = 5 6 6 l l l x M Z _ 7.4Xi.i.0XoXoXOXOXOXOXOX1XlXlX1X@X@X@X5X|.|..XgX{.{.iXs.' J D v c f r e 9 5 - > : : * # ",
"# * = 2 2 = 5 6 6 j l x x M ^ ` 7.8Xi.r.kX8X4X6X4X8X8X7X7X9X9X7X3X7X7XaX3XaXiXzXT.{.aXs.{ U n n c m r r 9 9 : 3 : : - # ",
"@ * * : 4 = 4 6 6 6 j z x M Z ` 7.oX0X8X1Xr.U.U.U.U.U.`.+X9XfX+X{.`.`.T.`.I.I.>XaXaX.Xs.] U D v f p r r 9 5 > : : - * # ",
"X X O O # @ = = 4 3 5 5 6 u x Z ~ 7.oX<Xe.>.:.5.5.>.5.6.Y.I.I.Y.2.2.1.4.2.-.1.z.qX.Xx.o.P h a a 0 8 < > ; ; $ $ o o o . ",
"* = 2 4 4 5 6 6 u z x k Z Z ~ ` ;.9.oX<Xy.9.9.<.w.q.t.E.W.W._.W.C.C.C.q.3.8.0.G.qX.Xd.*.] T U D d v d p e 9 5 3 3 : - * ",
"= 2 2 4 6 6 6 6 l x M x Z ~ _ ` ;.r.oX2Xe.w.9.<.w.w.q.u.~.~.~.E.C.C.C.N.4.8.M.G.qX.Xk.&.] ' T U g n c d y r 9 5 3 : : * ",
"= = 2 2 5 6 6 j l l x x C ~ ( `  .5.OX<Xt.w.9.<.w.q.q.q.u.E.H.H.C.C.N.8.8.M.M.G.qX*Xk.&.] ' W U v S c d r e 9 3 3 : : * ",
"= 2 2 2 5 6 6 u l z M x C ( _ `  .y.<X<Xt.w.w.9.q.q.u.u.H.~.H.J.J.C.B.N.8.8.N.G.iX*Xn.&.{ E R U v D v f p r 9 3 3 : : - ",
"@ # * = : 2 4 5 e u x z b C C ( _ 5.i.<Xe.w.9.5.9.9.0.0.0.M.N.0.M.M.N.N.3.=.d.z.qX&Xs.#.E P U K h h a r 7 7 7 : - % # * ",
"X X @ @ # # * : 4 6 e u i z N C } :.'.2X6.5.>.<.<.,.6.4.6.,.3.2.4.3.3.4.=.=.1.z.qX}.a.Q P F G g w q 8 1 , ; $ $ + + + o ",
"2 2 4 6 6 5 l x M M Z ~ _ ` `  .<.6.@X2X_.u.q.E.~.!.~./.:X/.!.:X:X:X/.L.^.J.K.].qXeXf.8.&.@.] ] T K n v c f 7 e 5 5 3 : ",
"= 2 2 4 6 5 u l x M C Z ( _ `  .<.5.OX2XW.E.q.H.~.~.!./.:X!./.:X/.L./.J.F.F.F.].wX*Xm.=.&.@.] R U D n f d r 7 9 5 3 : : ",
"= 2 2 4 6 5 6 l z b M C ~ _ `  .<.y.1X2X_.E.E.E.~.~.!.:X:X/.J./.(./.K.K.J.F.G.].wX*Xj.n.&.@.E R U F S v d r 9 9 3 2 : : ",
"= : 2 5 6 4 6 l z x M N B / `  .9.U.4XfX+XW.E.C.E.!.~././.)./.(.(./.K.K.F.F.].&XdXtXv.f.=.@.E R K D v g d r 7 9 3 : : - ",
"@ # # = = : 3 5 e e k x M N Y ` <.U.9X9X+XY.w.w.0.0.V.Z.C.Z.A.B.A.A.m.k.n.f.z.&XjXjXb.p.Q P F H A h w 0 7 7 ; ; & % # + ",
"# * = : : 5 5 e u i x i N Y ( ..5.U.lXlX@XY.0.6.0.V.W.K.^./.^.F.F.F.A.m.d.f.I.%XxXxX$Xh.#.E P F h g h a a 9 7 > : - % # ",
": 2 5 6 6 u u l x V C N ( ` | <.w._.3XfX X_.~.V.~./.:X:X:X:X:X:X:X(.(.(.S.(.].&XdXyX[.f.=.@.@.E F U D v c p y e 5 3 2 : ",
"= 2 2 4 5 u u u x b Z n ( _ [  .5.W.@X2X`.~.E.M.~././.).(.(.:X(.(.^.(.G.D.K.P.XXwX=XP.g.&.@.+.E F D v v d r e 9 3 3 : - ",
"= 2 2 4 6 6 6 l x b M n ( _ ` ..<.0.|.3XQ.E.C.0.J.!.^.).(.(.(.(.(.(.L.L.m.D.K.P.wX=Xz.=.#.Q E R F D S v d r 0 9 3 3 : : ",
"* : 2 2 4 6 6 e u b M b Y ( ` [ *.6.@X3XQ.V.V.0.Z.J.!.K./.L.L.K.L.L.L.D.n.m.D.P.wX%Xm.p.Q E E R G S g h r 0 7 3 > : - : ",
"X X + @ * % - : 3 e e p i c n J ' >.+X5Xl.,.>.=.4.1.2.s.s.g.s.g.g.g.g.p.p.p.a.c.eX-Xa.Q ! H G A w q 8 1 , ; & $ + o + X ",
"* : : 2 5 2 6 e i b b N Y Y ) [ *.2.|.3XQ.0.0.N.N.Z.Z.J.K.D.D.D.K.F.D.D.m.n.m.v.rX-Xh.=.@.E E W F D g f r r > 3 > : : * ",
": : 2 6 6 4 u l x b Z C Y _ `  .<.6.|.3XQ.C.N.N.J.Z.K.K./.K.K.L.L.L.L.D.D.m.D.P.rXeXm.=.&.E E E K D v m d p 7 9 5 3 2 : ",
"= = 2 2 4 5 6 u z x b N Y ( ) [ *.2.|.3XQ.M.0.0.N.B.B.F.F.F.F.K.D.K.D.D.m.n.m.P.wX%Xh.=.@.E R W F S v d r r 7 3 3 : : - ",
"= : 2 2 5 4 e u u x b N N ( ) [ *.2.|.iXY.0.8.0.N.N.B.J.G.G.G.G.F.D.D.m.n.n.m.P.rX%Xh.p.+.E W U F S f d r r > 5 > : : * ",
"@ # * : 2 - 3 5 e r i c c n N ) *.2. XqXl.s.d.d.d.k.k.G.G.].T.v.z.j.f.j.n.h.g.b.rX-Xh.a.H H F G h a q 0 7 9 ; : - % % @ ",
"X + @ # # * - : 3 3 9 9 p f n T %.l.,XaXI.s.s.s.s.s.z.z.T.[.R.R.z.z.j.j.h.h.h.b.yXrXb.O.! G A s q q 1 1 , ; & $ + + + X ",
": : 4 4 6 e t t z x b z B Y ` ..6.|.fXaXiX{.T.T.}.}.}.}.&XhXjX&X&X&X&X[.v.$X$XrXyXuX=Xc.$.] P K f v v d y e e 5 3 2 : = ",
"* = = 2 4 5 6 e e z x p n N / { l.aXT.T.zXdXdXdXdXdXjXjXjXtXsXhXhXhXuXuXuXuXuXxXb.#XyXb.$.P K D s f d r r 9 5 3 : : : * ",
"* = = 2 2 4 5 6 t t k i b N Y [ s.3X.X}.aX}.}.[.}.}.}.&X%XcXcX=X$X&X$X-X-X$X#XuX-X;XrXh.o.P F S a d p r 9 9 3 2 : : * # ",
"# * = = 2 2 4 5 e t i y c n J ) %.z.iXiXT.l.k.g.k.z.z.G.T.$X[.v.z.z.m.z.a.c.c.#XyXrXb.a.Q F S v a a r r 9 3 3 > - - * # ",
"X O O @ # % - - : 3 7 3 e r d v L %.s.s.-.o.#.o.%.#.$.$.p.h.h.p.a.O.$.a.O.O.O.a.b.b.a.! A s w q 1 7 , > ; ; % + + + X O ",
"X X + + @ + % - : 3 3 7 9 0 r f D L o.%.o.] I I +.Q o.#.$.$.$.$.#.#.+.Q O.! ! O.O.O.! H A s a 0 8 7 , ; - % + + o + + X ",
"# * = 2 2 = 4 6 t t t z c b M J / J [ { { { { ..*.@.&.&.&.&.&.=.&.&.&.#.@.@.@.#.#.#.P U K D n c f y r 9 9 5 - 2 : = * # ",
"@ # * = = * 2 4 5 5 e t y z c b n n L L T ' ' ] { ] ] @.@.@.+.@.+.+.@.+.@.E R R R P G S v v f d r r 9 9 3 3 - - - * # # ",
"@ @ * * = * 2 2 5 5 e e t y m c b c D J U U T ' ' ] ] ] { E E ] +.E E E E R W W F F h S g f d r r 9 9 5 3 > * - - # # @ ",
"O O @ * * * = = 2 3 5 5 e e y y c d v n n J J U U U W R E R W R R W R P F F F F D S s f d a 0 0 7 7 > : : : # # # @ + O ",
"  . . X + . X + + # % - ; - > > 7 7 8 0 0 a a s h h h A A A s A A A A s A s w w q q 1 1 , ; ; ; & % $ + + o X . . . .   ",
"O @ * * * : = : 2 2 5 : 5 e y k k c c c n D N g D J K U T K P K K U U F A S D D n v f a d r 0 9 - > 3 2 2 : - - # @ O O ",
"O @ @ * * = : : 2 4 5 : 6 e t i k c c c n n N g D J J U T U K U F K U D v D n n v v c d r r r e > 3 3 2 2 : * * * @ @ O ",
"X O O @ * * * * : 2 2 : 5 5 e e r y y k m c c f n n n n D n D D D v n v g v g f d d r r 0 9 9 5 : 3 : : - * # # @ O O X ",
"X X O @ @ * * * = : 2 = 3 5 5 e 6 y r y p m c p c n c n v v v v v v v c a f f d p r r 0 9 9 3 3 ; : : : - * # @ @ + O X ",
". X X O O O O @ # * : * : : 2 3 3 3 5 9 9 e p 0 p p a d d d d p a p a f 8 r 0 0 9 9 7 7 > > > > # - - @ @ O O O o . . . ",
"        .   . . X X X X + o + + $ + % % - ; ; ; , ; ; < < , , , < < < , ; & & & & & $ $ $ $ + o . X . . . .   .         ",
". . O O O X @ * * : : : 2 2 5 5 6 > e e r u y i y y y k m p r m f m k p y y r e e 9 > 3 3 5 3 2 : : : - * # O O O X X . "
};
