/* XPM */
static char *dc43f94710c044e0dbca4f384eddcbd3ZJmA2gf6HZCphOQI[] = {
/* columns rows colors chars-per-pixel */
"60 60 91 1 ",
"  c #1A1F1D",
". c #1C221E",
"X c #1E2422",
"o c #212625",
"O c #232A26",
"+ c #242629",
"@ c #262B29",
"# c #292D2D",
"$ c #273029",
"% c #2B322E",
"& c #2C2E31",
"* c #2E3231",
"= c #2F3830",
"- c #313534",
"; c #333A35",
": c #343638",
"> c #353B38",
", c #353B39",
"< c #363A38",
"1 c #363B38",
"2 c #36383A",
"3 c #36383B",
"4 c #373B3A",
"5 c #373A3B",
"6 c #373B3B",
"7 c #353C38",
"8 c #363C38",
"9 c #383E3B",
"0 c #393F3B",
"q c #393D3C",
"w c #3B3D3E",
"e c #3C3E3F",
"r c #364037",
"t c #374039",
"y c #394239",
"u c #39413B",
"i c #3A423D",
"p c #3C413D",
"a c #3C413F",
"s c #3D433E",
"d c #3E423F",
"f c #3C443C",
"g c #3F463F",
"h c #3C3E41",
"j c #3C4040",
"k c #3E4041",
"l c #3D4340",
"z c #3E4042",
"x c #3E4242",
"c c #3F4343",
"v c #3E4540",
"b c #3F4441",
"n c #3F4541",
"m c #3F4442",
"M c #404541",
"N c #424643",
"B c #434743",
"V c #424544",
"C c #434445",
"Z c #424446",
"A c #444746",
"S c #414841",
"D c #434843",
"F c #424844",
"G c #434946",
"H c #444945",
"J c #454945",
"K c #444846",
"L c #464A47",
"P c #484D47",
"I c #444748",
"U c #454749",
"Y c #464B48",
"T c #46484A",
"R c #474A4B",
"E c #474D48",
"W c #48494A",
"Q c #484A4A",
"! c #484D49",
"~ c #494D4B",
"^ c #494B4C",
"/ c #4A4C4E",
"( c #4B4C4F",
") c #4C4D4F",
"_ c #4E514E",
"` c #4E4F51",
"' c #504F52",
"] c #4F5151",
"[ c #525152",
"{ c #535354",
"} c #585758",
/* pixels */
"@+X%;;;7000bKS&+-IIIR:O-!Vu;@XXX==rrr;+-VVV-*hQAh3Oo%;;;;***",
"7#+O;uibgd;22%+&V]^^d#%KQMi;XX%OO%==%O*jVjG2&hjh2-#%MSSSGVbi",
"b*++@$=-;#ooOo+7KQRj+#M!Sbg*X%i;@O$OO%=-0GR%+&&:-:--EKKKVMMh",
"V*+o@++@+O#%Oo%dj!A+Od!EMju#X;ibrOX.%ybM222#&&&*:5*#R!QKVVMI",
"V&++-2225edd8O%ujK&o-dgtij7X+8br;ff=*7bbb*O*:&&++##@;K!`^``'",
"&++*jR^RIMMgp@$%%#oO:idj7=*X@;8uSbbg=-Scb2@-GV0:::-#+-50ZZh3",
"XX#2R_/VMBKPuo.%;oX@0VISMtOXO;gbbbvb>%bEb-+2GGRdhZh&++#+#&&+",
" +&jR/VjBDPD#O$%%.XO-MQKGtOX*ibfbbSb7%f/d=@fVEKf0hA:##::++X.",
" o&3VhdjMKK;O=-@o$-o#-72=$O%iibivvvv7%f/x@=E~~YY0egi*+hRh&+ ",
"#++:h0MiMK-O=08@OjK-O@#%%+%7iiibbbHv=%jG3#7EE~Ynedjj*o0^`^h&",
"M0##iMbbg-#;0p;O%AM:O#dVR-#-ggbbbGv*%@3E7@7nHHcTdbM;+o:['{}R",
"IV-@:GMM;O*ud8$O-Mi-O-jjR0#*8gbit*OXO@@;*O*nvvIvid2@#&&[}}`I",
"KK;@-iS0Oo;d2$$O=yy#O=ufMG:@@%=oXX+%9Gx=*OX=vvvvi-+#h2#Q}{)R",
"RK;O#-%o..@#$#;@-d;O.%;uMj-*i;%%$O=vGnbfuu%X*=t>-#-hVj#G`^EE",
"GE;OOOoO#%##o#=O%r%O.$;fM;#MRMi#O*ubbbbiuu=#X**OO-AIVM#d!VGG",
"SK%O.o*20;0-O#%%@@OO=%%u2@;VVjuXX$tiibvttuu*X9>%0ARVj0@iERGd",
"gd%O+3Mhjjz*X*0h8%X%uf-%O$fSKb=.Xrrrrbbrrtt=$=%=MRRMMd#8KKMg",
"00#o&^IZjcc#*hhh0h*@;7f7O2SGGiO.O=rriiyrrtt=XX%ugSMbKd$%MDSg",
"$#Oo-^IhcG-+-hZh7h2@#;;=Oubbb;.X=ruigbgytvf%X$=vbGKE!d$$-;%$",
"#%*O-AVMRb&+-hhh37f%o#%@#;Mbi$.O;gibbGbftvtX*$$jbEE_E2OOXX+@",
"0u0##idMGb#@:hh5jVV>*ijb*#0Vb+X*ibbSGEGitt$X$$$jS!!_K-OOX@;;",
"ugd-O;VK_t+#hZMjR^b-0IGGV*@;7XX#2bSGEGb;=$X$$$X=bRQ!2@-;O@ru",
"ufMe@%bRG=X*0ZIGVj7*jVVVG27*@XXX#*;2;=*%XX=tr=%O*222@$-*@X8u",
"ufgS-O-;*+&*-*&&**#*^RIVE27j@@%@oOOO%==$X;bffvj*&##-%@%%..Ou",
"fbbS8@@OO%iMVh@*03&0RRI^_2+#2iit77-+=9-+2KKMMj55:#hh+-A0+oo$",
";bfS8%%O@ijjVV&&I-@V`IR`]3+-Gfiiifb=+%O;SKVMM50M:&h&&jzh;...",
"O;ug;OO+igfMGR%+--&&:zR`R:+3Siiuiib7+X;GM!Ae00ZZ:+&&hhMM0o..",
"OO$$@X+8GbbMRM*+3RR3*-:Zj*+3Kgiuifbi@@bSVVAjhI`h&&:hhCCC-oo.",
"--==$X%bSMGSKi@-MVVRRz**&##cgSiifbb8o%dMVVRjZ^Z*&-:&hII^*#O#",
";i7itX=SKMKKM*#S^AVKVR3#&h#jbifbbgi@o#*8bRV/`h&++&&:ITQI*5O#",
"0iifiX;bgG_!7+iVbGRKzR3@3G**bbbbgy%-2;2#*V/^h&#+&hVE^Q(555O#",
"2Mbb;o*jSK_!**GMMbVRIz=+3`j#;bff-#2Kddj:#*h2&-*+j^`!Q(!3MeO@",
"%--;#.@-BKL;oO<dbbYnt*+OiEM#+%;%@2EGVhbbj###&b:+M!Q!!^3j!uo.",
"O%%#Oo###@#@oo#=fbb;#%=%-GV&O@@O+dQMhhVVI0+o&j-+K!!/`j0R!2oo",
"0MKM&-Me-@#;0;%%;b;@>bvi*hh&*02#+:^I3IVzV3&:##@+MKK^00R_M#o#",
"MAKA:5QM0#*dddd%*2@+bbGb#*&#-QK0#&Mj0ZIIh*hV;#o@0RM:hQ[!-O#M",
"jA))e-5&OoOiMde-++O#hGIh#-:3-V/Ej#--VIRI-2/MM-OO=--M)_b*++:Z",
"MQ''5##+**#+;dd%XX++-Iz&-MRQ--dMi+O-R^^2-^/EKj%o++-02-20-+*A",
"I`'Q##2ZAVd&+--oX*2&#hhX*MI!h$*-=#X3ZIh#-Q/!!G2O8gGVS!EGM#&5",
"5Q(:&e))RAQd##O#jRbb*#*+#iI^2%2u0%o:IV-+iKKQQE2;PKKP!MbbM-+#",
"#-*#2_[/RVRG*+%S^VVVj*XX+;vf$;ffj%o-id@O;MKK!K-ugibSRKMb--#o",
"++*8K//QKjVG#+d!^I^Rbh&XX@;%@$;8;+o##+O+8GVQK2#-gbbbbf2;0b2.",
"+*0bgSKVVVR2+%GE``TIVj0&XX%;r;;;%#-jd;@O=0j0#%-%%O@@#+-RMV*O",
"+#=;ugMKRV;#+-AITTTZj300=+8bbfgSd#-MMi$#--#@2!KM-#0i;**MK0*0",
"0-O$%8;2-&@@@-SVWTTZhgRR-+*0didV0#2gij--M7@-K!Ae=iIRh5#50%dg",
"bMd%#OOO+@%-%-hGTIZhVR/R:+&jKKRd%O-iVZ;2V*-^EKV-bghMM5-+@*gd",
"RQGb3#O@-&&j3#0VI`^IR/`h&+#3hh-**%#;GV222*bMMRMVMbddK-@O#gKA",
"MAMMV-#-hh-*-#&**:5hZ0:++@&&+&hV`Kg*--*+O*2iMR^IKMvM5##-#e!A",
"#-#---#-IQM5:++&-::&+++#-Zh-+:R/QAGK2O#$O=r;fSSEGGIb*#hh$#-#",
"-2:-+#+&AAIWM:+2A)(A&+&:MAM*+5SEKAKKM8$-Orr=fSGGGEE2@&Vj-o#*",
"dKM##5#&IIAMh5&-W((5&++hIIh%o7gGAGKSgy%Oorr=;fgbE!b#+#:3-O2d",
"dG-@5V-&--&-&-&#h(h5(C&h^QM++2uSK!!Sfyy$.%rr=rfbGg*O+*&*$##-",
"--@*Mh#@+%hdMh-#:5hQI(&:IIho$-pAV7*=%%;$.o=r-8ffy%O.;SVGKu%O",
"oO#2A;oo-MQ))^j##hCCCC&:AV3+*8d-@&0bf-@OOOO$%==$@OXO7GR^^G2%",
"+O*0M%.#dMZAMVg#:CIh:&++--#+$-#+*I!Gbb=O%;O.O.O;;r%O8SGE!V03",
"##-d;o+edMhhMZ:ow(:&&::&*;22*@#e//_Gfi2@$r$%%$#uufrO%gSKK0jb",
"&+2-oo8ydiduM0##:&&CzMz&5MIWe#zQ!_EGbfi*O>$%t;%$ffrOOygHv;Gj",
"o#&+O-ru8u0025h-#&hCMMM#-AQQe#MCGIVMbbi+O7$$tbi%$-r$X;fbrf_0",
" oO@-8-;;;-0hMM#+:QCAWI&O-hq%@0fffbbbbi++-@#h``b=$$XX%==%0j*",
"  @-;**-;-uuAAMo+hCCCI5+#<<-#.O<t270jb-o=h9%=VRVf=...XXXO+oo"
};
